<svg width="2060" height="849" xmlns="http://www.w3.org/2000/svg" xmlns:xlink="http://www.w3.org/1999/xlink" xml:space="preserve" overflow="hidden"><defs><clipPath id="clip0"><rect x="0" y="0" width="2060" height="849"/></clipPath></defs><g clip-path="url(#clip0)"><rect x="0" y="0" width="2060" height="849" fill="#FFFFFF"/><g><path d="M251.5 772.5 2007.5 772.5M251.5 701.523 2007.5 701.523M251.5 630.521 2007.5 630.521M251.5 489.516 2007.5 489.516M251.5 418.514 2007.5 418.514M251.5 348.512 2007.5 348.512M251.5 277.509 2007.5 277.509M251.5 206.507 2007.5 206.507M251.5 136.505 2007.5 136.505M251.5 65.5002 2007.5 65.5002" stroke="#D9D9D9" stroke-width="3.4375" stroke-linejoin="round" stroke-miterlimit="10" fill="none"/></g><g><path d="M251.5 560.5 2007.5 560.501" stroke="#D9D9D9" stroke-width="3.4375" stroke-linejoin="round" stroke-miterlimit="10" fill="none" fill-rule="evenodd"/></g><g><path d="M315 135 440.014 253.008 565.019 278.009 691.023 293.01 816.027 298.01 942.031 305.01 1067.04 308.01 1192.04 349.011 1318.04 354.012 1443.05 359.012 1569.05 365.012 1694 753" stroke="#5F5F5F" stroke-width="8.02083" stroke-linecap="round" stroke-linejoin="round" stroke-miterlimit="10" fill="none"/></g><g><path d="M315 133 440.014 218.007 565.019 227.007 691.023 232.008 816.027 241.008 942.031 283.009 1067.04 284.009 1192.04 286.009 1318.04 318.01 1443.05 340.011 1569.05 427.014 1694 711" stroke="#B3B3B3" stroke-width="8.02083" stroke-linecap="round" stroke-linejoin="round" stroke-miterlimit="10" stroke-dasharray="24.0625 32.0833" fill="none"/></g><g><path d="M315 132 440.014 196.006 565.019 220.007 691.023 237.008 816.027 244.008 942.031 254.008 1067.04 258.008 1192.04 292.01 1318.04 326.011 1443.05 354.012 1569.05 361.012 1694.06 364.012 1820.06 409.013 1945 739" stroke="#898989" stroke-width="8.02083" stroke-linecap="round" stroke-linejoin="round" stroke-miterlimit="10" stroke-dasharray="0 16.0417" fill="none"/></g><g><path d="M315 131 440.014 197.006 565.019 243.008 691.023 253.008 816.027 284.009 942.031 319.01 1067.04 322.011 1192.04 372.012 1318 730" stroke="#212121" stroke-width="8.02083" stroke-linecap="round" stroke-linejoin="round" stroke-miterlimit="10" fill="none"/></g><g><path d="M315 131 440.014 244.008 565.019 263.009 691.023 281.009 816.027 283.009 942.031 306.01 1067.04 313.01 1192.04 698.023 1318.04 689.023 1443.05 693.023 1569 752" stroke="#DADADA" stroke-width="8.02083" stroke-linecap="round" stroke-linejoin="round" stroke-miterlimit="10" fill="none"/></g><g><path d="M315 131 440.014 235.008 565.019 247.008 691.023 618.02 816.027 642.021 942.031 663.022 1067.04 660.022 1193 748" stroke="#AAAAAA" stroke-width="8.02083" stroke-linecap="round" stroke-linejoin="round" stroke-miterlimit="10" stroke-dasharray="16.0417 16.0417" fill="none"/></g><g><path d="M314.5 701.5 439.515 701.5 565.519 701.5 690.523 701.5 816.527 701.5 941.531 701.5 1067.54 701.5 1192.54 701.5 1317.54 701.5 1443.55 701.5 1568.55 701.5 1694.56 701.5 1819.56 701.5 1945.5 701.5" stroke="#C00000" stroke-width="6.875" stroke-linecap="round" stroke-linejoin="round" stroke-miterlimit="10" fill="none"/></g><g><text font-family="Times New Roman,Times New Roman_MSFontService,sans-serif" font-weight="400" font-size="41" transform="matrix(1 0 0 1 123.944 785)">0.001</text></g><g><text font-family="Times New Roman,Times New Roman_MSFontService,sans-serif" font-weight="400" font-size="41" transform="matrix(1 0 0 1 144.569 715)">0.01</text></g><g><text font-family="Times New Roman,Times New Roman_MSFontService,sans-serif" font-weight="400" font-size="41" transform="matrix(1 0 0 1 165.194 644)">0.1</text></g><g><text font-family="Times New Roman,Times New Roman_MSFontService,sans-serif" font-weight="400" font-size="41" transform="matrix(1 0 0 1 196.132 573)">1</text></g><g><text font-family="Times New Roman,Times New Roman_MSFontService,sans-serif" font-weight="400" font-size="41" transform="matrix(1 0 0 1 175.507 503)">10</text></g><g><text font-family="Times New Roman,Times New Roman_MSFontService,sans-serif" font-weight="400" font-size="41" transform="matrix(1 0 0 1 154.882 432)">100</text></g><g><text font-family="Times New Roman,Times New Roman_MSFontService,sans-serif" font-weight="400" font-size="41" transform="matrix(1 0 0 1 134.257 361)">1000</text></g><g><text font-family="Times New Roman,Times New Roman_MSFontService,sans-serif" font-weight="400" font-size="41" transform="matrix(1 0 0 1 113.632 291)">10000</text></g><g><text font-family="Times New Roman,Times New Roman_MSFontService,sans-serif" font-weight="400" font-size="41" transform="matrix(1 0 0 1 93.0067 220)">100000</text></g><g><text font-family="Times New Roman,Times New Roman_MSFontService,sans-serif" font-weight="400" font-size="41" transform="matrix(1 0 0 1 72.3817 149)">1000000</text></g><g><text font-family="Times New Roman,Times New Roman_MSFontService,sans-serif" font-weight="400" font-size="41" transform="matrix(1 0 0 1 51.7567 79)">10000000</text></g><g><text font-family="Times New Roman,Times New Roman_MSFontService,sans-serif" font-weight="400" font-size="41" transform="matrix(1 0 0 1 292.788 834)">it1</text></g><g><text font-family="Times New Roman,Times New Roman_MSFontService,sans-serif" font-weight="400" font-size="41" transform="matrix(1 0 0 1 418.213 834)">it2</text></g><g><text font-family="Times New Roman,Times New Roman_MSFontService,sans-serif" font-weight="400" font-size="41" transform="matrix(1 0 0 1 543.638 834)">it3</text></g><g><text font-family="Times New Roman,Times New Roman_MSFontService,sans-serif" font-weight="400" font-size="41" transform="matrix(1 0 0 1 669.064 834)">it4</text></g><g><text font-family="Times New Roman,Times New Roman_MSFontService,sans-serif" font-weight="400" font-size="41" transform="matrix(1 0 0 1 794.489 834)">it5</text></g><g><text font-family="Times New Roman,Times New Roman_MSFontService,sans-serif" font-weight="400" font-size="41" transform="matrix(1 0 0 1 919.914 834)">it6</text></g><g><text font-family="Times New Roman,Times New Roman_MSFontService,sans-serif" font-weight="400" font-size="41" transform="matrix(1 0 0 1 1045.34 834)">it7</text></g><g><text font-family="Times New Roman,Times New Roman_MSFontService,sans-serif" font-weight="400" font-size="41" transform="matrix(1 0 0 1 1170.76 834)">it8</text></g><g><text font-family="Times New Roman,Times New Roman_MSFontService,sans-serif" font-weight="400" font-size="41" transform="matrix(1 0 0 1 1296.19 834)">it9</text></g><g><text font-family="Times New Roman,Times New Roman_MSFontService,sans-serif" font-weight="400" font-size="41" transform="matrix(1 0 0 1 1411.3 834)">it10</text></g><g><text font-family="Times New Roman,Times New Roman_MSFontService,sans-serif" font-weight="400" font-size="41" transform="matrix(1 0 0 1 1536.73 834)">it11</text></g><g><text font-family="Times New Roman,Times New Roman_MSFontService,sans-serif" font-weight="400" font-size="41" transform="matrix(1 0 0 1 1662.15 834)">it12</text></g><g><text font-family="Times New Roman,Times New Roman_MSFontService,sans-serif" font-weight="400" font-size="41" transform="matrix(1 0 0 1 1787.58 834)">it13</text></g><g><text font-family="Times New Roman,Times New Roman_MSFontService,sans-serif" font-weight="400" font-size="41" transform="matrix(1 0 0 1 1913 834)">it14</text></g><g><text font-family="Times New Roman,Times New Roman_MSFontService,sans-serif" font-weight="400" font-size="46" transform="matrix(6.12323e-17 -1 1 6.12323e-17 49.8667 679)">Duality Gap in million EUR</text></g><g><rect x="254" y="25.0001" width="1788" height="90.9997" fill="#FFFFFF"/></g><g><path d="M328 48.0001 444 48.0005" stroke="#5F5F5F" stroke-width="8.02083" stroke-linecap="round" stroke-linejoin="round" stroke-miterlimit="10" fill="none" fill-rule="evenodd"/></g><g><text font-family="Times New Roman,Times New Roman_MSFontService,sans-serif" font-weight="400" font-size="41" transform="matrix(1 0 0 1 456.699 61)">ARO1</text></g><g><path d="M775 48.0001 891 48.0005" stroke="#B3B3B3" stroke-width="8.02083" stroke-linecap="round" stroke-linejoin="round" stroke-miterlimit="10" stroke-dasharray="24.0625 32.0833" fill="none" fill-rule="evenodd"/></g><g><text font-family="Times New Roman,Times New Roman_MSFontService,sans-serif" font-weight="400" font-size="41" transform="matrix(1 0 0 1 903.505 61)">ARO2</text></g><g><path d="M1222 48.0001 1338 48.0005" stroke="#898989" stroke-width="8.02083" stroke-linecap="round" stroke-linejoin="round" stroke-miterlimit="10" stroke-dasharray="0 16.0417" fill="none" fill-rule="evenodd"/></g><g><text font-family="Times New Roman,Times New Roman_MSFontService,sans-serif" font-weight="400" font-size="41" transform="matrix(1 0 0 1 1350.31 61)">ARO3</text></g><g><path d="M1669 48.0001 1784 48.0005" stroke="#212121" stroke-width="8.02083" stroke-linecap="round" stroke-linejoin="round" stroke-miterlimit="10" fill="none" fill-rule="evenodd"/></g><g><text font-family="Times New Roman,Times New Roman_MSFontService,sans-serif" font-weight="400" font-size="41" transform="matrix(1 0 0 1 1797.12 61)">ARO4</text></g><g><path d="M328 93.0002 444 93.0005" stroke="#DADADA" stroke-width="8.02083" stroke-linecap="round" stroke-linejoin="round" stroke-miterlimit="10" fill="none" fill-rule="evenodd"/></g><g><text font-family="Times New Roman,Times New Roman_MSFontService,sans-serif" font-weight="400" font-size="41" transform="matrix(1 0 0 1 456.699 106)">ARO5</text></g><g><path d="M775 93.0002 891 93.0005" stroke="#AAAAAA" stroke-width="8.02083" stroke-linecap="round" stroke-linejoin="round" stroke-miterlimit="10" stroke-dasharray="16.0417 16.0417" fill="none" fill-rule="evenodd"/></g><g><text font-family="Times New Roman,Times New Roman_MSFontService,sans-serif" font-weight="400" font-size="41" transform="matrix(1 0 0 1 903.505 106)">ARO6</text></g><g><path d="M1222.5 93.5 1337.5 93.5004" stroke="#C00000" stroke-width="6.875" stroke-linecap="round" stroke-linejoin="round" stroke-miterlimit="10" fill="none" fill-rule="evenodd"/></g><g><text font-family="Times New Roman,Times New Roman_MSFontService,sans-serif" font-weight="400" font-size="41" transform="matrix(1 0 0 1 1350.31 106)">Conv. Goal</text></g></g></svg>