<svg width="2836" height="1336" xmlns="http://www.w3.org/2000/svg" xmlns:xlink="http://www.w3.org/1999/xlink" xml:space="preserve" overflow="hidden"><defs><clipPath id="clip0"><rect x="2719" y="3965" width="2836" height="1336"/></clipPath></defs><g clip-path="url(#clip0)" transform="translate(-2719 -3965)"><rect x="2719" y="3965" width="2836" height="1336" fill="#FFFFFF"/><g><path d="M2975.5 4913.66 5280.5 4913.66M2975.5 4814.66 5280.5 4814.66M2975.5 4715.65 5280.5 4715.65M2975.5 4616.65 5280.5 4616.65M2975.5 4517.65 5280.5 4517.65M2975.5 4418.65 5280.5 4418.65M2975.5 4320.64 5280.5 4320.64M2975.5 4221.64 5280.5 4221.64M2975.5 4122.64 5280.5 4122.64M2975.5 4023.5 5280.5 4023.5" stroke="#D9D9D9" stroke-width="3.4375" stroke-linejoin="round" stroke-miterlimit="10" fill="none"/></g><g><path d="M2975.5 4886.66 3024.6 4886.66 3024.6 5012.5 2975.5 5012.5ZM3367.61 4992.66 3416.61 4992.66 3416.61 5012.5 3367.61 5012.5ZM3759.62 4843.66 3808.62 4843.66 3808.62 5012.5 3759.62 5012.5ZM4152.64 5008.66 4201.64 5008.66 4201.64 5012.5 4152.64 5012.5ZM4544.65 4893.66 4593.65 4893.66 4593.65 5012.5 4544.65 5012.5ZM4936.66 4287.64 4985.66 4287.64 4985.66 5012.5 4936.66 5012.5Z" stroke="#000000" stroke-width="3.4375" stroke-linejoin="round" stroke-miterlimit="10" fill="#767171"/></g><g><path d="M2975.5 4861.66 3024.6 4861.66 3024.6 4886.66 2975.5 4886.66ZM3367.61 4978.66 3416.61 4978.66 3416.61 4992.66 3367.61 4992.66ZM3759.62 4674.65 3808.62 4674.65 3808.62 4843.66 3759.62 4843.66ZM4152.64 4989.66 4201.64 4989.66 4201.64 5008.66 4152.64 5008.66ZM4544.65 4841.66 4593.65 4841.66 4593.65 4893.66 4544.65 4893.66ZM4936.66 4095.63 4985.66 4095.63 4985.66 4287.64 4936.66 4287.64Z" stroke="#000000" stroke-width="3.4375" stroke-linejoin="round" stroke-miterlimit="10" fill="#5B9BD5"/></g><g><path d="M3024.6 4885.66 3073.6 4885.66 3073.6 5012.5 3024.6 5012.5ZM3416.61 4990.66 3465.61 4990.66 3465.61 5012.5 3416.61 5012.5ZM3808.62 4793.66 3857.63 4793.66 3857.63 5012.5 3808.62 5012.5ZM4201.64 5011.5 4250.64 5011.5 4250.64 5012.5 4201.64 5012.5ZM4593.65 4888.66 4642.65 4888.66 4642.65 5012.5 4593.65 5012.5ZM4985.66 4337.64 5034.67 4337.64 5034.67 5012.5 4985.66 5012.5Z" stroke="#000000" stroke-width="3.4375" stroke-linejoin="round" stroke-miterlimit="10" fill="#767171"/></g><g><path d="M3024.6 4845.66 3073.6 4845.66 3073.6 4885.66 3024.6 4885.66ZM3416.61 4975.66 3465.61 4975.66 3465.61 4990.66 3416.61 4990.66ZM3808.62 4620.65 3857.63 4620.65 3857.63 4793.66 3808.62 4793.66ZM4201.64 4984.66 4250.64 4984.66 4250.64 5012.66 4201.64 5012.66ZM4593.65 4851.66 4642.65 4851.66 4642.65 4888.66 4593.65 4888.66ZM4985.66 4156.64 5034.67 4156.64 5034.67 4337.64 4985.66 4337.64Z" stroke="#000000" stroke-width="3.4375" stroke-linejoin="round" stroke-miterlimit="10" fill="#5B9BD5"/></g><g><path d="M3073.6 4888.66 3122.6 4888.66 3122.6 5012.5 3073.6 5012.5ZM3465.61 5002.66 3514.62 5002.66 3514.62 5012.5 3465.61 5012.5ZM3857.63 4790.66 3906.63 4790.66 3906.63 5012.5 3857.63 5012.5ZM4250.64 5011.5 4299.64 5011.5 4299.64 5012.5 4250.64 5012.5ZM4642.65 4861.66 4691.65 4861.66 4691.65 5012.5 4642.65 5012.5ZM5034.67 4373.64 5083.67 4373.64 5083.67 5012.5 5034.67 5012.5Z" stroke="#000000" stroke-width="3.4375" stroke-linejoin="round" stroke-miterlimit="10" fill="#767171"/></g><g><path d="M3073.6 4851.66 3122.6 4851.66 3122.6 4888.66 3073.6 4888.66ZM3465.61 4988.66 3514.62 4988.66 3514.62 5002.66 3465.61 5002.66ZM3857.63 4608.65 3906.63 4608.65 3906.63 4790.66 3857.63 4790.66ZM4250.64 4983.66 4299.64 4983.66 4299.64 5012.66 4250.64 5012.66ZM4642.65 4816.66 4691.65 4816.66 4691.65 4861.66 4642.65 4861.66ZM5034.67 4167.64 5083.67 4167.64 5083.67 4373.64 5034.67 4373.64Z" stroke="#000000" stroke-width="3.4375" stroke-linejoin="round" stroke-miterlimit="10" fill="#5B9BD5"/></g><g><path d="M3122.6 4920.66 3171.6 4920.66 3171.6 5012.5 3122.6 5012.5ZM3514.62 5002.66 3563.62 5002.66 3563.62 5012.5 3514.62 5012.5ZM3906.63 4776.66 3955.63 4776.66 3955.63 5012.5 3906.63 5012.5ZM4299.64 4986.66 4348.64 4986.66 4348.64 5012.5 4299.64 5012.5ZM4691.65 4884.66 4740.66 4884.66 4740.66 5012.5 4691.65 5012.5ZM5083.67 4555.65 5132.67 4555.65 5132.67 5012.5 5083.67 5012.5Z" stroke="#000000" stroke-width="3.4375" stroke-linejoin="round" stroke-miterlimit="10" fill="#767171"/></g><g><path d="M3122.6 4899.66 3171.6 4899.66 3171.6 4920.66 3122.6 4920.66ZM3514.62 4988.66 3563.62 4988.66 3563.62 5002.66 3514.62 5002.66ZM3906.63 4617.65 3955.63 4617.65 3955.63 4776.66 3906.63 4776.66ZM4299.64 4956.66 4348.64 4956.66 4348.64 4986.66 4299.64 4986.66ZM4691.65 4848.66 4740.66 4848.66 4740.66 4884.66 4691.65 4884.66ZM5083.67 4376.64 5132.67 4376.64 5132.67 4555.65 5083.67 4555.65Z" stroke="#000000" stroke-width="3.4375" stroke-linejoin="round" stroke-miterlimit="10" fill="#5B9BD5"/></g><g><path d="M3171.6 4916.66 3220.61 4916.66 3220.61 5012.5 3171.6 5012.5ZM3563.62 4954.66 3612.62 4954.66 3612.62 5012.5 3563.62 5012.5ZM3955.63 4767.66 4004.63 4767.66 4004.63 5012.5 3955.63 5012.5ZM4348.64 4999.66 4397.64 4999.66 4397.64 5012.5 4348.64 5012.5ZM4740.66 4886.66 4789.66 4886.66 4789.66 5012.5 4740.66 5012.5ZM5132.67 4604.65 5181.67 4604.65 5181.67 5012.5 5132.67 5012.5Z" stroke="#000000" stroke-width="3.4375" stroke-linejoin="round" stroke-miterlimit="10" fill="#767171"/></g><g><path d="M3171.6 4895.66 3220.61 4895.66 3220.61 4916.66 3171.6 4916.66ZM3563.62 4939.66 3612.62 4939.66 3612.62 4954.66 3563.62 4954.66ZM3955.63 4609.65 4004.63 4609.65 4004.63 4767.66 3955.63 4767.66ZM4348.64 4971.66 4397.64 4971.66 4397.64 4999.66 4348.64 4999.66ZM4740.66 4849.66 4789.66 4849.66 4789.66 4886.66 4740.66 4886.66ZM5132.67 4419.65 5181.67 4419.65 5181.67 4604.65 5132.67 4604.65Z" stroke="#000000" stroke-width="3.4375" stroke-linejoin="round" stroke-miterlimit="10" fill="#5B9BD5"/></g><g><path d="M3220.61 4922.66 3269.61 4922.66 3269.61 5012.5 3220.61 5012.5ZM3612.62 4943.66 3661.62 4943.66 3661.62 5012.5 3612.62 5012.5ZM4004.63 4751.66 4053.63 4751.66 4053.63 5012.5 4004.63 5012.5ZM4397.64 5003.66 4446.65 5003.66 4446.65 5012.5 4397.64 5012.5ZM4789.66 4886.66 4838.66 4886.66 4838.66 5012.5 4789.66 5012.5ZM5181.67 4589.65 5230.67 4589.65 5230.67 5012.5 5181.67 5012.5Z" stroke="#000000" stroke-width="3.4375" stroke-linejoin="round" stroke-miterlimit="10" fill="#767171"/></g><g><path d="M3220.61 4900.66 3269.61 4900.66 3269.61 4922.66 3220.61 4922.66ZM3612.62 4928.66 3661.62 4928.66 3661.62 4943.66 3612.62 4943.66ZM4004.63 4600.65 4053.63 4600.65 4053.63 4751.66 4004.63 4751.66ZM4397.64 4986.66 4446.65 4986.66 4446.65 5003.66 4397.64 5003.66ZM4789.66 4845.66 4838.66 4845.66 4838.66 4886.66 4789.66 4886.66ZM5181.67 4407.64 5230.67 4407.64 5230.67 4589.65 5181.67 4589.65Z" stroke="#000000" stroke-width="3.4375" stroke-linejoin="round" stroke-miterlimit="10" fill="#5B9BD5"/></g><g><path d="M3269.61 4924.66 3318.61 4924.66 3318.61 5012.5 3269.61 5012.5ZM3661.62 4936.66 3710.62 4936.66 3710.62 5012.5 3661.62 5012.5ZM4053.63 4733.66 4102.63 4733.66 4102.63 5012.5 4053.63 5012.5ZM4446.65 5009.66 4495.65 5009.66 4495.65 5012.5 4446.65 5012.5ZM4838.66 4818.66 4887.66 4818.66 4887.66 5012.5 4838.66 5012.5ZM5230.67 4582.65 5280.5 4582.65 5280.5 5012.5 5230.67 5012.5Z" stroke="#000000" stroke-width="3.4375" stroke-linejoin="round" stroke-miterlimit="10" fill="#767171"/></g><g><path d="M3269.61 4903.66 3318.61 4903.66 3318.61 4924.66 3269.61 4924.66ZM3661.62 4921.66 3710.62 4921.66 3710.62 4936.66 3661.62 4936.66ZM4053.63 4578.65 4102.63 4578.65 4102.63 4733.66 4053.63 4733.66ZM4446.65 4993.66 4495.65 4993.66 4495.65 5009.66 4446.65 5009.66ZM4838.66 4768.66 4887.66 4768.66 4887.66 4818.66 4838.66 4818.66ZM5230.67 4403.64 5280.5 4403.64 5280.5 4582.65 5230.67 4582.65Z" stroke="#000000" stroke-width="3.4375" stroke-linejoin="round" stroke-miterlimit="10" fill="#5B9BD5"/></g><g><path d="M2975.5 5012.5 5280.5 5012.5" stroke="#D9D9D9" stroke-width="3.4375" stroke-linejoin="round" stroke-miterlimit="10" fill="none" fill-rule="evenodd"/></g><g><path d="M2975.5 5012.5 2975.5 5163.5M3367.61 5012.5 3367.61 5163.5M3759.62 5012.5 3759.62 5163.5M4152.64 5012.5 4152.64 5163.5M4544.65 5012.5 4544.65 5163.5M4936.66 5012.5 4936.66 5163.5M5280.5 5012.5 5280.5 5163.5" stroke="#D9D9D9" stroke-width="3.4375" stroke-linejoin="round" stroke-miterlimit="10" fill="none"/></g><g><path d="M2975.5 5163.5 2975.5 5244.5M3367.61 5163.5 3367.61 5244.5M3759.62 5163.5 3759.62 5244.5M4152.64 5163.5 4152.64 5244.5M4544.65 5163.5 4544.65 5244.5M4936.66 5163.5 4936.66 5244.5M5280.5 5163.5 5280.5 5244.5" stroke="#D9D9D9" stroke-width="3.4375" stroke-linejoin="round" stroke-miterlimit="10" fill="none"/></g><g><path d="M2999.5 4518.5 3048.6 4518.5 3097.6 4518.5 3146.6 4518.5 3195.6 4518.5 3244.61 4518.5 3293.61 4518.5 3342.61 4518.5 3391.61 4518.5 3440.61 4518.5 3489.61 4518.5 3538.62 4518.5 3588.62 4518.5 3637.62 4518.5 3686.62 4518.5 3735.62 4518.5 3784.62 4518.5 3833.63 4518.5 3882.63 4518.5 3931.63 4518.5 3980.63 4518.5 4029.63 4518.5 4078.63 4518.5 4127.64 4518.5 4176.64 4518.5 4225.64 4518.5 4274.64 4518.5 4323.64 4518.5 4372.64 4518.5 4421.65 4518.5 4470.65 4518.5 4519.65 4518.5 4568.65 4518.5 4617.65 4518.5 4666.65 4518.5 4715.65 4518.5 4765.66 4518.5 4814.66 4518.5 4863.66 4518.5 4912.66 4518.5 4961.66 4518.5 5010.66 4518.5 5059.67 4518.5 5108.67 4518.5 5157.67 4518.5 5206.67 4518.5 5255.5 4518.5" stroke="#C00000" stroke-width="6.875" stroke-linecap="round" stroke-linejoin="round" stroke-miterlimit="10" fill="none"/></g><g><path d="M4765.5 4677.5 4814.5 4711.5" stroke="#000000" stroke-width="0" stroke-linecap="round" stroke-linejoin="round" stroke-miterlimit="10" fill="none" fill-rule="evenodd"/></g><g><path d="M2999.5 4528.65 3048.6 4582.65 3097.6 4521.65 3146.6 4520.65 3195.6 4476.65 3244.61 4496.65 3293.61 4496.65M3391.61 4532.65 3440.61 4551.65 3489.61 4520.65 3538.62 4539.65 3588.62 4567.65 3637.62 4567.65 3686.62 4526.65M3784.62 4834.5 3833.63 4820.66 3882.63 4633.65 3931.63 4644.65 3980.63 4704.65 4029.63 4740.66 4078.63 4750.66M4176.64 4529.65 4225.64 4579.65 4274.64 4566.65 4323.64 4590.65 4372.64 4612.65 4421.65 4504.65 4470.65 4531.65M4568.65 4574.65 4617.65 4505.65 4666.65 4631.65 4715.65 4768.66 4765.66 4677.65M4814.66 4711.65 4863.66 4755.66M4961.66 4108.63 5010.66 4067.63 5059.67 4233.64 5108.67 4044.5 5157.67 4068.63 5206.67 4088.63 5255.5 4047.63" stroke="#000000" stroke-width="4.58333" stroke-linecap="round" stroke-linejoin="round" stroke-miterlimit="10" fill="none"/></g><g><path d="M3010.56 4528.66C3010.56 4534.73 3005.64 4539.66 2999.56 4539.66 2993.49 4539.66 2988.56 4534.73 2988.56 4528.66 2988.56 4522.58 2993.49 4517.66 2999.56 4517.66 3005.64 4517.66 3010.56 4522.58 3010.56 4528.66Z" stroke="#FFFFFF" stroke-width="4.58333" stroke-linejoin="round" stroke-miterlimit="10"/><path d="M3059.56 4582.66C3059.56 4588.73 3054.64 4593.66 3048.56 4593.66 3042.49 4593.66 3037.56 4588.73 3037.56 4582.66 3037.56 4576.58 3042.49 4571.66 3048.56 4571.66 3054.64 4571.66 3059.56 4576.58 3059.56 4582.66Z" stroke="#FFFFFF" stroke-width="4.58333" stroke-linejoin="round" stroke-miterlimit="10"/><path d="M3108.56 4521.66C3108.56 4527.73 3103.64 4532.66 3097.56 4532.66 3091.49 4532.66 3086.56 4527.73 3086.56 4521.66 3086.56 4515.58 3091.49 4510.66 3097.56 4510.66 3103.64 4510.66 3108.56 4515.58 3108.56 4521.66Z" stroke="#FFFFFF" stroke-width="4.58333" stroke-linejoin="round" stroke-miterlimit="10"/><path d="M3157.56 4520.66C3157.56 4526.73 3152.64 4531.66 3146.56 4531.66 3140.49 4531.66 3135.56 4526.73 3135.56 4520.66 3135.56 4514.58 3140.49 4509.66 3146.56 4509.66 3152.64 4509.66 3157.56 4514.58 3157.56 4520.66Z" stroke="#FFFFFF" stroke-width="4.58333" stroke-linejoin="round" stroke-miterlimit="10"/><path d="M3206.56 4476.66C3206.56 4482.73 3201.64 4487.66 3195.56 4487.66 3189.49 4487.66 3184.56 4482.73 3184.56 4476.66 3184.56 4470.58 3189.49 4465.66 3195.56 4465.66 3201.64 4465.66 3206.56 4470.58 3206.56 4476.66Z" stroke="#FFFFFF" stroke-width="4.58333" stroke-linejoin="round" stroke-miterlimit="10"/><path d="M3255.56 4496.66C3255.56 4502.73 3250.64 4507.66 3244.56 4507.66 3238.49 4507.66 3233.56 4502.73 3233.56 4496.66 3233.56 4490.58 3238.49 4485.66 3244.56 4485.66 3250.64 4485.66 3255.56 4490.58 3255.56 4496.66Z" stroke="#FFFFFF" stroke-width="4.58333" stroke-linejoin="round" stroke-miterlimit="10"/><path d="M3304.56 4496.66C3304.56 4502.73 3299.64 4507.66 3293.56 4507.66 3287.49 4507.66 3282.56 4502.73 3282.56 4496.66 3282.56 4490.58 3287.49 4485.66 3293.56 4485.66 3299.64 4485.66 3304.56 4490.58 3304.56 4496.66Z" stroke="#FFFFFF" stroke-width="4.58333" stroke-linejoin="round" stroke-miterlimit="10"/><path d="M3402.56 4532.66C3402.56 4538.73 3397.64 4543.66 3391.56 4543.66 3385.49 4543.66 3380.56 4538.73 3380.56 4532.66 3380.56 4526.58 3385.49 4521.66 3391.56 4521.66 3397.64 4521.66 3402.56 4526.58 3402.56 4532.66Z" stroke="#FFFFFF" stroke-width="4.58333" stroke-linejoin="round" stroke-miterlimit="10"/><path d="M3452.56 4551.66C3452.56 4557.73 3447.64 4562.66 3441.56 4562.66 3435.49 4562.66 3430.56 4557.73 3430.56 4551.66 3430.56 4545.58 3435.49 4540.66 3441.56 4540.66 3447.64 4540.66 3452.56 4545.58 3452.56 4551.66Z" stroke="#FFFFFF" stroke-width="4.58333" stroke-linejoin="round" stroke-miterlimit="10"/><path d="M3501.56 4520.66C3501.56 4526.73 3496.64 4531.66 3490.56 4531.66 3484.49 4531.66 3479.56 4526.73 3479.56 4520.66 3479.56 4514.58 3484.49 4509.66 3490.56 4509.66 3496.64 4509.66 3501.56 4514.58 3501.56 4520.66Z" stroke="#FFFFFF" stroke-width="4.58333" stroke-linejoin="round" stroke-miterlimit="10"/><path d="M3550.56 4539.66C3550.56 4545.73 3545.64 4550.66 3539.56 4550.66 3533.49 4550.66 3528.56 4545.73 3528.56 4539.66 3528.56 4533.58 3533.49 4528.66 3539.56 4528.66 3545.64 4528.66 3550.56 4533.58 3550.56 4539.66Z" stroke="#FFFFFF" stroke-width="4.58333" stroke-linejoin="round" stroke-miterlimit="10"/><path d="M3599.56 4567.66C3599.56 4573.73 3594.64 4578.66 3588.56 4578.66 3582.49 4578.66 3577.56 4573.73 3577.56 4567.66 3577.56 4561.58 3582.49 4556.66 3588.56 4556.66 3594.64 4556.66 3599.56 4561.58 3599.56 4567.66Z" stroke="#FFFFFF" stroke-width="4.58333" stroke-linejoin="round" stroke-miterlimit="10"/><path d="M3648.56 4567.66C3648.56 4573.73 3643.64 4578.66 3637.56 4578.66 3631.49 4578.66 3626.56 4573.73 3626.56 4567.66 3626.56 4561.58 3631.49 4556.66 3637.56 4556.66 3643.64 4556.66 3648.56 4561.58 3648.56 4567.66Z" stroke="#FFFFFF" stroke-width="4.58333" stroke-linejoin="round" stroke-miterlimit="10"/><path d="M3697.56 4526.66C3697.56 4532.73 3692.64 4537.66 3686.56 4537.66 3680.49 4537.66 3675.56 4532.73 3675.56 4526.66 3675.56 4520.58 3680.49 4515.66 3686.56 4515.66 3692.64 4515.66 3697.56 4520.58 3697.56 4526.66Z" stroke="#FFFFFF" stroke-width="4.58333" stroke-linejoin="round" stroke-miterlimit="10"/><path d="M3795.56 4834.66C3795.56 4840.73 3790.64 4845.66 3784.56 4845.66 3778.49 4845.66 3773.56 4840.73 3773.56 4834.66 3773.56 4828.58 3778.49 4823.66 3784.56 4823.66 3790.64 4823.66 3795.56 4828.58 3795.56 4834.66Z" stroke="#FFFFFF" stroke-width="4.58333" stroke-linejoin="round" stroke-miterlimit="10"/><path d="M3844.56 4821.66C3844.56 4827.73 3839.64 4832.66 3833.56 4832.66 3827.49 4832.66 3822.56 4827.73 3822.56 4821.66 3822.56 4815.58 3827.49 4810.66 3833.56 4810.66 3839.64 4810.66 3844.56 4815.58 3844.56 4821.66Z" stroke="#FFFFFF" stroke-width="4.58333" stroke-linejoin="round" stroke-miterlimit="10"/><path d="M3893.56 4633.66C3893.56 4639.73 3888.64 4644.66 3882.56 4644.66 3876.49 4644.66 3871.56 4639.73 3871.56 4633.66 3871.56 4627.58 3876.49 4622.66 3882.56 4622.66 3888.64 4622.66 3893.56 4627.58 3893.56 4633.66Z" stroke="#FFFFFF" stroke-width="4.58333" stroke-linejoin="round" stroke-miterlimit="10"/><path d="M3942.56 4644.66C3942.56 4650.73 3937.64 4655.66 3931.56 4655.66 3925.49 4655.66 3920.56 4650.73 3920.56 4644.66 3920.56 4638.58 3925.49 4633.66 3931.56 4633.66 3937.64 4633.66 3942.56 4638.58 3942.56 4644.66Z" stroke="#FFFFFF" stroke-width="4.58333" stroke-linejoin="round" stroke-miterlimit="10"/><path d="M3991.56 4704.66C3991.56 4710.73 3986.64 4715.66 3980.56 4715.66 3974.49 4715.66 3969.56 4710.73 3969.56 4704.66 3969.56 4698.58 3974.49 4693.66 3980.56 4693.66 3986.64 4693.66 3991.56 4698.58 3991.56 4704.66Z" stroke="#FFFFFF" stroke-width="4.58333" stroke-linejoin="round" stroke-miterlimit="10"/><path d="M4040.56 4740.66C4040.56 4746.73 4035.64 4751.66 4029.56 4751.66 4023.49 4751.66 4018.56 4746.73 4018.56 4740.66 4018.56 4734.58 4023.49 4729.66 4029.56 4729.66 4035.64 4729.66 4040.56 4734.58 4040.56 4740.66Z" stroke="#FFFFFF" stroke-width="4.58333" stroke-linejoin="round" stroke-miterlimit="10"/><path d="M4089.56 4750.66C4089.56 4756.73 4084.64 4761.66 4078.56 4761.66 4072.49 4761.66 4067.56 4756.73 4067.56 4750.66 4067.56 4744.58 4072.49 4739.66 4078.56 4739.66 4084.64 4739.66 4089.56 4744.58 4089.56 4750.66Z" stroke="#FFFFFF" stroke-width="4.58333" stroke-linejoin="round" stroke-miterlimit="10"/><path d="M4187.56 4530.66C4187.56 4536.73 4182.64 4541.66 4176.56 4541.66 4170.49 4541.66 4165.56 4536.73 4165.56 4530.66 4165.56 4524.58 4170.49 4519.66 4176.56 4519.66 4182.64 4519.66 4187.56 4524.58 4187.56 4530.66Z" stroke="#FFFFFF" stroke-width="4.58333" stroke-linejoin="round" stroke-miterlimit="10"/><path d="M4236.56 4579.66C4236.56 4585.73 4231.64 4590.66 4225.56 4590.66 4219.49 4590.66 4214.56 4585.73 4214.56 4579.66 4214.56 4573.58 4219.49 4568.66 4225.56 4568.66 4231.64 4568.66 4236.56 4573.58 4236.56 4579.66Z" stroke="#FFFFFF" stroke-width="4.58333" stroke-linejoin="round" stroke-miterlimit="10"/><path d="M4285.56 4566.66C4285.56 4572.73 4280.64 4577.66 4274.56 4577.66 4268.49 4577.66 4263.56 4572.73 4263.56 4566.66 4263.56 4560.58 4268.49 4555.66 4274.56 4555.66 4280.64 4555.66 4285.56 4560.58 4285.56 4566.66Z" stroke="#FFFFFF" stroke-width="4.58333" stroke-linejoin="round" stroke-miterlimit="10"/><path d="M4334.56 4590.66C4334.56 4596.73 4329.64 4601.66 4323.56 4601.66 4317.49 4601.66 4312.56 4596.73 4312.56 4590.66 4312.56 4584.58 4317.49 4579.66 4323.56 4579.66 4329.64 4579.66 4334.56 4584.58 4334.56 4590.66Z" stroke="#FFFFFF" stroke-width="4.58333" stroke-linejoin="round" stroke-miterlimit="10"/><path d="M4383.56 4612.66C4383.56 4618.73 4378.64 4623.66 4372.56 4623.66 4366.49 4623.66 4361.56 4618.73 4361.56 4612.66 4361.56 4606.58 4366.49 4601.66 4372.56 4601.66 4378.64 4601.66 4383.56 4606.58 4383.56 4612.66Z" stroke="#FFFFFF" stroke-width="4.58333" stroke-linejoin="round" stroke-miterlimit="10"/><path d="M4432.56 4504.66C4432.56 4510.73 4427.64 4515.66 4421.56 4515.66 4415.49 4515.66 4410.56 4510.73 4410.56 4504.66 4410.56 4498.58 4415.49 4493.66 4421.56 4493.66 4427.64 4493.66 4432.56 4498.58 4432.56 4504.66Z" stroke="#FFFFFF" stroke-width="4.58333" stroke-linejoin="round" stroke-miterlimit="10"/><path d="M4481.56 4531.66C4481.56 4537.73 4476.64 4542.66 4470.56 4542.66 4464.49 4542.66 4459.56 4537.73 4459.56 4531.66 4459.56 4525.58 4464.49 4520.66 4470.56 4520.66 4476.64 4520.66 4481.56 4525.58 4481.56 4531.66Z" stroke="#FFFFFF" stroke-width="4.58333" stroke-linejoin="round" stroke-miterlimit="10"/><path d="M4580.56 4574.66C4580.56 4580.73 4575.64 4585.66 4569.56 4585.66 4563.49 4585.66 4558.56 4580.73 4558.56 4574.66 4558.56 4568.58 4563.49 4563.66 4569.56 4563.66 4575.64 4563.66 4580.56 4568.58 4580.56 4574.66Z" stroke="#FFFFFF" stroke-width="4.58333" stroke-linejoin="round" stroke-miterlimit="10"/><path d="M4629.56 4505.66C4629.56 4511.73 4624.64 4516.66 4618.56 4516.66 4612.49 4516.66 4607.56 4511.73 4607.56 4505.66 4607.56 4499.58 4612.49 4494.66 4618.56 4494.66 4624.64 4494.66 4629.56 4499.58 4629.56 4505.66Z" stroke="#FFFFFF" stroke-width="4.58333" stroke-linejoin="round" stroke-miterlimit="10"/><path d="M4678.56 4631.66C4678.56 4637.73 4673.64 4642.66 4667.56 4642.66 4661.49 4642.66 4656.56 4637.73 4656.56 4631.66 4656.56 4625.58 4661.49 4620.66 4667.56 4620.66 4673.64 4620.66 4678.56 4625.58 4678.56 4631.66Z" stroke="#FFFFFF" stroke-width="4.58333" stroke-linejoin="round" stroke-miterlimit="10"/><path d="M4727.56 4768.66C4727.56 4774.73 4722.64 4779.66 4716.56 4779.66 4710.49 4779.66 4705.56 4774.73 4705.56 4768.66 4705.56 4762.58 4710.49 4757.66 4716.56 4757.66 4722.64 4757.66 4727.56 4762.58 4727.56 4768.66Z" stroke="#FFFFFF" stroke-width="4.58333" stroke-linejoin="round" stroke-miterlimit="10"/><path d="M4776.56 4677.66C4776.56 4683.73 4771.64 4688.66 4765.56 4688.66 4759.49 4688.66 4754.56 4683.73 4754.56 4677.66 4754.56 4671.58 4759.49 4666.66 4765.56 4666.66 4771.64 4666.66 4776.56 4671.58 4776.56 4677.66Z" stroke="#FFFFFF" stroke-width="4.58333" stroke-linejoin="round" stroke-miterlimit="10"/><path d="M4874.56 4755.66C4874.56 4761.73 4869.64 4766.66 4863.56 4766.66 4857.49 4766.66 4852.56 4761.73 4852.56 4755.66 4852.56 4749.58 4857.49 4744.66 4863.56 4744.66 4869.64 4744.66 4874.56 4749.58 4874.56 4755.66Z" stroke="#FFFFFF" stroke-width="4.58333" stroke-linejoin="round" stroke-miterlimit="10"/><path d="M4972.56 4108.66C4972.56 4114.73 4967.64 4119.66 4961.56 4119.66 4955.49 4119.66 4950.56 4114.73 4950.56 4108.66 4950.56 4102.58 4955.49 4097.66 4961.56 4097.66 4967.64 4097.66 4972.56 4102.58 4972.56 4108.66Z" stroke="#FFFFFF" stroke-width="4.58333" stroke-linejoin="round" stroke-miterlimit="10"/><path d="M5021.56 4067.66C5021.56 4073.73 5016.64 4078.66 5010.56 4078.66 5004.49 4078.66 4999.56 4073.73 4999.56 4067.66 4999.56 4061.58 5004.49 4056.66 5010.56 4056.66 5016.64 4056.66 5021.56 4061.58 5021.56 4067.66Z" stroke="#FFFFFF" stroke-width="4.58333" stroke-linejoin="round" stroke-miterlimit="10"/><path d="M5070.56 4234.66C5070.56 4240.73 5065.64 4245.66 5059.56 4245.66 5053.49 4245.66 5048.56 4240.73 5048.56 4234.66 5048.56 4228.58 5053.49 4223.66 5059.56 4223.66 5065.64 4223.66 5070.56 4228.58 5070.56 4234.66Z" stroke="#FFFFFF" stroke-width="4.58333" stroke-linejoin="round" stroke-miterlimit="10"/><path d="M5119.56 4044.66C5119.56 4050.73 5114.64 4055.66 5108.56 4055.66 5102.49 4055.66 5097.56 4050.73 5097.56 4044.66 5097.56 4038.58 5102.49 4033.66 5108.56 4033.66 5114.64 4033.66 5119.56 4038.58 5119.56 4044.66Z" stroke="#FFFFFF" stroke-width="4.58333" stroke-linejoin="round" stroke-miterlimit="10"/><path d="M5168.56 4069.66C5168.56 4075.73 5163.64 4080.66 5157.56 4080.66 5151.49 4080.66 5146.56 4075.73 5146.56 4069.66 5146.56 4063.58 5151.49 4058.66 5157.56 4058.66 5163.64 4058.66 5168.56 4063.58 5168.56 4069.66Z" stroke="#FFFFFF" stroke-width="4.58333" stroke-linejoin="round" stroke-miterlimit="10"/><path d="M5217.56 4088.66C5217.56 4094.73 5212.64 4099.66 5206.56 4099.66 5200.49 4099.66 5195.56 4094.73 5195.56 4088.66 5195.56 4082.58 5200.49 4077.66 5206.56 4077.66 5212.64 4077.66 5217.56 4082.58 5217.56 4088.66Z" stroke="#FFFFFF" stroke-width="4.58333" stroke-linejoin="round" stroke-miterlimit="10"/><path d="M5266.56 4047.66C5266.56 4053.73 5261.64 4058.66 5255.56 4058.66 5249.49 4058.66 5244.56 4053.73 5244.56 4047.66 5244.56 4041.58 5249.49 4036.66 5255.56 4036.66 5261.64 4036.66 5266.56 4041.58 5266.56 4047.66Z" stroke="#FFFFFF" stroke-width="4.58333" stroke-linejoin="round" stroke-miterlimit="10"/></g><g><path d="M4825 4711C4825 4717.07 4820.08 4722 4814 4722 4807.92 4722 4803 4717.07 4803 4711 4803 4704.92 4807.92 4700 4814 4700 4820.08 4700 4825 4704.92 4825 4711Z" stroke="#FFFFFF" stroke-width="4.58333" stroke-linejoin="round" stroke-miterlimit="10"/></g><g><text font-family="Times New Roman,Times New Roman_MSFontService,sans-serif" font-weight="400" font-size="46" transform="matrix(1 0 0 1 5319.12 5027)">-2500</text></g><g><text font-family="Times New Roman,Times New Roman_MSFontService,sans-serif" font-weight="400" font-size="46" transform="matrix(1 0 0 1 5319.12 4928)">-2000</text></g><g><text font-family="Times New Roman,Times New Roman_MSFontService,sans-serif" font-weight="400" font-size="46" transform="matrix(1 0 0 1 5319.12 4829)">-1500</text></g><g><text font-family="Times New Roman,Times New Roman_MSFontService,sans-serif" font-weight="400" font-size="46" transform="matrix(1 0 0 1 5319.12 4730)">-1000</text></g><g><text font-family="Times New Roman,Times New Roman_MSFontService,sans-serif" font-weight="400" font-size="46" transform="matrix(1 0 0 1 5319.12 4631)">-500</text></g><g><text font-family="Times New Roman,Times New Roman_MSFontService,sans-serif" font-weight="400" font-size="46" transform="matrix(1 0 0 1 5319.12 4532)">0</text></g><g><text font-family="Times New Roman,Times New Roman_MSFontService,sans-serif" font-weight="400" font-size="46" transform="matrix(1 0 0 1 5319.12 4433)">500</text></g><g><text font-family="Times New Roman,Times New Roman_MSFontService,sans-serif" font-weight="400" font-size="46" transform="matrix(1 0 0 1 5319.12 4335)">1000</text></g><g><text font-family="Times New Roman,Times New Roman_MSFontService,sans-serif" font-weight="400" font-size="46" transform="matrix(1 0 0 1 5319.12 4236)">1500</text></g><g><text font-family="Times New Roman,Times New Roman_MSFontService,sans-serif" font-weight="400" font-size="46" transform="matrix(1 0 0 1 5319.12 4137)">2000</text></g><g><text font-family="Times New Roman,Times New Roman_MSFontService,sans-serif" font-weight="400" font-size="46" transform="matrix(1 0 0 1 5319.12 4038)">2500</text></g><g><text font-family="Times New Roman,Times New Roman_MSFontService,sans-serif" font-weight="400" font-size="46" transform="matrix(1 0 0 1 2913.2 5027)">0</text></g><g><text font-family="Times New Roman,Times New Roman_MSFontService,sans-serif" font-weight="400" font-size="46" transform="matrix(1 0 0 1 2890.28 4928)">10</text></g><g><text font-family="Times New Roman,Times New Roman_MSFontService,sans-serif" font-weight="400" font-size="46" transform="matrix(1 0 0 1 2890.28 4829)">20</text></g><g><text font-family="Times New Roman,Times New Roman_MSFontService,sans-serif" font-weight="400" font-size="46" transform="matrix(1 0 0 1 2890.28 4730)">30</text></g><g><text font-family="Times New Roman,Times New Roman_MSFontService,sans-serif" font-weight="400" font-size="46" transform="matrix(1 0 0 1 2890.28 4631)">40</text></g><g><text font-family="Times New Roman,Times New Roman_MSFontService,sans-serif" font-weight="400" font-size="46" transform="matrix(1 0 0 1 2890.28 4532)">50</text></g><g><text font-family="Times New Roman,Times New Roman_MSFontService,sans-serif" font-weight="400" font-size="46" transform="matrix(1 0 0 1 2890.28 4433)">60</text></g><g><text font-family="Times New Roman,Times New Roman_MSFontService,sans-serif" font-weight="400" font-size="46" transform="matrix(1 0 0 1 2890.28 4335)">70</text></g><g><text font-family="Times New Roman,Times New Roman_MSFontService,sans-serif" font-weight="400" font-size="46" transform="matrix(1 0 0 1 2890.28 4236)">80</text></g><g><text font-family="Times New Roman,Times New Roman_MSFontService,sans-serif" font-weight="400" font-size="46" transform="matrix(1 0 0 1 2890.28 4137)">90</text></g><g><text font-family="Times New Roman,Times New Roman_MSFontService,sans-serif" font-weight="400" font-size="46" transform="matrix(1 0 0 1 2867.36 4038)">100</text></g><g><text font-family="Times New Roman,Times New Roman_MSFontService,sans-serif" font-weight="400" font-size="46" transform="matrix(6.12323e-17 -1 1 6.12323e-17 3015.25 5141)">Base</text></g><g><text font-family="Times New Roman,Times New Roman_MSFontService,sans-serif" font-weight="400" font-size="46" transform="matrix(6.12323e-17 -1 1 6.12323e-17 3064.29 5160)">ARO1</text></g><g><text font-family="Times New Roman,Times New Roman_MSFontService,sans-serif" font-weight="400" font-size="46" transform="matrix(6.12323e-17 -1 1 6.12323e-17 3113.33 5160)">ARO2</text></g><g><text font-family="Times New Roman,Times New Roman_MSFontService,sans-serif" font-weight="400" font-size="46" transform="matrix(6.12323e-17 -1 1 6.12323e-17 3162.38 5160)">ARO3</text></g><g><text font-family="Times New Roman,Times New Roman_MSFontService,sans-serif" font-weight="400" font-size="46" transform="matrix(6.12323e-17 -1 1 6.12323e-17 3211.42 5160)">ARO4</text></g><g><text font-family="Times New Roman,Times New Roman_MSFontService,sans-serif" font-weight="400" font-size="46" transform="matrix(6.12323e-17 -1 1 6.12323e-17 3260.46 5160)">ARO5</text></g><g><text font-family="Times New Roman,Times New Roman_MSFontService,sans-serif" font-weight="400" font-size="46" transform="matrix(6.12323e-17 -1 1 6.12323e-17 3309.5 5160)">ARO6</text></g><g><text font-family="Times New Roman,Times New Roman_MSFontService,sans-serif" font-weight="400" font-size="46" transform="matrix(6.12323e-17 -1 1 6.12323e-17 3407.59 5141)">Base</text></g><g><text font-family="Times New Roman,Times New Roman_MSFontService,sans-serif" font-weight="400" font-size="46" transform="matrix(6.12323e-17 -1 1 6.12323e-17 3456.63 5160)">ARO1</text></g><g><text font-family="Times New Roman,Times New Roman_MSFontService,sans-serif" font-weight="400" font-size="46" transform="matrix(6.12323e-17 -1 1 6.12323e-17 3505.68 5160)">ARO2</text></g><g><text font-family="Times New Roman,Times New Roman_MSFontService,sans-serif" font-weight="400" font-size="46" transform="matrix(6.12323e-17 -1 1 6.12323e-17 3554.72 5160)">ARO3</text></g><g><text font-family="Times New Roman,Times New Roman_MSFontService,sans-serif" font-weight="400" font-size="46" transform="matrix(6.12323e-17 -1 1 6.12323e-17 3603.76 5160)">ARO4</text></g><g><text font-family="Times New Roman,Times New Roman_MSFontService,sans-serif" font-weight="400" font-size="46" transform="matrix(6.12323e-17 -1 1 6.12323e-17 3652.81 5160)">ARO5</text></g><g><text font-family="Times New Roman,Times New Roman_MSFontService,sans-serif" font-weight="400" font-size="46" transform="matrix(6.12323e-17 -1 1 6.12323e-17 3701.85 5160)">ARO6</text></g><g><text font-family="Times New Roman,Times New Roman_MSFontService,sans-serif" font-weight="400" font-size="46" transform="matrix(6.12323e-17 -1 1 6.12323e-17 3799.94 5141)">Base</text></g><g><text font-family="Times New Roman,Times New Roman_MSFontService,sans-serif" font-weight="400" font-size="46" transform="matrix(6.12323e-17 -1 1 6.12323e-17 3848.98 5160)">ARO1</text></g><g><text font-family="Times New Roman,Times New Roman_MSFontService,sans-serif" font-weight="400" font-size="46" transform="matrix(6.12323e-17 -1 1 6.12323e-17 3898.02 5160)">ARO2</text></g><g><text font-family="Times New Roman,Times New Roman_MSFontService,sans-serif" font-weight="400" font-size="46" transform="matrix(6.12323e-17 -1 1 6.12323e-17 3947.07 5160)">ARO3</text></g><g><text font-family="Times New Roman,Times New Roman_MSFontService,sans-serif" font-weight="400" font-size="46" transform="matrix(6.12323e-17 -1 1 6.12323e-17 3996.11 5160)">ARO4</text></g><g><text font-family="Times New Roman,Times New Roman_MSFontService,sans-serif" font-weight="400" font-size="46" transform="matrix(6.12323e-17 -1 1 6.12323e-17 4045.15 5160)">ARO5</text></g><g><text font-family="Times New Roman,Times New Roman_MSFontService,sans-serif" font-weight="400" font-size="46" transform="matrix(6.12323e-17 -1 1 6.12323e-17 4094.2 5160)">ARO6</text></g><g><text font-family="Times New Roman,Times New Roman_MSFontService,sans-serif" font-weight="400" font-size="46" transform="matrix(6.12323e-17 -1 1 6.12323e-17 4192.28 5141)">Base</text></g><g><text font-family="Times New Roman,Times New Roman_MSFontService,sans-serif" font-weight="400" font-size="46" transform="matrix(6.12323e-17 -1 1 6.12323e-17 4241.32 5160)">ARO1</text></g><g><text font-family="Times New Roman,Times New Roman_MSFontService,sans-serif" font-weight="400" font-size="46" transform="matrix(6.12323e-17 -1 1 6.12323e-17 4290.37 5160)">ARO2</text></g><g><text font-family="Times New Roman,Times New Roman_MSFontService,sans-serif" font-weight="400" font-size="46" transform="matrix(6.12323e-17 -1 1 6.12323e-17 4339.41 5160)">ARO3</text></g><g><text font-family="Times New Roman,Times New Roman_MSFontService,sans-serif" font-weight="400" font-size="46" transform="matrix(6.12323e-17 -1 1 6.12323e-17 4388.45 5160)">ARO4</text></g><g><text font-family="Times New Roman,Times New Roman_MSFontService,sans-serif" font-weight="400" font-size="46" transform="matrix(6.12323e-17 -1 1 6.12323e-17 4437.5 5160)">ARO5</text></g><g><text font-family="Times New Roman,Times New Roman_MSFontService,sans-serif" font-weight="400" font-size="46" transform="matrix(6.12323e-17 -1 1 6.12323e-17 4486.54 5160)">ARO6</text></g><g><text font-family="Times New Roman,Times New Roman_MSFontService,sans-serif" font-weight="400" font-size="46" transform="matrix(6.12323e-17 -1 1 6.12323e-17 4584.63 5141)">Base</text></g><g><text font-family="Times New Roman,Times New Roman_MSFontService,sans-serif" font-weight="400" font-size="46" transform="matrix(6.12323e-17 -1 1 6.12323e-17 4633.67 5160)">ARO1</text></g><g><text font-family="Times New Roman,Times New Roman_MSFontService,sans-serif" font-weight="400" font-size="46" transform="matrix(6.12323e-17 -1 1 6.12323e-17 4682.71 5160)">ARO2</text></g><g><text font-family="Times New Roman,Times New Roman_MSFontService,sans-serif" font-weight="400" font-size="46" transform="matrix(6.12323e-17 -1 1 6.12323e-17 4731.76 5160)">ARO3</text></g><g><text font-family="Times New Roman,Times New Roman_MSFontService,sans-serif" font-weight="400" font-size="46" transform="matrix(6.12323e-17 -1 1 6.12323e-17 4780.8 5160)">ARO4</text></g><g><text font-family="Times New Roman,Times New Roman_MSFontService,sans-serif" font-weight="400" font-size="46" transform="matrix(6.12323e-17 -1 1 6.12323e-17 4829.84 5160)">ARO5</text></g><g><text font-family="Times New Roman,Times New Roman_MSFontService,sans-serif" font-weight="400" font-size="46" transform="matrix(6.12323e-17 -1 1 6.12323e-17 4878.89 5160)">ARO6</text></g><g><text font-family="Times New Roman,Times New Roman_MSFontService,sans-serif" font-weight="400" font-size="46" transform="matrix(6.12323e-17 -1 1 6.12323e-17 4976.97 5141)">Base</text></g><g><text font-family="Times New Roman,Times New Roman_MSFontService,sans-serif" font-weight="400" font-size="46" transform="matrix(6.12323e-17 -1 1 6.12323e-17 5026.01 5160)">ARO1</text></g><g><text font-family="Times New Roman,Times New Roman_MSFontService,sans-serif" font-weight="400" font-size="46" transform="matrix(6.12323e-17 -1 1 6.12323e-17 5075.06 5160)">ARO2</text></g><g><text font-family="Times New Roman,Times New Roman_MSFontService,sans-serif" font-weight="400" font-size="46" transform="matrix(6.12323e-17 -1 1 6.12323e-17 5124.1 5160)">ARO3</text></g><g><text font-family="Times New Roman,Times New Roman_MSFontService,sans-serif" font-weight="400" font-size="46" transform="matrix(6.12323e-17 -1 1 6.12323e-17 5173.14 5160)">ARO4</text></g><g><text font-family="Times New Roman,Times New Roman_MSFontService,sans-serif" font-weight="400" font-size="46" transform="matrix(6.12323e-17 -1 1 6.12323e-17 5222.19 5160)">ARO5</text></g><g><text font-family="Times New Roman,Times New Roman_MSFontService,sans-serif" font-weight="400" font-size="46" transform="matrix(6.12323e-17 -1 1 6.12323e-17 5271.23 5160)">ARO6</text></g><g><text font-family="Times New Roman,Times New Roman_MSFontService,sans-serif" font-weight="400" font-size="46" transform="matrix(1 0 0 1 3087.88 5231)">Region 1</text></g><g><text font-family="Times New Roman,Times New Roman_MSFontService,sans-serif" font-weight="400" font-size="46" transform="matrix(1 0 0 1 3480.23 5231)">Region 2</text></g><g><text font-family="Times New Roman,Times New Roman_MSFontService,sans-serif" font-weight="400" font-size="46" transform="matrix(1 0 0 1 3872.57 5231)">Region 3</text></g><g><text font-family="Times New Roman,Times New Roman_MSFontService,sans-serif" font-weight="400" font-size="46" transform="matrix(1 0 0 1 4264.92 5231)">Region 4</text></g><g><text font-family="Times New Roman,Times New Roman_MSFontService,sans-serif" font-weight="400" font-size="46" transform="matrix(1 0 0 1 4657.26 5231)">Region 5</text></g><g><text font-family="Times New Roman,Times New Roman_MSFontService,sans-serif" font-weight="400" font-size="46" transform="matrix(1 0 0 1 5025.09 5231)">Region 6</text></g><g><text font-family="Times New Roman,Times New Roman_MSFontService,sans-serif" font-weight="400" font-size="46" transform="matrix(6.12323e-17 -1 1 6.12323e-17 5504.6 4789)">Import</text></g><g><text font-family="Times New Roman,Times New Roman_MSFontService,sans-serif" font-weight="400" font-size="46" transform="matrix(6.12323e-17 -1 1 6.12323e-17 5504.6 4664)">-</text></g><g><text font-family="Times New Roman,Times New Roman_MSFontService,sans-serif" font-weight="400" font-size="46" transform="matrix(6.12323e-17 -1 1 6.12323e-17 5504.6 4648)">Export Saldo (in GWh)</text></g><g><text font-family="Times New Roman,Times New Roman_MSFontService,sans-serif" font-weight="400" font-size="46" transform="matrix(6.12323e-17 -1 1 6.12323e-17 2843.9 4811)">Transmission Capacity (in GW)</text></g><g><rect x="2953" y="4005" width="708" height="218" fill="#FFFFFF"/></g><g><rect x="3048.5" y="4030.5" width="88" height="23" stroke="#000000" stroke-width="3.4375" stroke-linejoin="round" stroke-miterlimit="10" fill="#5B9BD5"/></g><g><text font-family="Times New Roman,Times New Roman_MSFontService,sans-serif" font-weight="400" font-size="46" transform="matrix(1 0 0 1 3145.33 4056)">Cross Regional</text></g><g><rect x="3048.5" y="4102.5" width="88" height="22.9995" stroke="#000000" stroke-width="3.4375" stroke-linejoin="round" stroke-miterlimit="10" fill="#767171"/></g><g><text font-family="Times New Roman,Times New Roman_MSFontService,sans-serif" font-weight="400" font-size="46" transform="matrix(1 0 0 1 3145.33 4129)">Regional</text></g><g><path d="M3048.5 4186.5 3136.5 4186.5" stroke="#000000" stroke-width="4.58333" stroke-linecap="round" stroke-linejoin="round" stroke-miterlimit="10" fill="none" fill-rule="evenodd"/></g><g><path d="M3103 4186C3103 4192.07 3098.07 4197 3092 4197 3085.92 4197 3081 4192.07 3081 4186 3081 4179.92 3085.92 4175 3092 4175 3098.07 4175 3103 4179.92 3103 4186Z" stroke="#FFFFFF" stroke-width="4.58333" stroke-linejoin="round" stroke-miterlimit="10"/></g><g><text font-family="Times New Roman,Times New Roman_MSFontService,sans-serif" font-weight="400" font-size="46" transform="matrix(1 0 0 1 3145.33 4201)">Import-Export Balance</text></g></g></svg>