<svg width="2497" height="1073" xmlns="http://www.w3.org/2000/svg" xmlns:xlink="http://www.w3.org/1999/xlink" xml:space="preserve" overflow="hidden"><defs><clipPath id="clip0"><rect x="7785" y="12608" width="2497" height="1073"/></clipPath></defs><g clip-path="url(#clip0)" transform="translate(-7785 -12608)"><rect x="7785" y="12608" width="2497" height="1073" fill="#FFFFFF"/><g><path d="M7962.5 13329.9 10234.5 13329.9M7962.5 13234.9 10234.5 13234.9M7962.5 13139.9 10234.5 13139.9M7962.5 13045.9 10234.5 13045.9M7962.5 12950.9 10234.5 12950.9M7962.5 12855.9 10234.5 12855.9M7962.5 12760.9 10234.5 12760.9M7962.5 12666.5 10234.5 12666.5" stroke="#D9D9D9" stroke-width="3.4375" stroke-linejoin="round" stroke-miterlimit="10" fill="none"/></g><g><path d="M7962.5 13346.9 8010.76 13346.9 8010.76 13424.5 7962.5 13424.5ZM8010.76 13324.9 8058.76 13324.9 8058.76 13424.5 8010.76 13424.5ZM8058.76 13313.9 8106.77 13313.9 8106.77 13424.5 8058.76 13424.5ZM8106.77 13293.9 8155.77 13293.9 8155.77 13424.5 8106.77 13424.5ZM8155.77 13290.9 8203.77 13290.9 8203.77 13424.5 8155.77 13424.5ZM8203.77 13303.9 8251.77 13303.9 8251.77 13424.5 8203.77 13424.5ZM8251.77 13307.9 8300.77 13307.9 8300.77 13424.5 8251.77 13424.5ZM8348.77 13367.9 8397.78 13367.9 8397.78 13424.5 8348.77 13424.5ZM8397.78 13368.9 8445.78 13368.9 8445.78 13424.5 8397.78 13424.5ZM8445.78 13365.9 8493.78 13365.9 8493.78 13424.5 8445.78 13424.5ZM8493.78 13367.9 8542.78 13367.9 8542.78 13424.5 8493.78 13424.5ZM8542.78 13380.9 8590.78 13380.9 8590.78 13424.5 8542.78 13424.5ZM8590.78 13372.9 8638.78 13372.9 8638.78 13424.5 8590.78 13424.5ZM8638.78 13371.9 8687.79 13371.9 8687.79 13424.5 8638.78 13424.5ZM8735.79 13358.9 8783.79 13358.9 8783.79 13424.5 8735.79 13424.5ZM8783.79 13330.9 8832.79 13330.9 8832.79 13424.5 8783.79 13424.5ZM8832.79 13308.9 8880.79 13308.9 8880.79 13424.5 8832.79 13424.5ZM8880.79 13264.9 8928.79 13264.9 8928.79 13424.5 8880.79 13424.5ZM8928.79 13257.9 8977.79 13257.9 8977.79 13424.5 8928.79 13424.5ZM8977.79 13270.9 9025.8 13270.9 9025.8 13424.5 8977.79 13424.5ZM9025.8 13281.9 9073.8 13281.9 9073.8 13424.5 9025.8 13424.5ZM9122.8 13350.9 9170.8 13350.9 9170.8 13424.5 9122.8 13424.5ZM9170.8 13368.9 9219.8 13368.9 9219.8 13424.5 9170.8 13424.5ZM9219.8 13367.9 9267.8 13367.9 9267.8 13424.5 9219.8 13424.5ZM9267.8 13336.9 9315.81 13336.9 9315.81 13424.5 9267.8 13424.5ZM9315.81 13307.9 9364.81 13307.9 9364.81 13424.5 9315.81 13424.5ZM9364.81 13343.9 9412.81 13343.9 9412.81 13424.5 9364.81 13424.5ZM9412.81 13327.9 9460.81 13327.9 9460.81 13424.5 9412.81 13424.5ZM9509.81 13394.9 9557.81 13394.9 9557.81 13424.5 9509.81 13424.5ZM9557.81 13389.9 9605.82 13389.9 9605.82 13424.5 9557.81 13424.5ZM9605.82 13363.9 9654.82 13363.9 9654.82 13424.5 9605.82 13424.5ZM9654.82 13289.9 9702.82 13289.9 9702.82 13424.5 9654.82 13424.5ZM9702.82 13285.9 9750.82 13285.9 9750.82 13424.5 9702.82 13424.5ZM9750.82 13315.9 9799.82 13315.9 9799.82 13424.5 9750.82 13424.5ZM9799.82 13401.9 9847.82 13401.9 9847.82 13424.5 9799.82 13424.5ZM9895.82 13231.9 9944.83 13231.9 9944.83 13424.5 9895.82 13424.5ZM9944.83 13232.9 9992.83 13232.9 9992.83 13424.5 9944.83 13424.5ZM9992.83 13313.9 10040.8 13313.9 10040.8 13424.5 9992.83 13424.5ZM10040.8 13368.9 10089.8 13368.9 10089.8 13424.5 10040.8 13424.5ZM10089.8 13366.9 10137.8 13366.9 10137.8 13424.5 10089.8 13424.5ZM10137.8 13331.9 10186.8 13331.9 10186.8 13424.5 10137.8 13424.5ZM10186.8 13301.9 10234.5 13301.9 10234.5 13424.5 10186.8 13424.5Z" stroke="#000000" stroke-width="3.4375" stroke-linejoin="round" stroke-miterlimit="10" fill="#4472C4"/></g><g><path d="M7962.5 13311.9 8010.76 13311.9 8010.76 13346.9 7962.5 13346.9ZM8010.76 13310.9 8058.76 13310.9 8058.76 13324.9 8010.76 13324.9ZM8058.76 13308.9 8106.77 13308.9 8106.77 13313.9 8058.76 13313.9ZM8106.77 13275.9 8155.77 13275.9 8155.77 13293.9 8106.77 13293.9ZM8155.77 13273.9 8203.77 13273.9 8203.77 13290.9 8155.77 13290.9ZM8203.77 13276.9 8251.77 13276.9 8251.77 13303.9 8203.77 13303.9ZM8251.77 13278.9 8300.77 13278.9 8300.77 13307.9 8251.77 13307.9ZM8348.77 13338.9 8397.78 13338.9 8397.78 13367.9 8348.77 13367.9ZM8397.78 13327.9 8445.78 13327.9 8445.78 13368.9 8397.78 13368.9ZM8445.78 13329.9 8493.78 13329.9 8493.78 13365.9 8445.78 13365.9ZM8493.78 13325.9 8542.78 13325.9 8542.78 13367.9 8493.78 13367.9ZM8542.78 13329.9 8590.78 13329.9 8590.78 13380.9 8542.78 13380.9ZM8590.78 13305.9 8638.78 13305.9 8638.78 13372.9 8590.78 13372.9ZM8638.78 13295.9 8687.79 13295.9 8687.79 13371.9 8638.78 13371.9ZM8735.79 13215.9 8783.79 13215.9 8783.79 13358.9 8735.79 13358.9ZM8783.79 13241.9 8832.79 13241.9 8832.79 13330.9 8783.79 13330.9ZM8832.79 13227.9 8880.79 13227.9 8880.79 13308.9 8832.79 13308.9ZM8880.79 13193.9 8928.79 13193.9 8928.79 13264.9 8880.79 13264.9ZM8928.79 13167.9 8977.79 13167.9 8977.79 13257.9 8928.79 13257.9ZM8977.79 13155.9 9025.8 13155.9 9025.8 13270.9 8977.79 13270.9ZM9025.8 13161.9 9073.8 13161.9 9073.8 13281.9 9025.8 13281.9ZM9122.8 13349.9 9170.8 13349.9 9170.8 13350.9 9122.8 13350.9ZM9412.81 13326.9 9460.81 13326.9 9460.81 13327.9 9412.81 13327.9ZM9895.82 13146.9 9944.83 13146.9 9944.83 13231.9 9895.82 13231.9ZM9944.83 13148.9 9992.83 13148.9 9992.83 13232.9 9944.83 13232.9ZM9992.83 13204.9 10040.8 13204.9 10040.8 13313.9 9992.83 13313.9ZM10040.8 13215.9 10089.8 13215.9 10089.8 13368.9 10040.8 13368.9ZM10089.8 13197.9 10137.8 13197.9 10137.8 13366.9 10089.8 13366.9ZM10137.8 13204.9 10186.8 13204.9 10186.8 13331.9 10137.8 13331.9ZM10186.8 13195.9 10234.5 13195.9 10234.5 13301.9 10186.8 13301.9Z" stroke="#000000" stroke-width="3.4375" stroke-linejoin="round" stroke-miterlimit="10" fill="#9DC3E6"/></g><g><path d="M8251.77 13277.9 8300.77 13277.9 8300.77 13278.9 8251.77 13278.9ZM8638.78 13294.9 8687.79 13294.9 8687.79 13295.9 8638.78 13295.9ZM8735.79 13141.9 8783.79 13141.9 8783.79 13215.9 8735.79 13215.9ZM8783.79 13191.9 8832.79 13191.9 8832.79 13241.9 8783.79 13241.9ZM8832.79 13169.9 8880.79 13169.9 8880.79 13227.9 8832.79 13227.9ZM8880.79 13166.9 8928.79 13166.9 8928.79 13193.9 8880.79 13193.9ZM8928.79 13156.9 8977.79 13156.9 8977.79 13167.9 8928.79 13167.9ZM8977.79 13150.9 9025.8 13150.9 9025.8 13155.9 8977.79 13155.9ZM9025.8 13156.9 9073.8 13156.9 9073.8 13161.9 9025.8 13161.9ZM9122.8 13316.9 9170.8 13316.9 9170.8 13350.9 9122.8 13350.9ZM9170.8 13317.9 9219.8 13317.9 9219.8 13368.9 9170.8 13368.9ZM9219.8 13315.9 9267.8 13315.9 9267.8 13367.9 9219.8 13367.9ZM9267.8 13299.9 9315.81 13299.9 9315.81 13336.9 9267.8 13336.9ZM9315.81 13263.9 9364.81 13263.9 9364.81 13307.9 9315.81 13307.9ZM9364.81 13267.9 9412.81 13267.9 9412.81 13343.9 9364.81 13343.9ZM9412.81 13245.9 9460.81 13245.9 9460.81 13327.9 9412.81 13327.9ZM9509.81 13245.9 9557.81 13245.9 9557.81 13394.9 9509.81 13394.9ZM9557.81 13279.9 9605.82 13279.9 9605.82 13389.9 9557.81 13389.9ZM9605.82 13191.9 9654.82 13191.9 9654.82 13363.9 9605.82 13363.9ZM9654.82 13075.9 9702.82 13075.9 9702.82 13289.9 9654.82 13289.9ZM9702.82 13072.9 9750.82 13072.9 9750.82 13285.9 9702.82 13285.9ZM9750.82 13076.9 9799.82 13076.9 9799.82 13315.9 9750.82 13315.9ZM9799.82 13113.9 9847.82 13113.9 9847.82 13401.9 9799.82 13401.9ZM9895.82 13130.9 9944.83 13130.9 9944.83 13146.9 9895.82 13146.9ZM9944.83 13050.9 9992.83 13050.9 9992.83 13148.9 9944.83 13148.9ZM9992.83 13105.9 10040.8 13105.9 10040.8 13204.9 9992.83 13204.9ZM10040.8 13174.9 10089.8 13174.9 10089.8 13215.9 10040.8 13215.9ZM10089.8 13180.9 10137.8 13180.9 10137.8 13197.9 10089.8 13197.9ZM10137.8 13178.9 10186.8 13178.9 10186.8 13204.9 10137.8 13204.9ZM10186.8 13165.9 10234.5 13165.9 10234.5 13195.9 10186.8 13195.9Z" stroke="#000000" stroke-width="3.4375" stroke-linejoin="round" stroke-miterlimit="10" fill="#FFC000"/></g><g><path d="M7962.5 13289.9 8010.76 13289.9 8010.76 13311.9 7962.5 13311.9ZM8010.76 13287.9 8058.76 13287.9 8058.76 13310.9 8010.76 13310.9ZM8058.76 13289.9 8106.77 13289.9 8106.77 13308.9 8058.76 13308.9ZM8106.77 13262.9 8155.77 13262.9 8155.77 13275.9 8106.77 13275.9ZM8155.77 13261.9 8203.77 13261.9 8203.77 13273.9 8155.77 13273.9ZM8203.77 13266.9 8251.77 13266.9 8251.77 13276.9 8203.77 13276.9ZM8251.77 13269.9 8300.77 13269.9 8300.77 13278.9 8251.77 13278.9ZM8348.77 13329.9 8397.78 13329.9 8397.78 13338.9 8348.77 13338.9ZM8397.78 13316.9 8445.78 13316.9 8445.78 13327.9 8397.78 13327.9ZM8445.78 13316.9 8493.78 13316.9 8493.78 13329.9 8445.78 13329.9ZM8493.78 13311.9 8542.78 13311.9 8542.78 13325.9 8493.78 13325.9ZM8542.78 13317.9 8590.78 13317.9 8590.78 13329.9 8542.78 13329.9ZM8590.78 13295.9 8638.78 13295.9 8638.78 13305.9 8590.78 13305.9ZM8638.78 13288.9 8687.79 13288.9 8687.79 13295.9 8638.78 13295.9ZM8735.79 13109.9 8783.79 13109.9 8783.79 13141.9 8735.79 13141.9ZM8783.79 13167.9 8832.79 13167.9 8832.79 13191.9 8783.79 13191.9ZM8832.79 13138.9 8880.79 13138.9 8880.79 13169.9 8832.79 13169.9ZM8880.79 13157.9 8928.79 13157.9 8928.79 13166.9 8880.79 13166.9ZM8928.79 13151.9 8977.79 13151.9 8977.79 13156.9 8928.79 13156.9ZM8977.79 13146.9 9025.8 13146.9 9025.8 13150.9 8977.79 13150.9ZM9025.8 13150.9 9073.8 13150.9 9073.8 13156.9 9025.8 13156.9ZM9122.8 13306.9 9170.8 13306.9 9170.8 13316.9 9122.8 13316.9ZM9170.8 13296.9 9219.8 13296.9 9219.8 13317.9 9170.8 13317.9ZM9219.8 13292.9 9267.8 13292.9 9267.8 13315.9 9219.8 13315.9ZM9267.8 13286.9 9315.81 13286.9 9315.81 13299.9 9267.8 13299.9ZM9315.81 13255.9 9364.81 13255.9 9364.81 13263.9 9315.81 13263.9ZM9364.81 13253.9 9412.81 13253.9 9412.81 13267.9 9364.81 13267.9ZM9412.81 13227.9 9460.81 13227.9 9460.81 13245.9 9412.81 13245.9ZM9509.81 13197.9 9557.81 13197.9 9557.81 13245.9 9509.81 13245.9ZM9557.81 13243.9 9605.82 13243.9 9605.82 13279.9 9557.81 13279.9ZM9605.82 13143.9 9654.82 13143.9 9654.82 13191.9 9605.82 13191.9ZM9654.82 13016.9 9702.82 13016.9 9702.82 13075.9 9654.82 13075.9ZM9702.82 13014.9 9750.82 13014.9 9750.82 13072.9 9702.82 13072.9ZM9750.82 13012.9 9799.82 13012.9 9799.82 13076.9 9750.82 13076.9ZM9799.82 13035.9 9847.82 13035.9 9847.82 13113.9 9799.82 13113.9ZM9895.82 13127.9 9944.83 13127.9 9944.83 13130.9 9895.82 13130.9ZM9944.83 13033.9 9992.83 13033.9 9992.83 13050.9 9944.83 13050.9ZM9992.83 13094.9 10040.8 13094.9 10040.8 13105.9 9992.83 13105.9ZM10040.8 13167.9 10089.8 13167.9 10089.8 13174.9 10040.8 13174.9ZM10089.8 13173.9 10137.8 13173.9 10137.8 13180.9 10089.8 13180.9ZM10137.8 13171.9 10186.8 13171.9 10186.8 13178.9 10137.8 13178.9ZM10186.8 13161.9 10234.5 13161.9 10234.5 13165.9 10186.8 13165.9Z" stroke="#000000" stroke-width="3.4375" stroke-linejoin="round" stroke-miterlimit="10" fill="#C00000"/></g><g><path d="M8010.76 13281.9 8058.76 13281.9 8058.76 13287.9 8010.76 13287.9ZM8058.76 13279.9 8106.77 13279.9 8106.77 13289.9 8058.76 13289.9ZM8106.77 13216.9 8155.77 13216.9 8155.77 13262.9 8106.77 13262.9ZM8155.77 13210.9 8203.77 13210.9 8203.77 13261.9 8155.77 13261.9ZM8203.77 13195.9 8251.77 13195.9 8251.77 13266.9 8203.77 13266.9ZM8251.77 13194.9 8300.77 13194.9 8300.77 13269.9 8251.77 13269.9ZM8493.78 13310.9 8542.78 13310.9 8542.78 13311.9 8493.78 13311.9ZM8542.78 13307.9 8590.78 13307.9 8590.78 13317.9 8542.78 13317.9ZM8590.78 13292.9 8638.78 13292.9 8638.78 13295.9 8590.78 13295.9ZM8638.78 13267.9 8687.79 13267.9 8687.79 13288.9 8638.78 13288.9ZM8880.79 13037.9 8928.79 13037.9 8928.79 13157.9 8880.79 13157.9ZM8928.79 13011.9 8977.79 13011.9 8977.79 13151.9 8928.79 13151.9ZM8977.79 12984.9 9025.8 12984.9 9025.8 13146.9 8977.79 13146.9ZM9025.8 13003.9 9073.8 13003.9 9073.8 13150.9 9025.8 13150.9ZM9315.81 13254.9 9364.81 13254.9 9364.81 13255.9 9315.81 13255.9ZM9364.81 13252.9 9412.81 13252.9 9412.81 13253.9 9364.81 13253.9ZM9412.81 13226.9 9460.81 13226.9 9460.81 13227.9 9412.81 13227.9ZM9654.82 12970.9 9702.82 12970.9 9702.82 13016.9 9654.82 13016.9ZM9702.82 12920.9 9750.82 12920.9 9750.82 13014.9 9702.82 13014.9ZM9750.82 12913.9 9799.82 12913.9 9799.82 13012.9 9750.82 13012.9ZM9799.82 12929.9 9847.82 12929.9 9847.82 13035.9 9799.82 13035.9ZM9992.83 12991.9 10040.8 12991.9 10040.8 13094.9 9992.83 13094.9ZM10040.8 13088.9 10089.8 13088.9 10089.8 13167.9 10040.8 13167.9ZM10089.8 13070.9 10137.8 13070.9 10137.8 13173.9 10089.8 13173.9ZM10137.8 13065.9 10186.8 13065.9 10186.8 13171.9 10137.8 13171.9ZM10186.8 13068.9 10234.5 13068.9 10234.5 13161.9 10186.8 13161.9Z" stroke="#000000" stroke-width="3.4375" stroke-linejoin="round" stroke-miterlimit="10" fill="#7030A0"/></g><g><path d="M7962.5 13283.9 8010.76 13283.9 8010.76 13289.9 7962.5 13289.9ZM8010.76 13280.9 8058.76 13280.9 8058.76 13281.9 8010.76 13281.9ZM8058.76 13232.9 8106.77 13232.9 8106.77 13279.9 8058.76 13279.9ZM8106.77 13169.9 8155.77 13169.9 8155.77 13216.9 8106.77 13216.9ZM8155.77 13163.9 8203.77 13163.9 8203.77 13210.9 8155.77 13210.9ZM8203.77 13153.9 8251.77 13153.9 8251.77 13195.9 8203.77 13195.9ZM8251.77 13147.9 8300.77 13147.9 8300.77 13194.9 8251.77 13194.9ZM8348.77 13326.9 8397.78 13326.9 8397.78 13329.9 8348.77 13329.9ZM8397.78 13313.9 8445.78 13313.9 8445.78 13316.9 8397.78 13316.9ZM8445.78 13315.9 8493.78 13315.9 8493.78 13316.9 8445.78 13316.9ZM8493.78 13309.9 8542.78 13309.9 8542.78 13311.9 8493.78 13311.9ZM8542.78 13305.9 8590.78 13305.9 8590.78 13307.9 8542.78 13307.9ZM8590.78 13262.9 8638.78 13262.9 8638.78 13292.9 8590.78 13292.9ZM8638.78 13238.9 8687.79 13238.9 8687.79 13267.9 8638.78 13267.9ZM8735.79 13104.9 8783.79 13104.9 8783.79 13109.9 8735.79 13109.9ZM8783.79 13142.9 8832.79 13142.9 8832.79 13167.9 8783.79 13167.9ZM8832.79 13112.9 8880.79 13112.9 8880.79 13138.9 8832.79 13138.9ZM8880.79 12971.9 8928.79 12971.9 8928.79 13037.9 8880.79 13037.9ZM8928.79 12936.9 8977.79 12936.9 8977.79 13011.9 8928.79 13011.9ZM8977.79 12914.9 9025.8 12914.9 9025.8 12984.9 8977.79 12984.9ZM9025.8 12927.9 9073.8 12927.9 9073.8 13003.9 9025.8 13003.9ZM9122.8 13304.9 9170.8 13304.9 9170.8 13306.9 9122.8 13306.9ZM9170.8 13294.9 9219.8 13294.9 9219.8 13296.9 9170.8 13296.9ZM9219.8 13291.9 9267.8 13291.9 9267.8 13292.9 9219.8 13292.9ZM9267.8 13270.9 9315.81 13270.9 9315.81 13286.9 9267.8 13286.9ZM9315.81 13250.9 9364.81 13250.9 9364.81 13255.9 9315.81 13255.9ZM9364.81 13230.9 9412.81 13230.9 9412.81 13253.9 9364.81 13253.9ZM9412.81 13203.9 9460.81 13203.9 9460.81 13227.9 9412.81 13227.9ZM9509.81 13192.9 9557.81 13192.9 9557.81 13197.9 9509.81 13197.9ZM9557.81 13237.9 9605.82 13237.9 9605.82 13243.9 9557.81 13243.9ZM9605.82 13130.9 9654.82 13130.9 9654.82 13143.9 9605.82 13143.9ZM9654.82 12940.9 9702.82 12940.9 9702.82 12970.9 9654.82 12970.9ZM9702.82 12877.9 9750.82 12877.9 9750.82 12920.9 9702.82 12920.9ZM9750.82 12878.9 9799.82 12878.9 9799.82 12913.9 9750.82 12913.9ZM9799.82 12887.9 9847.82 12887.9 9847.82 12929.9 9799.82 12929.9ZM9895.82 13111.9 9944.83 13111.9 9944.83 13127.9 9895.82 13127.9ZM9944.83 13017.9 9992.83 13017.9 9992.83 13033.9 9944.83 13033.9ZM9992.83 12892.9 10040.8 12892.9 10040.8 12991.9 9992.83 12991.9ZM10040.8 12981.9 10089.8 12981.9 10089.8 13088.9 10040.8 13088.9ZM10089.8 12946.9 10137.8 12946.9 10137.8 13070.9 10089.8 13070.9ZM10137.8 12946.9 10186.8 12946.9 10186.8 13065.9 10137.8 13065.9ZM10186.8 12945.9 10234.5 12945.9 10234.5 13068.9 10186.8 13068.9Z" stroke="#000000" stroke-width="3.4375" stroke-linejoin="round" stroke-miterlimit="10" fill="#CC3300"/></g><g><path d="M7962.5 13258.9 8010.76 13258.9 8010.76 13283.9 7962.5 13283.9ZM8010.76 13250.9 8058.76 13250.9 8058.76 13280.9 8010.76 13280.9ZM8058.76 13225.9 8106.77 13225.9 8106.77 13232.9 8058.76 13232.9ZM8106.77 13161.9 8155.77 13161.9 8155.77 13169.9 8106.77 13169.9ZM8155.77 13150.9 8203.77 13150.9 8203.77 13163.9 8155.77 13163.9ZM8203.77 13132.9 8251.77 13132.9 8251.77 13153.9 8203.77 13153.9ZM8251.77 13133.9 8300.77 13133.9 8300.77 13147.9 8251.77 13147.9ZM8348.77 13307.9 8397.78 13307.9 8397.78 13326.9 8348.77 13326.9ZM8397.78 13271.9 8445.78 13271.9 8445.78 13313.9 8397.78 13313.9ZM8445.78 13266.9 8493.78 13266.9 8493.78 13315.9 8445.78 13315.9ZM8493.78 13267.9 8542.78 13267.9 8542.78 13309.9 8493.78 13309.9ZM8542.78 13275.9 8590.78 13275.9 8590.78 13305.9 8542.78 13305.9ZM8590.78 13259.9 8638.78 13259.9 8638.78 13262.9 8590.78 13262.9ZM8638.78 13198.9 8687.79 13198.9 8687.79 13238.9 8638.78 13238.9ZM8735.79 13050.9 8783.79 13050.9 8783.79 13104.9 8735.79 13104.9ZM8783.79 13024.9 8832.79 13024.9 8832.79 13142.9 8783.79 13142.9ZM8832.79 12955.9 8880.79 12955.9 8880.79 13112.9 8832.79 13112.9ZM8880.79 12849.9 8928.79 12849.9 8928.79 12971.9 8880.79 12971.9ZM8928.79 12791.9 8977.79 12791.9 8977.79 12936.9 8928.79 12936.9ZM8977.79 12779.9 9025.8 12779.9 9025.8 12914.9 8977.79 12914.9ZM9025.8 12805.9 9073.8 12805.9 9073.8 12927.9 9025.8 12927.9ZM9122.8 13281.9 9170.8 13281.9 9170.8 13304.9 9122.8 13304.9ZM9170.8 13284.9 9219.8 13284.9 9219.8 13294.9 9170.8 13294.9ZM9219.8 13275.9 9267.8 13275.9 9267.8 13291.9 9219.8 13291.9ZM9267.8 13258.9 9315.81 13258.9 9315.81 13270.9 9267.8 13270.9ZM9315.81 13244.9 9364.81 13244.9 9364.81 13250.9 9315.81 13250.9ZM9364.81 13214.9 9412.81 13214.9 9412.81 13230.9 9364.81 13230.9ZM9412.81 13191.9 9460.81 13191.9 9460.81 13203.9 9412.81 13203.9ZM9509.81 13151.9 9557.81 13151.9 9557.81 13192.9 9509.81 13192.9ZM9557.81 13213.9 9605.82 13213.9 9605.82 13237.9 9557.81 13237.9ZM9605.82 13092.9 9654.82 13092.9 9654.82 13130.9 9605.82 13130.9ZM9654.82 12913.9 9702.82 12913.9 9702.82 12940.9 9654.82 12940.9ZM9702.82 12858.9 9750.82 12858.9 9750.82 12877.9 9702.82 12877.9ZM9750.82 12843.9 9799.82 12843.9 9799.82 12878.9 9750.82 12878.9ZM9799.82 12866.9 9847.82 12866.9 9847.82 12887.9 9799.82 12887.9ZM9895.82 13058.9 9944.83 13058.9 9944.83 13111.9 9895.82 13111.9ZM9944.83 12928.9 9992.83 12928.9 9992.83 13017.9 9944.83 13017.9ZM9992.83 12847.9 10040.8 12847.9 10040.8 12892.9 9992.83 12892.9ZM10040.8 12928.9 10089.8 12928.9 10089.8 12981.9 10040.8 12981.9ZM10089.8 12899.9 10137.8 12899.9 10137.8 12946.9 10089.8 12946.9ZM10137.8 12887.9 10186.8 12887.9 10186.8 12946.9 10137.8 12946.9ZM10186.8 12898.9 10234.5 12898.9 10234.5 12945.9 10186.8 12945.9Z" stroke="#000000" stroke-width="3.4375" stroke-linejoin="round" stroke-miterlimit="10" fill="#7F6000"/></g><g><path d="M7962.5 13424.5 10234.5 13424.5" stroke="#D9D9D9" stroke-width="3.4375" stroke-linejoin="round" stroke-miterlimit="10" fill="none" fill-rule="evenodd"/></g><g><path d="M7962.5 13424.5 7962.5 13570.5M8300.77 13424.5 8300.77 13570.5M8687.79 13424.5 8687.79 13570.5M9073.8 13424.5 9073.8 13570.5M9460.81 13424.5 9460.81 13570.5M9847.82 13424.5 9847.82 13570.5M10234.5 13424.5 10234.5 13570.5" stroke="#D9D9D9" stroke-width="3.4375" stroke-linejoin="round" stroke-miterlimit="10" fill="none"/></g><g><path d="M7962.5 13570.5 7962.5 13644.5M8300.77 13570.5 8300.77 13644.5M8687.79 13570.5 8687.79 13644.5M9073.8 13570.5 9073.8 13644.5M9460.81 13570.5 9460.81 13644.5M9847.82 13570.5 9847.82 13644.5M10234.5 13570.5 10234.5 13644.5" stroke="#D9D9D9" stroke-width="3.4375" stroke-linejoin="round" stroke-miterlimit="10" fill="none"/></g><g><text font-family="Times New Roman,Times New Roman_MSFontService,sans-serif" font-weight="400" font-size="41" transform="matrix(1 0 0 1 7906.41 13438)">0</text></g><g><text font-family="Times New Roman,Times New Roman_MSFontService,sans-serif" font-weight="400" font-size="41" transform="matrix(1 0 0 1 7885.78 13343)">10</text></g><g><text font-family="Times New Roman,Times New Roman_MSFontService,sans-serif" font-weight="400" font-size="41" transform="matrix(1 0 0 1 7885.78 13248)">20</text></g><g><text font-family="Times New Roman,Times New Roman_MSFontService,sans-serif" font-weight="400" font-size="41" transform="matrix(1 0 0 1 7885.78 13153)">30</text></g><g><text font-family="Times New Roman,Times New Roman_MSFontService,sans-serif" font-weight="400" font-size="41" transform="matrix(1 0 0 1 7885.78 13059)">40</text></g><g><text font-family="Times New Roman,Times New Roman_MSFontService,sans-serif" font-weight="400" font-size="41" transform="matrix(1 0 0 1 7885.78 12964)">50</text></g><g><text font-family="Times New Roman,Times New Roman_MSFontService,sans-serif" font-weight="400" font-size="41" transform="matrix(1 0 0 1 7885.78 12869)">60</text></g><g><text font-family="Times New Roman,Times New Roman_MSFontService,sans-serif" font-weight="400" font-size="41" transform="matrix(1 0 0 1 7885.78 12774)">70</text></g><g><text font-family="Times New Roman,Times New Roman_MSFontService,sans-serif" font-weight="400" font-size="41" transform="matrix(1 0 0 1 7885.78 12679)">80</text></g><g><text font-family="Times New Roman,Times New Roman_MSFontService,sans-serif" font-weight="400" font-size="41" transform="matrix(6.12323e-17 -1 1 6.12323e-17 8000.46 13530)">Base</text></g><g><text font-family="Times New Roman,Times New Roman_MSFontService,sans-serif" font-weight="400" font-size="41" transform="matrix(6.12323e-17 -1 1 6.12323e-17 8048.82 13567)">ARO 1</text></g><g><text font-family="Times New Roman,Times New Roman_MSFontService,sans-serif" font-weight="400" font-size="41" transform="matrix(6.12323e-17 -1 1 6.12323e-17 8097.17 13567)">ARO 2</text></g><g><text font-family="Times New Roman,Times New Roman_MSFontService,sans-serif" font-weight="400" font-size="41" transform="matrix(6.12323e-17 -1 1 6.12323e-17 8145.52 13567)">ARO 3</text></g><g><text font-family="Times New Roman,Times New Roman_MSFontService,sans-serif" font-weight="400" font-size="41" transform="matrix(6.12323e-17 -1 1 6.12323e-17 8193.88 13567)">ARO 4</text></g><g><text font-family="Times New Roman,Times New Roman_MSFontService,sans-serif" font-weight="400" font-size="41" transform="matrix(6.12323e-17 -1 1 6.12323e-17 8242.23 13567)">ARO 5</text></g><g><text font-family="Times New Roman,Times New Roman_MSFontService,sans-serif" font-weight="400" font-size="41" transform="matrix(6.12323e-17 -1 1 6.12323e-17 8290.58 13567)">ARO 6</text></g><g><text font-family="Times New Roman,Times New Roman_MSFontService,sans-serif" font-weight="400" font-size="41" transform="matrix(6.12323e-17 -1 1 6.12323e-17 8387.29 13530)">Base</text></g><g><text font-family="Times New Roman,Times New Roman_MSFontService,sans-serif" font-weight="400" font-size="41" transform="matrix(6.12323e-17 -1 1 6.12323e-17 8435.64 13567)">ARO 1</text></g><g><text font-family="Times New Roman,Times New Roman_MSFontService,sans-serif" font-weight="400" font-size="41" transform="matrix(6.12323e-17 -1 1 6.12323e-17 8484 13567)">ARO 2</text></g><g><text font-family="Times New Roman,Times New Roman_MSFontService,sans-serif" font-weight="400" font-size="41" transform="matrix(6.12323e-17 -1 1 6.12323e-17 8532.35 13567)">ARO 3</text></g><g><text font-family="Times New Roman,Times New Roman_MSFontService,sans-serif" font-weight="400" font-size="41" transform="matrix(6.12323e-17 -1 1 6.12323e-17 8580.7 13567)">ARO 4</text></g><g><text font-family="Times New Roman,Times New Roman_MSFontService,sans-serif" font-weight="400" font-size="41" transform="matrix(6.12323e-17 -1 1 6.12323e-17 8629.06 13567)">ARO 5</text></g><g><text font-family="Times New Roman,Times New Roman_MSFontService,sans-serif" font-weight="400" font-size="41" transform="matrix(6.12323e-17 -1 1 6.12323e-17 8677.41 13567)">ARO 6</text></g><g><text font-family="Times New Roman,Times New Roman_MSFontService,sans-serif" font-weight="400" font-size="41" transform="matrix(6.12323e-17 -1 1 6.12323e-17 8774.12 13530)">Base</text></g><g><text font-family="Times New Roman,Times New Roman_MSFontService,sans-serif" font-weight="400" font-size="41" transform="matrix(6.12323e-17 -1 1 6.12323e-17 8822.47 13567)">ARO 1</text></g><g><text font-family="Times New Roman,Times New Roman_MSFontService,sans-serif" font-weight="400" font-size="41" transform="matrix(6.12323e-17 -1 1 6.12323e-17 8870.83 13567)">ARO 2</text></g><g><text font-family="Times New Roman,Times New Roman_MSFontService,sans-serif" font-weight="400" font-size="41" transform="matrix(6.12323e-17 -1 1 6.12323e-17 8919.18 13567)">ARO 3</text></g><g><text font-family="Times New Roman,Times New Roman_MSFontService,sans-serif" font-weight="400" font-size="41" transform="matrix(6.12323e-17 -1 1 6.12323e-17 8967.53 13567)">ARO 4</text></g><g><text font-family="Times New Roman,Times New Roman_MSFontService,sans-serif" font-weight="400" font-size="41" transform="matrix(6.12323e-17 -1 1 6.12323e-17 9015.88 13567)">ARO 5</text></g><g><text font-family="Times New Roman,Times New Roman_MSFontService,sans-serif" font-weight="400" font-size="41" transform="matrix(6.12323e-17 -1 1 6.12323e-17 9064.24 13567)">ARO 6</text></g><g><text font-family="Times New Roman,Times New Roman_MSFontService,sans-serif" font-weight="400" font-size="41" transform="matrix(6.12323e-17 -1 1 6.12323e-17 9160.95 13530)">Base</text></g><g><text font-family="Times New Roman,Times New Roman_MSFontService,sans-serif" font-weight="400" font-size="41" transform="matrix(6.12323e-17 -1 1 6.12323e-17 9209.3 13567)">ARO 1</text></g><g><text font-family="Times New Roman,Times New Roman_MSFontService,sans-serif" font-weight="400" font-size="41" transform="matrix(6.12323e-17 -1 1 6.12323e-17 9257.65 13567)">ARO 2</text></g><g><text font-family="Times New Roman,Times New Roman_MSFontService,sans-serif" font-weight="400" font-size="41" transform="matrix(6.12323e-17 -1 1 6.12323e-17 9306.01 13567)">ARO 3</text></g><g><text font-family="Times New Roman,Times New Roman_MSFontService,sans-serif" font-weight="400" font-size="41" transform="matrix(6.12323e-17 -1 1 6.12323e-17 9354.36 13567)">ARO 4</text></g><g><text font-family="Times New Roman,Times New Roman_MSFontService,sans-serif" font-weight="400" font-size="41" transform="matrix(6.12323e-17 -1 1 6.12323e-17 9402.71 13567)">ARO 5</text></g><g><text font-family="Times New Roman,Times New Roman_MSFontService,sans-serif" font-weight="400" font-size="41" transform="matrix(6.12323e-17 -1 1 6.12323e-17 9451.07 13567)">ARO 6</text></g><g><text font-family="Times New Roman,Times New Roman_MSFontService,sans-serif" font-weight="400" font-size="41" transform="matrix(6.12323e-17 -1 1 6.12323e-17 9547.77 13530)">Base</text></g><g><text font-family="Times New Roman,Times New Roman_MSFontService,sans-serif" font-weight="400" font-size="41" transform="matrix(6.12323e-17 -1 1 6.12323e-17 9596.13 13567)">ARO 1</text></g><g><text font-family="Times New Roman,Times New Roman_MSFontService,sans-serif" font-weight="400" font-size="41" transform="matrix(6.12323e-17 -1 1 6.12323e-17 9644.48 13567)">ARO 2</text></g><g><text font-family="Times New Roman,Times New Roman_MSFontService,sans-serif" font-weight="400" font-size="41" transform="matrix(6.12323e-17 -1 1 6.12323e-17 9692.83 13567)">ARO 3</text></g><g><text font-family="Times New Roman,Times New Roman_MSFontService,sans-serif" font-weight="400" font-size="41" transform="matrix(6.12323e-17 -1 1 6.12323e-17 9741.19 13567)">ARO 4</text></g><g><text font-family="Times New Roman,Times New Roman_MSFontService,sans-serif" font-weight="400" font-size="41" transform="matrix(6.12323e-17 -1 1 6.12323e-17 9789.54 13567)">ARO 5</text></g><g><text font-family="Times New Roman,Times New Roman_MSFontService,sans-serif" font-weight="400" font-size="41" transform="matrix(6.12323e-17 -1 1 6.12323e-17 9837.89 13567)">ARO 6</text></g><g><text font-family="Times New Roman,Times New Roman_MSFontService,sans-serif" font-weight="400" font-size="41" transform="matrix(6.12323e-17 -1 1 6.12323e-17 9934.6 13530)">Base</text></g><g><text font-family="Times New Roman,Times New Roman_MSFontService,sans-serif" font-weight="400" font-size="41" transform="matrix(6.12323e-17 -1 1 6.12323e-17 9982.95 13567)">ARO 1</text></g><g><text font-family="Times New Roman,Times New Roman_MSFontService,sans-serif" font-weight="400" font-size="41" transform="matrix(6.12323e-17 -1 1 6.12323e-17 10031.3 13567)">ARO 2</text></g><g><text font-family="Times New Roman,Times New Roman_MSFontService,sans-serif" font-weight="400" font-size="41" transform="matrix(6.12323e-17 -1 1 6.12323e-17 10079.7 13567)">ARO 3</text></g><g><text font-family="Times New Roman,Times New Roman_MSFontService,sans-serif" font-weight="400" font-size="41" transform="matrix(6.12323e-17 -1 1 6.12323e-17 10128 13567)">ARO 4</text></g><g><text font-family="Times New Roman,Times New Roman_MSFontService,sans-serif" font-weight="400" font-size="41" transform="matrix(6.12323e-17 -1 1 6.12323e-17 10176.4 13567)">ARO 5</text></g><g><text font-family="Times New Roman,Times New Roman_MSFontService,sans-serif" font-weight="400" font-size="41" transform="matrix(6.12323e-17 -1 1 6.12323e-17 10224.7 13567)">ARO 6</text></g><g><text font-family="Times New Roman,Times New Roman_MSFontService,sans-serif" font-weight="400" font-size="41" transform="matrix(1 0 0 1 8056.31 13632)">Region 1</text></g><g><text font-family="Times New Roman,Times New Roman_MSFontService,sans-serif" font-weight="400" font-size="41" transform="matrix(1 0 0 1 8418.96 13632)">Region 2</text></g><g><text font-family="Times New Roman,Times New Roman_MSFontService,sans-serif" font-weight="400" font-size="41" transform="matrix(1 0 0 1 8805.79 13632)">Region 3</text></g><g><text font-family="Times New Roman,Times New Roman_MSFontService,sans-serif" font-weight="400" font-size="41" transform="matrix(1 0 0 1 9192.61 13632)">Region 4</text></g><g><text font-family="Times New Roman,Times New Roman_MSFontService,sans-serif" font-weight="400" font-size="41" transform="matrix(1 0 0 1 9579.44 13632)">Region 5</text></g><g><text font-family="Times New Roman,Times New Roman_MSFontService,sans-serif" font-weight="400" font-size="41" transform="matrix(1 0 0 1 9966.27 13632)">Region 6</text></g><g><text font-family="Times New Roman,Times New Roman_MSFontService,sans-serif" font-weight="400" font-size="46" transform="matrix(6.12323e-17 -1 1 6.12323e-17 7862.32 13256)">Costs (in Billion EUR)</text></g><g><rect x="7963" y="12628" width="627" height="422" fill="#FFFFFF"/></g><g><rect x="8005.5" y="12647.5" width="21" height="21" stroke="#000000" stroke-width="3.4375" stroke-linejoin="round" stroke-miterlimit="10" fill="#4472C4"/></g><g><text font-family="Times New Roman,Times New Roman_MSFontService,sans-serif" font-weight="400" font-size="41" transform="matrix(1 0 0 1 8034.96 12671)">Wind Onshore</text></g><g><rect x="8005.5" y="12707.5" width="21" height="21" stroke="#000000" stroke-width="3.4375" stroke-linejoin="round" stroke-miterlimit="10" fill="#9DC3E6"/></g><g><text font-family="Times New Roman,Times New Roman_MSFontService,sans-serif" font-weight="400" font-size="41" transform="matrix(1 0 0 1 8034.96 12731)">Wind Offshore</text></g><g><rect x="8005.5" y="12768.5" width="21" height="20" stroke="#000000" stroke-width="3.4375" stroke-linejoin="round" stroke-miterlimit="10" fill="#FFC000"/></g><g><text font-family="Times New Roman,Times New Roman_MSFontService,sans-serif" font-weight="400" font-size="41" transform="matrix(1 0 0 1 8034.96 12791)">Solar PV</text></g><g><rect x="8005.5" y="12828.5" width="21" height="21" stroke="#000000" stroke-width="3.4375" stroke-linejoin="round" stroke-miterlimit="10" fill="#C00000"/></g><g><text font-family="Times New Roman,Times New Roman_MSFontService,sans-serif" font-weight="400" font-size="41" transform="matrix(1 0 0 1 8034.96 12852)">Battery Storage</text></g><g><rect x="8005.5" y="12888.5" width="21" height="21" stroke="#000000" stroke-width="3.4375" stroke-linejoin="round" stroke-miterlimit="10" fill="#7030A0"/></g><g><text font-family="Times New Roman,Times New Roman_MSFontService,sans-serif" font-weight="400" font-size="41" transform="matrix(1 0 0 1 8034.96 12912)">Hydrogen Storage</text></g><g><rect x="8005.5" y="12949.5" width="21" height="20" stroke="#000000" stroke-width="3.4375" stroke-linejoin="round" stroke-miterlimit="10" fill="#CC3300"/></g><g><text font-family="Times New Roman,Times New Roman_MSFontService,sans-serif" font-weight="400" font-size="41" transform="matrix(1 0 0 1 8034.96 12972)">Load Flexibility</text></g><g><rect x="8005.5" y="13009.5" width="21" height="20" stroke="#000000" stroke-width="3.4375" stroke-linejoin="round" stroke-miterlimit="10" fill="#7F6000"/></g><g><text font-family="Times New Roman,Times New Roman_MSFontService,sans-serif" font-weight="400" font-size="41" transform="matrix(1 0 0 1 8034.96 13033)">Biomass and Nuclear Operation</text></g></g></svg>