<svg width="2554" height="1320" xmlns="http://www.w3.org/2000/svg" xmlns:xlink="http://www.w3.org/1999/xlink" xml:space="preserve" overflow="hidden"><defs><clipPath id="clip0"><rect x="8555" y="3293" width="2554" height="1320"/></clipPath></defs><g clip-path="url(#clip0)" transform="translate(-8555 -3293)"><rect x="8555" y="3293" width="2554" height="1320" fill="#FFFFFF"/><g><path d="M8818.5 4213.64 10890.5 4213.64M8818.5 4069.63 10890.5 4069.63M8818.5 3926.63 10890.5 3926.63M8818.5 3783.62 10890.5 3783.62M8818.5 3640.62 10890.5 3640.62M8818.5 3497.61 10890.5 3497.61M8818.5 3354.5 10890.5 3354.5" stroke="#D9D9D9" stroke-width="3.4375" stroke-linejoin="round" stroke-miterlimit="10" fill="none"/></g><g><path d="M8818.5 4300.64 8862.79 4300.64 8862.79 4356.5 8818.5 4356.5ZM8862.79 4295.64 8906.79 4295.64 8906.79 4356.5 8862.79 4356.5ZM8906.79 4307.64 8950.79 4307.64 8950.79 4356.5 8906.79 4356.5ZM8950.79 4324.64 8994.79 4324.64 8994.79 4356.5 8950.79 4356.5ZM8994.79 4325.64 9038.8 4325.64 9038.8 4356.5 8994.79 4356.5ZM9038.8 4330.64 9082.8 4330.64 9082.8 4356.5 9038.8 4356.5ZM9082.8 4332.64 9126.8 4332.64 9126.8 4356.5 9082.8 4356.5ZM9171.8 4329.64 9215.8 4329.64 9215.8 4356.5 9171.8 4356.5ZM9215.8 4322.64 9259.8 4322.64 9259.8 4356.5 9215.8 4356.5ZM9259.8 4319.64 9303.81 4319.64 9303.81 4356.5 9259.8 4356.5ZM9303.81 4316.64 9347.81 4316.64 9347.81 4356.5 9303.81 4356.5ZM9347.81 4319.64 9391.81 4319.64 9391.81 4356.5 9347.81 4356.5ZM9391.81 4328.64 9435.81 4328.64 9435.81 4356.5 9391.81 4356.5ZM9435.81 4336.64 9479.81 4336.64 9479.81 4356.5 9435.81 4356.5ZM9523.81 4312.64 9567.81 4312.64 9567.81 4356.5 9523.81 4356.5ZM9567.81 4323.64 9611.82 4323.64 9611.82 4356.5 9567.81 4356.5ZM9611.82 4313.64 9655.82 4313.64 9655.82 4356.5 9611.82 4356.5ZM9655.82 4343.64 9699.82 4343.64 9699.82 4356.5 9655.82 4356.5ZM9699.82 4349.64 9744.82 4349.64 9744.82 4356.5 9699.82 4356.5ZM9744.82 4349.64 9788.82 4349.64 9788.82 4356.5 9744.82 4356.5ZM9788.82 4348.64 9832.82 4348.64 9832.82 4356.5 9788.82 4356.5ZM9876.82 4323.64 9920.83 4323.64 9920.83 4356.5 9876.82 4356.5ZM9920.83 4284.64 9964.83 4284.64 9964.83 4356.5 9920.83 4356.5ZM9964.83 4278.64 10008.8 4278.64 10008.8 4356.5 9964.83 4356.5ZM10008.8 4310.64 10052.8 4310.64 10052.8 4356.5 10008.8 4356.5ZM10052.8 4327.64 10096.8 4327.64 10096.8 4356.5 10052.8 4356.5ZM10096.8 4308.64 10140.8 4308.64 10140.8 4356.5 10096.8 4356.5ZM10140.8 4299.64 10184.8 4299.64 10184.8 4356.5 10140.8 4356.5ZM10228.8 4242.64 10273.8 4242.64 10273.8 4356.5 10228.8 4356.5ZM10273.8 4271.64 10317.8 4271.64 10317.8 4356.5 10273.8 4356.5ZM10317.8 4242.64 10361.8 4242.64 10361.8 4356.5 10317.8 4356.5ZM10361.8 4216.64 10405.8 4216.64 10405.8 4356.5 10361.8 4356.5ZM10405.8 4216.64 10449.8 4216.64 10449.8 4356.5 10405.8 4356.5ZM10449.8 4203.64 10493.8 4203.64 10493.8 4356.5 10449.8 4356.5ZM10493.8 4170.64 10537.8 4170.64 10537.8 4356.5 10493.8 4356.5ZM10581.8 4353.64 10625.8 4353.64 10625.8 4356.5 10581.8 4356.5ZM10625.8 4341.64 10669.8 4341.64 10669.8 4356.5 10625.8 4356.5ZM10669.8 4346.64 10713.9 4346.64 10713.9 4356.5 10669.8 4356.5ZM10713.9 4350.64 10757.9 4350.64 10757.9 4356.5 10713.9 4356.5ZM10757.9 4350.64 10802.9 4350.64 10802.9 4356.5 10757.9 4356.5ZM10802.9 4350.64 10846.9 4350.64 10846.9 4356.5 10802.9 4356.5ZM10846.9 4352.64 10890.5 4352.64 10890.5 4356.5 10846.9 4356.5Z" stroke="#000000" stroke-width="3.4375" stroke-linejoin="round" stroke-miterlimit="10" fill="#FF0000"/></g><g><path d="M8862.79 4258.64 8906.79 4258.64 8906.79 4295.64 8862.79 4295.64ZM8906.79 4245.64 8950.79 4245.64 8950.79 4307.64 8906.79 4307.64ZM8950.79 4007.63 8994.79 4007.63 8994.79 4324.64 8950.79 4324.64ZM8994.79 3977.63 9038.8 3977.63 9038.8 4325.64 8994.79 4325.64ZM9038.8 3843.63 9082.8 3843.63 9082.8 4330.64 9038.8 4330.64ZM9082.8 3817.63 9126.8 3817.63 9126.8 4332.64 9082.8 4332.64ZM9303.81 4313.64 9347.81 4313.64 9347.81 4316.64 9303.81 4316.64ZM9347.81 4245.64 9391.81 4245.64 9391.81 4319.64 9347.81 4319.64ZM9391.81 4303.64 9435.81 4303.64 9435.81 4328.64 9391.81 4328.64ZM9435.81 4173.64 9479.81 4173.64 9479.81 4336.64 9435.81 4336.64ZM9655.82 3907.63 9699.82 3907.63 9699.82 4343.64 9655.82 4343.64ZM9699.82 3843.63 9744.82 3843.63 9744.82 4349.64 9699.82 4349.64ZM9744.82 3765.62 9788.82 3765.62 9788.82 4349.64 9744.82 4349.64ZM9788.82 3821.63 9832.82 3821.63 9832.82 4348.64 9788.82 4348.64ZM10052.8 4326.64 10096.8 4326.64 10096.8 4327.64 10052.8 4327.64ZM10096.8 4307.64 10140.8 4307.64 10140.8 4308.64 10096.8 4308.64ZM10140.8 4295.64 10184.8 4295.64 10184.8 4299.64 10140.8 4299.64ZM10361.8 3924.63 10405.8 3924.63 10405.8 4216.64 10361.8 4216.64ZM10405.8 3625.62 10449.8 3625.62 10449.8 4216.64 10405.8 4216.64ZM10449.8 3579.62 10493.8 3579.62 10493.8 4203.64 10449.8 4203.64ZM10493.8 3503.62 10537.8 3503.62 10537.8 4170.64 10493.8 4170.64ZM10669.8 4120.64 10713.9 4120.64 10713.9 4346.64 10669.8 4346.64ZM10713.9 4172.64 10757.9 4172.64 10757.9 4350.64 10713.9 4350.64ZM10757.9 4117.64 10802.9 4117.64 10802.9 4350.64 10757.9 4350.64ZM10802.9 4113.64 10846.9 4113.64 10846.9 4350.64 10802.9 4350.64ZM10846.9 4144.64 10890.5 4144.64 10890.5 4352.64 10846.9 4352.64Z" stroke="#000000" stroke-width="3.4375" stroke-linejoin="round" stroke-miterlimit="10" fill="#7030A0"/></g><g><path d="M8818.5 4356.5 10890.5 4356.5" stroke="#D9D9D9" stroke-width="3.4375" stroke-linejoin="round" stroke-miterlimit="10" fill="none" fill-rule="evenodd"/></g><g><path d="M8818.5 4356.5 8818.5 4502.5M9171.8 4356.5 9171.8 4502.5M9523.81 4356.5 9523.81 4502.5M9876.82 4356.5 9876.82 4502.5M10228.8 4356.5 10228.8 4502.5M10581.8 4356.5 10581.8 4502.5M10890.5 4356.5 10890.5 4502.5" stroke="#D9D9D9" stroke-width="3.4375" stroke-linejoin="round" stroke-miterlimit="10" fill="none"/></g><g><path d="M8818.5 4502.5 8818.5 4576.5M9171.8 4502.5 9171.8 4576.5M9523.81 4502.5 9523.81 4576.5M9876.82 4502.5 9876.82 4576.5M10228.8 4502.5 10228.8 4576.5M10581.8 4502.5 10581.8 4576.5M10890.5 4502.5 10890.5 4576.5" stroke="#D9D9D9" stroke-width="3.4375" stroke-linejoin="round" stroke-miterlimit="10" fill="none"/></g><g><path d="M8840.79 4297.12 8856.79 4313.12 8840.79 4329.12 8824.79 4313.12Z"/><path d="M8884.79 4264.12 8900.79 4280.12 8884.79 4296.12 8868.79 4280.12Z"/><path d="M8928.79 4254.12 8944.79 4270.12 8928.79 4286.12 8912.79 4270.12Z"/><path d="M8972.79 4068.13 8988.79 4084.12 8972.79 4100.12 8956.79 4084.12Z"/><path d="M9016.79 4045.13 9032.79 4061.12 9016.79 4077.13 9000.79 4061.12Z"/><path d="M9060.79 3940.13 9076.79 3956.12 9060.79 3972.13 9044.79 3956.12Z"/><path d="M9104.79 3920.13 9120.79 3936.12 9104.79 3952.13 9088.79 3936.12Z"/><path d="M9192.79 4322.12 9208.79 4338.12 9192.79 4354.12 9176.79 4338.12Z"/><path d="M9236.79 4318.13 9252.79 4334.13 9236.79 4350.13 9220.79 4334.13Z"/><path d="M9281.79 4315.13 9297.79 4331.13 9281.79 4347.13 9265.79 4331.13Z"/><path d="M9325.79 4311.12 9341.79 4327.12 9325.79 4343.12 9309.79 4327.12Z"/><path d="M9369.79 4265.12 9385.79 4281.12 9369.79 4297.12 9353.79 4281.12Z"/><path d="M9413.79 4304.13 9429.79 4320.13 9413.79 4336.13 9397.79 4320.13Z"/><path d="M9457.79 4216.13 9473.79 4232.13 9457.79 4248.13 9441.79 4232.13Z"/><path d="M9545.79 4276.12 9561.79 4292.12 9545.79 4308.12 9529.79 4292.12Z"/><path d="M9589.79 4291.13 9605.79 4307.13 9589.79 4323.13 9573.79 4307.13Z"/><path d="M9633.79 4277.12 9649.79 4293.12 9633.79 4309.12 9617.79 4293.12Z"/><path d="M9677.79 3675.13 9693.79 3691.12 9677.79 3707.13 9661.79 3691.12Z"/><path d="M9721.79 3579.13 9737.79 3595.12 9721.79 3611.13 9705.79 3595.12Z"/><path d="M9765.79 3464.13 9781.79 3480.12 9765.79 3496.13 9749.79 3480.12Z"/><path d="M9810.79 3548.13 9826.79 3564.13 9810.79 3580.13 9794.79 3564.13Z"/><path d="M9898.79 4321.12 9914.79 4337.12 9898.79 4353.12 9882.79 4337.12Z"/><path d="M9942.79 4297.12 9958.79 4313.12 9942.79 4329.12 9926.79 4313.12Z"/><path d="M9986.79 4293.13 10002.8 4309.13 9986.79 4325.13 9970.79 4309.13Z"/><path d="M10030.8 4312.12 10046.8 4328.12 10030.8 4344.12 10014.8 4328.12Z"/><path d="M10074.8 4322.12 10090.8 4338.12 10074.8 4354.12 10058.8 4338.12Z"/><path d="M10118.8 4311.12 10134.8 4327.12 10118.8 4343.12 10102.8 4327.12Z"/><path d="M10162.8 4303.13 10178.8 4319.13 10162.8 4335.13 10146.8 4319.13Z"/><path d="M10250.8 4243.12 10266.8 4259.12 10250.8 4275.12 10234.8 4259.12Z"/><path d="M10294.8 4268.12 10310.8 4284.12 10294.8 4300.12 10278.8 4284.12Z"/><path d="M10338.8 4243.12 10354.8 4259.12 10338.8 4275.12 10322.8 4259.12Z"/><path d="M10383.8 3973.13 10399.8 3989.12 10383.8 4005.13 10367.8 3989.12Z"/><path d="M10427.8 3718.13 10443.8 3734.12 10427.8 3750.13 10411.8 3734.12Z"/><path d="M10471.8 3679.13 10487.8 3695.13 10471.8 3711.13 10455.8 3695.13Z"/><path d="M10515.8 3614.13 10531.8 3630.13 10515.8 3646.13 10499.8 3630.13Z"/><path d="M10603.8 4334.12 10619.8 4350.12 10603.8 4366.12 10587.8 4350.12Z"/><path d="M10647.8 4305.13 10663.8 4321.13 10647.8 4337.13 10631.8 4321.13Z"/><path d="M10691.8 3778.13 10707.8 3794.13 10691.8 3810.13 10675.8 3794.13Z"/><path d="M10735.8 3903.13 10751.8 3919.12 10735.8 3935.13 10719.8 3919.12Z"/><path d="M10779.8 3772.13 10795.8 3788.12 10779.8 3804.13 10763.8 3788.12Z"/><path d="M10823.8 3761.13 10839.8 3777.12 10823.8 3793.13 10807.8 3777.12Z"/><path d="M10867.8 3836.13 10883.8 3852.12 10867.8 3868.13 10851.8 3852.12Z"/></g><g><text font-family="Times New Roman,Times New Roman_MSFontService,sans-serif" font-weight="400" font-size="46" transform="matrix(1 0 0 1 10929.5 4371)">0.00</text></g><g><text font-family="Times New Roman,Times New Roman_MSFontService,sans-serif" font-weight="400" font-size="46" transform="matrix(1 0 0 1 10929.5 4228)">1.00</text></g><g><text font-family="Times New Roman,Times New Roman_MSFontService,sans-serif" font-weight="400" font-size="46" transform="matrix(1 0 0 1 10929.5 4084)">2.00</text></g><g><text font-family="Times New Roman,Times New Roman_MSFontService,sans-serif" font-weight="400" font-size="46" transform="matrix(1 0 0 1 10929.5 3941)">3.00</text></g><g><text font-family="Times New Roman,Times New Roman_MSFontService,sans-serif" font-weight="400" font-size="46" transform="matrix(1 0 0 1 10929.5 3798)">4.00</text></g><g><text font-family="Times New Roman,Times New Roman_MSFontService,sans-serif" font-weight="400" font-size="46" transform="matrix(1 0 0 1 10929.5 3655)">5.00</text></g><g><text font-family="Times New Roman,Times New Roman_MSFontService,sans-serif" font-weight="400" font-size="46" transform="matrix(1 0 0 1 10929.5 3512)">6.00</text></g><g><text font-family="Times New Roman,Times New Roman_MSFontService,sans-serif" font-weight="400" font-size="46" transform="matrix(1 0 0 1 10929.5 3369)">7.00</text></g><g><text font-family="Times New Roman,Times New Roman_MSFontService,sans-serif" font-weight="400" font-size="46" transform="matrix(1 0 0 1 8684.18 4371)">0.0%</text></g><g><text font-family="Times New Roman,Times New Roman_MSFontService,sans-serif" font-weight="400" font-size="46" transform="matrix(1 0 0 1 8684.18 4228)">0.2%</text></g><g><text font-family="Times New Roman,Times New Roman_MSFontService,sans-serif" font-weight="400" font-size="46" transform="matrix(1 0 0 1 8684.18 4084)">0.4%</text></g><g><text font-family="Times New Roman,Times New Roman_MSFontService,sans-serif" font-weight="400" font-size="46" transform="matrix(1 0 0 1 8684.18 3941)">0.6%</text></g><g><text font-family="Times New Roman,Times New Roman_MSFontService,sans-serif" font-weight="400" font-size="46" transform="matrix(1 0 0 1 8684.18 3798)">0.8%</text></g><g><text font-family="Times New Roman,Times New Roman_MSFontService,sans-serif" font-weight="400" font-size="46" transform="matrix(1 0 0 1 8684.18 3655)">1.0%</text></g><g><text font-family="Times New Roman,Times New Roman_MSFontService,sans-serif" font-weight="400" font-size="46" transform="matrix(1 0 0 1 8684.18 3512)">1.2%</text></g><g><text font-family="Times New Roman,Times New Roman_MSFontService,sans-serif" font-weight="400" font-size="46" transform="matrix(1 0 0 1 8684.18 3369)">1.4%</text></g><g><text font-family="Times New Roman,Times New Roman_MSFontService,sans-serif" font-weight="400" font-size="41" transform="matrix(6.12323e-17 -1 1 6.12323e-17 8854.85 4461)">Base</text></g><g><text font-family="Times New Roman,Times New Roman_MSFontService,sans-serif" font-weight="400" font-size="41" transform="matrix(6.12323e-17 -1 1 6.12323e-17 8898.94 4499)">ARO 1</text></g><g><text font-family="Times New Roman,Times New Roman_MSFontService,sans-serif" font-weight="400" font-size="41" transform="matrix(6.12323e-17 -1 1 6.12323e-17 8943.02 4499)">ARO 2</text></g><g><text font-family="Times New Roman,Times New Roman_MSFontService,sans-serif" font-weight="400" font-size="41" transform="matrix(6.12323e-17 -1 1 6.12323e-17 8987.1 4499)">ARO 3</text></g><g><text font-family="Times New Roman,Times New Roman_MSFontService,sans-serif" font-weight="400" font-size="41" transform="matrix(6.12323e-17 -1 1 6.12323e-17 9031.18 4499)">ARO 4</text></g><g><text font-family="Times New Roman,Times New Roman_MSFontService,sans-serif" font-weight="400" font-size="41" transform="matrix(6.12323e-17 -1 1 6.12323e-17 9075.26 4499)">ARO 5</text></g><g><text font-family="Times New Roman,Times New Roman_MSFontService,sans-serif" font-weight="400" font-size="41" transform="matrix(6.12323e-17 -1 1 6.12323e-17 9119.35 4499)">ARO 6</text></g><g><text font-family="Times New Roman,Times New Roman_MSFontService,sans-serif" font-weight="400" font-size="41" transform="matrix(6.12323e-17 -1 1 6.12323e-17 9207.51 4461)">Base</text></g><g><text font-family="Times New Roman,Times New Roman_MSFontService,sans-serif" font-weight="400" font-size="41" transform="matrix(6.12323e-17 -1 1 6.12323e-17 9251.59 4499)">ARO 1</text></g><g><text font-family="Times New Roman,Times New Roman_MSFontService,sans-serif" font-weight="400" font-size="41" transform="matrix(6.12323e-17 -1 1 6.12323e-17 9295.68 4499)">ARO 2</text></g><g><text font-family="Times New Roman,Times New Roman_MSFontService,sans-serif" font-weight="400" font-size="41" transform="matrix(6.12323e-17 -1 1 6.12323e-17 9339.76 4499)">ARO 3</text></g><g><text font-family="Times New Roman,Times New Roman_MSFontService,sans-serif" font-weight="400" font-size="41" transform="matrix(6.12323e-17 -1 1 6.12323e-17 9383.84 4499)">ARO 4</text></g><g><text font-family="Times New Roman,Times New Roman_MSFontService,sans-serif" font-weight="400" font-size="41" transform="matrix(6.12323e-17 -1 1 6.12323e-17 9427.92 4499)">ARO 5</text></g><g><text font-family="Times New Roman,Times New Roman_MSFontService,sans-serif" font-weight="400" font-size="41" transform="matrix(6.12323e-17 -1 1 6.12323e-17 9472.01 4499)">ARO 6</text></g><g><text font-family="Times New Roman,Times New Roman_MSFontService,sans-serif" font-weight="400" font-size="41" transform="matrix(6.12323e-17 -1 1 6.12323e-17 9560.17 4461)">Base</text></g><g><text font-family="Times New Roman,Times New Roman_MSFontService,sans-serif" font-weight="400" font-size="41" transform="matrix(6.12323e-17 -1 1 6.12323e-17 9604.25 4499)">ARO 1</text></g><g><text font-family="Times New Roman,Times New Roman_MSFontService,sans-serif" font-weight="400" font-size="41" transform="matrix(6.12323e-17 -1 1 6.12323e-17 9648.34 4499)">ARO 2</text></g><g><text font-family="Times New Roman,Times New Roman_MSFontService,sans-serif" font-weight="400" font-size="41" transform="matrix(6.12323e-17 -1 1 6.12323e-17 9692.42 4499)">ARO 3</text></g><g><text font-family="Times New Roman,Times New Roman_MSFontService,sans-serif" font-weight="400" font-size="41" transform="matrix(6.12323e-17 -1 1 6.12323e-17 9736.5 4499)">ARO 4</text></g><g><text font-family="Times New Roman,Times New Roman_MSFontService,sans-serif" font-weight="400" font-size="41" transform="matrix(6.12323e-17 -1 1 6.12323e-17 9780.58 4499)">ARO 5</text></g><g><text font-family="Times New Roman,Times New Roman_MSFontService,sans-serif" font-weight="400" font-size="41" transform="matrix(6.12323e-17 -1 1 6.12323e-17 9824.67 4499)">ARO 6</text></g><g><text font-family="Times New Roman,Times New Roman_MSFontService,sans-serif" font-weight="400" font-size="41" transform="matrix(6.12323e-17 -1 1 6.12323e-17 9912.83 4461)">Base</text></g><g><text font-family="Times New Roman,Times New Roman_MSFontService,sans-serif" font-weight="400" font-size="41" transform="matrix(6.12323e-17 -1 1 6.12323e-17 9956.91 4499)">ARO 1</text></g><g><text font-family="Times New Roman,Times New Roman_MSFontService,sans-serif" font-weight="400" font-size="41" transform="matrix(6.12323e-17 -1 1 6.12323e-17 10001 4499)">ARO 2</text></g><g><text font-family="Times New Roman,Times New Roman_MSFontService,sans-serif" font-weight="400" font-size="41" transform="matrix(6.12323e-17 -1 1 6.12323e-17 10045.1 4499)">ARO 3</text></g><g><text font-family="Times New Roman,Times New Roman_MSFontService,sans-serif" font-weight="400" font-size="41" transform="matrix(6.12323e-17 -1 1 6.12323e-17 10089.2 4499)">ARO 4</text></g><g><text font-family="Times New Roman,Times New Roman_MSFontService,sans-serif" font-weight="400" font-size="41" transform="matrix(6.12323e-17 -1 1 6.12323e-17 10133.2 4499)">ARO 5</text></g><g><text font-family="Times New Roman,Times New Roman_MSFontService,sans-serif" font-weight="400" font-size="41" transform="matrix(6.12323e-17 -1 1 6.12323e-17 10177.3 4499)">ARO 6</text></g><g><text font-family="Times New Roman,Times New Roman_MSFontService,sans-serif" font-weight="400" font-size="41" transform="matrix(6.12323e-17 -1 1 6.12323e-17 10265.5 4461)">Base</text></g><g><text font-family="Times New Roman,Times New Roman_MSFontService,sans-serif" font-weight="400" font-size="41" transform="matrix(6.12323e-17 -1 1 6.12323e-17 10309.6 4499)">ARO 1</text></g><g><text font-family="Times New Roman,Times New Roman_MSFontService,sans-serif" font-weight="400" font-size="41" transform="matrix(6.12323e-17 -1 1 6.12323e-17 10353.7 4499)">ARO 2</text></g><g><text font-family="Times New Roman,Times New Roman_MSFontService,sans-serif" font-weight="400" font-size="41" transform="matrix(6.12323e-17 -1 1 6.12323e-17 10397.7 4499)">ARO 3</text></g><g><text font-family="Times New Roman,Times New Roman_MSFontService,sans-serif" font-weight="400" font-size="41" transform="matrix(6.12323e-17 -1 1 6.12323e-17 10441.8 4499)">ARO 4</text></g><g><text font-family="Times New Roman,Times New Roman_MSFontService,sans-serif" font-weight="400" font-size="41" transform="matrix(6.12323e-17 -1 1 6.12323e-17 10485.9 4499)">ARO 5</text></g><g><text font-family="Times New Roman,Times New Roman_MSFontService,sans-serif" font-weight="400" font-size="41" transform="matrix(6.12323e-17 -1 1 6.12323e-17 10530 4499)">ARO 6</text></g><g><text font-family="Times New Roman,Times New Roman_MSFontService,sans-serif" font-weight="400" font-size="41" transform="matrix(6.12323e-17 -1 1 6.12323e-17 10618.1 4461)">Base</text></g><g><text font-family="Times New Roman,Times New Roman_MSFontService,sans-serif" font-weight="400" font-size="41" transform="matrix(6.12323e-17 -1 1 6.12323e-17 10662.2 4499)">ARO 1</text></g><g><text font-family="Times New Roman,Times New Roman_MSFontService,sans-serif" font-weight="400" font-size="41" transform="matrix(6.12323e-17 -1 1 6.12323e-17 10706.3 4499)">ARO 2</text></g><g><text font-family="Times New Roman,Times New Roman_MSFontService,sans-serif" font-weight="400" font-size="41" transform="matrix(6.12323e-17 -1 1 6.12323e-17 10750.4 4499)">ARO 3</text></g><g><text font-family="Times New Roman,Times New Roman_MSFontService,sans-serif" font-weight="400" font-size="41" transform="matrix(6.12323e-17 -1 1 6.12323e-17 10794.5 4499)">ARO 4</text></g><g><text font-family="Times New Roman,Times New Roman_MSFontService,sans-serif" font-weight="400" font-size="41" transform="matrix(6.12323e-17 -1 1 6.12323e-17 10838.6 4499)">ARO 5</text></g><g><text font-family="Times New Roman,Times New Roman_MSFontService,sans-serif" font-weight="400" font-size="41" transform="matrix(6.12323e-17 -1 1 6.12323e-17 10882.6 4499)">ARO 6</text></g><g><text font-family="Times New Roman,Times New Roman_MSFontService,sans-serif" font-weight="400" font-size="41" transform="matrix(1 0 0 1 8919.93 4564)">Region 1</text></g><g><text font-family="Times New Roman,Times New Roman_MSFontService,sans-serif" font-weight="400" font-size="41" transform="matrix(1 0 0 1 9272.58 4564)">Region 2</text></g><g><text font-family="Times New Roman,Times New Roman_MSFontService,sans-serif" font-weight="400" font-size="41" transform="matrix(1 0 0 1 9625.24 4564)">Region 3</text></g><g><text font-family="Times New Roman,Times New Roman_MSFontService,sans-serif" font-weight="400" font-size="41" transform="matrix(1 0 0 1 9977.9 4564)">Region 4</text></g><g><text font-family="Times New Roman,Times New Roman_MSFontService,sans-serif" font-weight="400" font-size="41" transform="matrix(1 0 0 1 10330.6 4564)">Region 5</text></g><g><text font-family="Times New Roman,Times New Roman_MSFontService,sans-serif" font-weight="400" font-size="41" transform="matrix(1 0 0 1 10661.2 4564)">Region 6</text></g><g><text font-family="Times New Roman,Times New Roman_MSFontService,sans-serif" font-weight="400" font-size="46" transform="matrix(6.12323e-17 -1 1 6.12323e-17 11075 4257)">Total Storage Capacity (inTWh)</text></g><g><text font-family="Times New Roman,Times New Roman_MSFontService,sans-serif" font-weight="400" font-size="46" transform="matrix(6.12323e-17 -1 1 6.12323e-17 8638.81 4409)">Storage Capacity in % of Regional Energy Demand </text></g><g><rect x="8804" y="3317" width="562" height="236" fill="#FFFFFF"/></g><g><rect x="8858.5" y="3344.5" width="23" height="23" stroke="#000000" stroke-width="3.4375" stroke-linejoin="round" stroke-miterlimit="10" fill="#7030A0"/></g><g><text font-family="Times New Roman,Times New Roman_MSFontService,sans-serif" font-weight="400" font-size="46" transform="matrix(1 0 0 1 8891.23 3371)">Hydrogen Ratio</text></g><g><rect x="8858.5" y="3423.5" width="23" height="23" stroke="#000000" stroke-width="3.4375" stroke-linejoin="round" stroke-miterlimit="10" fill="#FF0000"/></g><g><text font-family="Times New Roman,Times New Roman_MSFontService,sans-serif" font-weight="400" font-size="46" transform="matrix(1 0 0 1 8891.23 3450)">Battery Ratio</text></g><g><path d="M8870 3501 8883 3514 8870 3527 8857 3514Z"/></g><g><text font-family="Times New Roman,Times New Roman_MSFontService,sans-serif" font-weight="400" font-size="46" transform="matrix(1 0 0 1 8891.23 3528)">Total Storage Capacity</text></g></g></svg>