<svg width="2287" height="1143" xmlns="http://www.w3.org/2000/svg" xmlns:xlink="http://www.w3.org/1999/xlink" xml:space="preserve" overflow="hidden"><defs><clipPath id="clip0"><rect x="8304" y="2294" width="2287" height="1143"/></clipPath><clipPath id="clip1"><rect x="8303" y="2294" width="2287" height="1143"/></clipPath><clipPath id="clip2"><rect x="8303" y="2294" width="2287" height="1143"/></clipPath></defs><g clip-path="url(#clip0)" transform="translate(-8304 -2294)"><rect x="8304" y="2294" width="2287" height="1143" fill="#FFFFFF"/><g clip-path="url(#clip1)"><path d="M8572.5 3191.6 10590.5 3191.6M8572.5 3030.6 10590.5 3030.6M8572.5 2869.59 10590.5 2869.59M8572.5 2708.59 10590.5 2708.59M8572.5 2547.58 10590.5 2547.58M8572.5 2386.5 10590.5 2386.5" stroke="#D9D9D9" stroke-width="3.4375" stroke-linejoin="round" stroke-miterlimit="10" fill="none"/></g><g><path d="M8620.78 3325.61 8812.79 3325.61 8812.79 3352.5 8620.78 3352.5ZM8908.79 3325.61 9101.8 3325.61 9101.8 3352.5 8908.79 3352.5ZM9197.8 3325.61 9389.81 3325.61 9389.81 3352.5 9197.8 3352.5ZM9485.81 3325.61 9677.82 3325.61 9677.82 3352.5 9485.81 3352.5ZM9773.82 3325.61 9965.83 3325.61 9965.83 3352.5 9773.82 3352.5ZM10061.8 3325.61 10254.8 3325.61 10254.8 3352.5 10061.8 3352.5ZM10350.8 3325.61 10542.8 3325.61 10542.8 3352.5 10350.8 3352.5Z" stroke="#000000" stroke-width="4.58333" stroke-linejoin="round" stroke-miterlimit="10" fill="#002060"/></g><g><path d="M8620.78 3308.61 8812.79 3308.61 8812.79 3325.61 8620.78 3325.61ZM8908.79 3308.61 9101.8 3308.61 9101.8 3325.61 8908.79 3325.61ZM9197.8 3308.61 9389.81 3308.61 9389.81 3325.61 9197.8 3325.61ZM9485.81 3308.61 9677.82 3308.61 9677.82 3325.61 9485.81 3325.61ZM9773.82 3308.61 9965.83 3308.61 9965.83 3325.61 9773.82 3325.61ZM10061.8 3308.61 10254.8 3308.61 10254.8 3325.61 10061.8 3325.61ZM10350.8 3308.61 10542.8 3308.61 10542.8 3325.61 10350.8 3325.61Z" stroke="#000000" stroke-width="4.58333" stroke-linejoin="round" stroke-miterlimit="10" fill="#1F4E79"/></g><g><path d="M8620.78 3294.61 8812.79 3294.61 8812.79 3308.61 8620.78 3308.61ZM8908.79 3294.61 9101.8 3294.61 9101.8 3308.61 8908.79 3308.61ZM9197.8 3294.61 9389.81 3294.61 9389.81 3308.61 9197.8 3308.61ZM9485.81 3294.61 9677.82 3294.61 9677.82 3308.61 9485.81 3308.61ZM9773.82 3294.61 9965.83 3294.61 9965.83 3308.61 9773.82 3308.61ZM10061.8 3294.61 10254.8 3294.61 10254.8 3308.61 10061.8 3308.61ZM10350.8 3294.61 10542.8 3294.61 10542.8 3308.61 10350.8 3308.61Z" stroke="#000000" stroke-width="4.58333" stroke-linejoin="round" stroke-miterlimit="10" fill="#00B0F0"/></g><g><path d="M8620.78 3288.61 8812.79 3288.61 8812.79 3294.61 8620.78 3294.61ZM8908.79 3288.61 9101.8 3288.61 9101.8 3294.61 8908.79 3294.61ZM9197.8 3288.61 9389.81 3288.61 9389.81 3294.61 9197.8 3294.61ZM9485.81 3288.61 9677.82 3288.61 9677.82 3294.61 9485.81 3294.61ZM9773.82 3288.61 9965.83 3288.61 9965.83 3294.61 9773.82 3294.61ZM10061.8 3288.61 10254.8 3288.61 10254.8 3294.61 10061.8 3294.61ZM10350.8 3288.61 10542.8 3288.61 10542.8 3294.61 10350.8 3294.61Z" stroke="#000000" stroke-width="4.58333" stroke-linejoin="round" stroke-miterlimit="10" fill="#70AD47"/></g><g><path d="M8620.78 3264.61 8812.79 3264.61 8812.79 3288.61 8620.78 3288.61ZM8908.79 3264.61 9101.8 3264.61 9101.8 3288.61 8908.79 3288.61ZM9197.8 3264.61 9389.81 3264.61 9389.81 3288.61 9197.8 3288.61ZM9485.81 3264.61 9677.82 3264.61 9677.82 3288.61 9485.81 3288.61ZM9773.82 3264.61 9965.83 3264.61 9965.83 3288.61 9773.82 3288.61ZM10061.8 3264.61 10254.8 3264.61 10254.8 3288.61 10061.8 3288.61ZM10350.8 3264.61 10542.8 3264.61 10542.8 3288.61 10350.8 3288.61Z" stroke="#000000" stroke-width="4.58333" stroke-linejoin="round" stroke-miterlimit="10" fill="#FFFF00"/></g><g><path d="M8620.78 3003.6 8812.79 3003.6 8812.79 3264.61 8620.78 3264.61ZM8908.79 2968.6 9101.8 2968.6 9101.8 3264.61 8908.79 3264.61ZM9197.8 2898.6 9389.81 2898.6 9389.81 3264.61 9197.8 3264.61ZM9485.81 2959.6 9677.82 2959.6 9677.82 3264.61 9485.81 3264.61ZM9773.82 2992.6 9965.83 2992.6 9965.83 3264.61 9773.82 3264.61ZM10061.8 2932.6 10254.8 2932.6 10254.8 3264.61 10061.8 3264.61ZM10350.8 2875.59 10542.8 2875.59 10542.8 3264.61 10350.8 3264.61Z" stroke="#000000" stroke-width="3.4375" stroke-linejoin="round" stroke-miterlimit="10" fill="#FFC000"/></g><g><path d="M8620.78 2816.59 8812.79 2816.59 8812.79 3003.6 8620.78 3003.6ZM8908.79 2768.59 9101.8 2768.59 9101.8 2968.6 8908.79 2968.6ZM9197.8 2705.59 9389.81 2705.59 9389.81 2898.6 9197.8 2898.6ZM9485.81 2723.59 9677.82 2723.59 9677.82 2959.6 9485.81 2959.6ZM9773.82 2745.59 9965.83 2745.59 9965.83 2992.6 9773.82 2992.6ZM10061.8 2703.59 10254.8 2703.59 10254.8 2932.6 10061.8 2932.6ZM10350.8 2666.59 10542.8 2666.59 10542.8 2875.59 10350.8 2875.59Z" stroke="#000000" stroke-width="3.4375" stroke-linejoin="round" stroke-miterlimit="10" fill="#4472C4"/></g><g><path d="M8620.78 2750.59 8812.79 2750.59 8812.79 2816.59 8620.78 2816.59ZM8908.79 2717.59 9101.8 2717.59 9101.8 2768.59 8908.79 2768.59ZM9197.8 2653.59 9389.81 2653.59 9389.81 2705.59 9197.8 2705.59ZM9485.81 2659.59 9677.82 2659.59 9677.82 2723.59 9485.81 2723.59ZM9773.82 2671.59 9965.83 2671.59 9965.83 2745.59 9773.82 2745.59ZM10061.8 2627.59 10254.8 2627.59 10254.8 2703.59 10061.8 2703.59ZM10350.8 2591.59 10542.8 2591.59 10542.8 2666.59 10350.8 2666.59Z" stroke="#000000" stroke-width="3.4375" stroke-linejoin="round" stroke-miterlimit="10" fill="#9DC3E6"/></g><g><path d="M8620.78 2656.59 8812.79 2656.59 8812.79 2750.59 8620.78 2750.59ZM8908.79 2615.59 9101.8 2615.59 9101.8 2717.59 8908.79 2717.59ZM9197.8 2543.58 9389.81 2543.58 9389.81 2653.59 9197.8 2653.59ZM9485.81 2572.58 9677.82 2572.58 9677.82 2659.59 9485.81 2659.59ZM9773.82 2592.59 9965.83 2592.59 9965.83 2671.59 9773.82 2671.59ZM10061.8 2544.58 10254.8 2544.58 10254.8 2627.59 10061.8 2627.59ZM10350.8 2499.58 10542.8 2499.58 10542.8 2591.59 10350.8 2591.59Z" stroke="#000000" stroke-width="3.4375" stroke-linejoin="round" stroke-miterlimit="10" fill="#C00000"/></g><g><path d="M8908.79 2614.59 9101.8 2614.59 9101.8 2615.59 8908.79 2615.59ZM9197.8 2535.58 9389.81 2535.58 9389.81 2543.58 9197.8 2543.58ZM9485.81 2551.58 9677.82 2551.58 9677.82 2572.58 9485.81 2572.58ZM9773.82 2563.58 9965.83 2563.58 9965.83 2592.59 9773.82 2592.59ZM10061.8 2512.58 10254.8 2512.58 10254.8 2544.58 10061.8 2544.58ZM10350.8 2467.58 10542.8 2467.58 10542.8 2499.58 10350.8 2499.58Z" stroke="#000000" stroke-width="3.4375" stroke-linejoin="round" stroke-miterlimit="10" fill="#CC0099"/></g><g><path d="M8908.79 2614.59 9101.8 2614.59 9101.8 2615.59 8908.79 2615.59ZM9197.8 2527.58 9389.81 2527.58 9389.81 2535.58 9197.8 2535.58ZM9485.81 2537.58 9677.82 2537.58 9677.82 2551.58 9485.81 2551.58ZM9773.82 2544.58 9965.83 2544.58 9965.83 2563.58 9773.82 2563.58ZM10061.8 2490.58 10254.8 2490.58 10254.8 2512.58 10061.8 2512.58ZM10350.8 2445.58 10542.8 2445.58 10542.8 2467.58 10350.8 2467.58Z" stroke="#000000" stroke-width="3.4375" stroke-linejoin="round" stroke-miterlimit="10" fill="#FF00FF"/></g><g clip-path="url(#clip2)"><path d="M8572.5 3352.5 10590.5 3352.5" stroke="#D9D9D9" stroke-width="3.4375" stroke-linejoin="round" stroke-miterlimit="10" fill="none" fill-rule="evenodd"/></g><g><text font-family="Times New Roman,Times New Roman_MSFontService,sans-serif" font-weight="400" font-size="46" transform="matrix(1 0 0 1 8511.07 3367)">0</text></g><g><text font-family="Times New Roman,Times New Roman_MSFontService,sans-serif" font-weight="400" font-size="46" transform="matrix(1 0 0 1 8465.23 3206)">500</text></g><g><text font-family="Times New Roman,Times New Roman_MSFontService,sans-serif" font-weight="400" font-size="46" transform="matrix(1 0 0 1 8442.32 3045)">1000</text></g><g><text font-family="Times New Roman,Times New Roman_MSFontService,sans-serif" font-weight="400" font-size="46" transform="matrix(1 0 0 1 8442.32 2884)">1500</text></g><g><text font-family="Times New Roman,Times New Roman_MSFontService,sans-serif" font-weight="400" font-size="46" transform="matrix(1 0 0 1 8442.32 2723)">2000</text></g><g><text font-family="Times New Roman,Times New Roman_MSFontService,sans-serif" font-weight="400" font-size="46" transform="matrix(1 0 0 1 8442.32 2562)">2500</text></g><g><text font-family="Times New Roman,Times New Roman_MSFontService,sans-serif" font-weight="400" font-size="46" transform="matrix(1 0 0 1 8442.32 2401)">3000</text></g><g><text font-family="Times New Roman,Times New Roman_MSFontService,sans-serif" font-weight="400" font-size="46" transform="matrix(1 0 0 1 8672.54 3421)">Base</text></g><g><text font-family="Times New Roman,Times New Roman_MSFontService,sans-serif" font-weight="400" font-size="46" transform="matrix(1 0 0 1 8939.76 3421)">ARO 1</text></g><g><text font-family="Times New Roman,Times New Roman_MSFontService,sans-serif" font-weight="400" font-size="46" transform="matrix(1 0 0 1 9228 3421)">ARO 2</text></g><g><text font-family="Times New Roman,Times New Roman_MSFontService,sans-serif" font-weight="400" font-size="46" transform="matrix(1 0 0 1 9516.24 3421)">ARO 3</text></g><g><text font-family="Times New Roman,Times New Roman_MSFontService,sans-serif" font-weight="400" font-size="46" transform="matrix(1 0 0 1 9804.47 3421)">ARO 4</text></g><g><text font-family="Times New Roman,Times New Roman_MSFontService,sans-serif" font-weight="400" font-size="46" transform="matrix(1 0 0 1 10092.7 3421)">ARO 5</text></g><g><text font-family="Times New Roman,Times New Roman_MSFontService,sans-serif" font-weight="400" font-size="46" transform="matrix(1 0 0 1 10380.9 3421)">ARO 6</text></g><g><text font-family="Times New Roman,Times New Roman_MSFontService,sans-serif" font-weight="400" font-size="46" transform="matrix(6.12323e-17 -1 1 6.12323e-17 8407.97 3162)">Generation Capacities (in GW)</text></g><g><rect x="8578" y="2313" width="1725" height="167" fill="#FFFFFF"/></g><g><rect x="8635.5" y="2329.5" width="23" height="23" stroke="#000000" stroke-width="4.58333" stroke-linejoin="round" stroke-miterlimit="10" fill="#002060"/></g><g><text font-family="Times New Roman,Times New Roman_MSFontService,sans-serif" font-weight="400" font-size="46" transform="matrix(1 0 0 1 8668.28 2355)">Reservoir</text></g><g><rect x="9066.5" y="2329.5" width="23" height="23" stroke="#000000" stroke-width="4.58333" stroke-linejoin="round" stroke-miterlimit="10" fill="#1F4E79"/></g><g><text font-family="Times New Roman,Times New Roman_MSFontService,sans-serif" font-weight="400" font-size="46" transform="matrix(1 0 0 1 9099.34 2355)">PSP</text></g><g><rect x="9497.5" y="2329.5" width="23" height="23" stroke="#000000" stroke-width="4.58333" stroke-linejoin="round" stroke-miterlimit="10" fill="#00B0F0"/></g><g><text font-family="Times New Roman,Times New Roman_MSFontService,sans-serif" font-weight="400" font-size="46" transform="matrix(1 0 0 1 9530.4 2355)">RoR</text></g><g><rect x="9928.5" y="2329.5" width="23" height="23" stroke="#000000" stroke-width="4.58333" stroke-linejoin="round" stroke-miterlimit="10" fill="#70AD47"/></g><g><text font-family="Times New Roman,Times New Roman_MSFontService,sans-serif" font-weight="400" font-size="46" transform="matrix(1 0 0 1 9961.46 2355)">Biomass</text></g><g><rect x="8635.5" y="2385.5" width="23" height="22" stroke="#000000" stroke-width="4.58333" stroke-linejoin="round" stroke-miterlimit="10" fill="#FFFF00"/></g><g><text font-family="Times New Roman,Times New Roman_MSFontService,sans-serif" font-weight="400" font-size="46" transform="matrix(1 0 0 1 8668.28 2411)">Nuclear</text></g><g><rect x="9066.5" y="2385.5" width="23" height="22" stroke="#000000" stroke-width="3.4375" stroke-linejoin="round" stroke-miterlimit="10" fill="#FFC000"/></g><g><text font-family="Times New Roman,Times New Roman_MSFontService,sans-serif" font-weight="400" font-size="46" transform="matrix(1 0 0 1 9099.34 2411)">Solar PV</text></g><g><rect x="9497.5" y="2385.5" width="23" height="22" stroke="#000000" stroke-width="3.4375" stroke-linejoin="round" stroke-miterlimit="10" fill="#4472C4"/></g><g><text font-family="Times New Roman,Times New Roman_MSFontService,sans-serif" font-weight="400" font-size="46" transform="matrix(1 0 0 1 9530.4 2411)">Onshore Wind</text></g><g><rect x="9928.5" y="2385.5" width="23" height="22" stroke="#000000" stroke-width="3.4375" stroke-linejoin="round" stroke-miterlimit="10" fill="#9DC3E6"/></g><g><text font-family="Times New Roman,Times New Roman_MSFontService,sans-serif" font-weight="400" font-size="46" transform="matrix(1 0 0 1 9961.46 2411)">Offshore Wind</text></g><g><rect x="8635.5" y="2440.5" width="23" height="23" stroke="#000000" stroke-width="3.4375" stroke-linejoin="round" stroke-miterlimit="10" fill="#C00000"/></g><g><text font-family="Times New Roman,Times New Roman_MSFontService,sans-serif" font-weight="400" font-size="46" transform="matrix(1 0 0 1 8668.28 2467)">Battery inverter</text></g><g><rect x="9066.5" y="2440.5" width="23" height="23" stroke="#000000" stroke-width="3.4375" stroke-linejoin="round" stroke-miterlimit="10" fill="#CC0099"/></g><g><text font-family="Times New Roman,Times New Roman_MSFontService,sans-serif" font-weight="400" font-size="46" transform="matrix(1 0 0 1 9099.34 2467)">Electrolyser</text></g><g><rect x="9497.5" y="2440.5" width="23" height="23" stroke="#000000" stroke-width="3.4375" stroke-linejoin="round" stroke-miterlimit="10" fill="#FF00FF"/></g><g><text font-family="Times New Roman,Times New Roman_MSFontService,sans-serif" font-weight="400" font-size="46" transform="matrix(1 0 0 1 9530.4 2467)">OCGT H2</text></g></g></svg>