<svg width="2079" height="924" xmlns="http://www.w3.org/2000/svg" xmlns:xlink="http://www.w3.org/1999/xlink" xml:space="preserve" overflow="hidden"><defs><clipPath id="clip0"><rect x="0" y="0" width="2079" height="924"/></clipPath><clipPath id="clip1"><rect x="0" y="0" width="2078" height="924"/></clipPath></defs><g clip-path="url(#clip0)"><rect x="0" y="0" width="2079" height="924" fill="#FFFFFF"/><g><path d="M222.5 704.5 2013.5 704.5M222.5 538.518 2013.5 538.518M222.5 456.515 2013.5 456.515M222.5 373.512 2013.5 373.512M222.5 290.51 2013.5 290.51M222.5 207.507 2013.5 207.507M222.5 125.504 2013.5 125.504M222.5 42.5001 2013.5 42.5001" stroke="#D9D9D9" stroke-width="3.4375" stroke-linejoin="round" stroke-miterlimit="10" fill="none"/></g><g><path d="M222.5 620.521 260.509 620.521 260.509 621.521 222.5 621.521ZM260.509 620.521 299.51 620.521 299.51 621.521 260.509 621.521ZM299.51 620.521 337.511 620.521 337.511 621.521 299.51 621.521ZM337.511 620.521 375.513 620.521 375.513 621.521 337.511 621.521ZM375.513 620.521 413.514 620.521 413.514 621.521 375.513 621.521ZM413.514 620.521 451.515 620.521 451.515 621.521 413.514 621.521ZM451.515 620.521 489.516 620.521 489.516 621.521 451.515 621.521ZM527.517 615.52 565.519 615.52 565.519 621.521 527.517 621.521ZM565.519 616.52 603.52 616.52 603.52 621.521 565.519 621.521ZM603.52 616.52 641.521 616.52 641.521 621.521 603.52 621.521ZM641.521 616.52 680.523 616.52 680.523 621.521 641.521 621.521ZM680.523 616.52 718.524 616.52 718.524 621.521 680.523 621.521ZM718.524 617.52 756.525 617.52 756.525 621.521 718.524 621.521ZM756.525 617.52 794.526 617.52 794.526 621.521 756.525 621.521ZM832.527 573.519 870.529 573.519 870.529 621.521 832.527 621.521ZM870.529 579.519 908.53 579.519 908.53 621.521 870.529 621.521ZM908.53 585.519 946.531 585.519 946.531 621.521 908.53 621.521ZM946.531 582.519 984.532 582.519 984.532 621.521 946.531 621.521ZM984.532 582.519 1022.53 582.519 1022.53 621.521 984.532 621.521ZM1022.53 581.519 1060.54 581.519 1060.54 621.521 1022.53 621.521ZM1060.54 578.519 1099.54 578.519 1099.54 621.521 1060.54 621.521ZM1746.56 614.52 1784.56 614.52 1784.56 621.521 1746.56 621.521ZM1784.56 617.52 1822.56 617.52 1822.56 621.521 1784.56 621.521ZM1822.56 617.52 1860.56 617.52 1860.56 621.521 1822.56 621.521ZM1860.56 616.52 1899.56 616.52 1899.56 621.521 1860.56 621.521ZM1899.56 616.52 1937.56 616.52 1937.56 621.521 1899.56 621.521ZM1937.56 616.52 1975.56 616.52 1975.56 621.521 1937.56 621.521ZM1975.56 616.52 2013.5 616.52 2013.5 621.521 1975.56 621.521Z" stroke="#000000" stroke-width="3.4375" stroke-linejoin="round" stroke-miterlimit="10" fill="#FFFF00"/></g><g><path d="M222.5 619.521 260.509 619.521 260.509 620.521 222.5 620.521ZM260.509 619.521 299.51 619.521 299.51 620.521 260.509 620.521ZM299.51 619.521 337.511 619.521 337.511 620.521 299.51 620.521ZM337.511 619.521 375.513 619.521 375.513 620.521 337.511 620.521ZM375.513 619.521 413.514 619.521 413.514 620.521 375.513 620.521ZM413.514 619.521 451.515 619.521 451.515 620.521 413.514 620.521ZM451.515 619.521 489.516 619.521 489.516 620.521 451.515 620.521ZM527.517 608.52 565.519 608.52 565.519 615.52 527.517 615.52ZM565.519 612.52 603.52 612.52 603.52 616.52 565.519 616.52ZM603.52 612.52 641.521 612.52 641.521 616.52 603.52 616.52ZM641.521 612.52 680.523 612.52 680.523 616.52 641.521 616.52ZM680.523 612.52 718.524 612.52 718.524 616.52 680.523 616.52ZM718.524 614.52 756.525 614.52 756.525 617.52 718.524 617.52ZM756.525 614.52 794.526 614.52 794.526 617.52 756.525 617.52ZM832.527 572.519 870.529 572.519 870.529 573.519 832.527 573.519ZM870.529 578.519 908.53 578.519 908.53 579.519 870.529 579.519ZM908.53 584.519 946.531 584.519 946.531 585.519 908.53 585.519ZM946.531 581.519 984.532 581.519 984.532 582.519 946.531 582.519ZM984.532 581.519 1022.53 581.519 1022.53 582.519 984.532 582.519ZM1022.53 580.519 1060.54 580.519 1060.54 581.519 1022.53 581.519ZM1060.54 577.519 1099.54 577.519 1099.54 578.519 1060.54 578.519ZM1441.55 620.521 1479.55 620.521 1479.55 621.521 1441.55 621.521ZM1479.55 620.521 1518.55 620.521 1518.55 621.521 1479.55 621.521ZM1518.55 620.521 1556.55 620.521 1556.55 621.521 1518.55 621.521ZM1556.55 620.521 1594.55 620.521 1594.55 621.521 1556.55 621.521ZM1594.55 620.521 1632.55 620.521 1632.55 621.521 1594.55 621.521ZM1632.55 620.521 1670.55 620.521 1670.55 621.521 1632.55 621.521ZM1670.55 620.521 1708.56 620.521 1708.56 621.521 1670.55 621.521ZM1746.56 606.52 1784.56 606.52 1784.56 614.52 1746.56 614.52ZM1784.56 611.52 1822.56 611.52 1822.56 617.52 1784.56 617.52ZM1822.56 611.52 1860.56 611.52 1860.56 617.52 1822.56 617.52ZM1860.56 610.52 1899.56 610.52 1899.56 616.52 1860.56 616.52ZM1899.56 610.52 1937.56 610.52 1937.56 616.52 1899.56 616.52ZM1937.56 609.52 1975.56 609.52 1975.56 616.52 1937.56 616.52ZM1975.56 609.52 2013.5 609.52 2013.5 616.52 1975.56 616.52Z" stroke="#000000" stroke-width="3.4375" stroke-linejoin="round" stroke-miterlimit="10" fill="#70AD47"/></g><g><path d="M222.5 614.52 260.509 614.52 260.509 620.521 222.5 620.521ZM260.509 616.52 299.51 616.52 299.51 620.521 260.509 620.521ZM299.51 616.52 337.511 616.52 337.511 620.521 299.51 620.521ZM337.511 616.52 375.513 616.52 375.513 620.521 337.511 620.521ZM375.513 615.52 413.514 615.52 413.514 620.521 375.513 620.521ZM413.514 616.52 451.515 616.52 451.515 620.521 413.514 620.521ZM451.515 615.52 489.516 615.52 489.516 620.521 451.515 620.521ZM527.517 594.52 565.519 594.52 565.519 608.52 527.517 608.52ZM565.519 601.52 603.52 601.52 603.52 612.52 565.519 612.52ZM603.52 601.52 641.521 601.52 641.521 612.52 603.52 612.52ZM641.521 601.52 680.523 601.52 680.523 612.52 641.521 612.52ZM680.523 600.52 718.524 600.52 718.524 612.52 680.523 612.52ZM718.524 604.52 756.525 604.52 756.525 614.52 718.524 614.52ZM756.525 603.52 794.526 603.52 794.526 614.52 756.525 614.52ZM832.527 565.519 870.529 565.519 870.529 572.519 832.527 572.519ZM870.529 570.519 908.53 570.519 908.53 578.519 870.529 578.519ZM908.53 576.519 946.531 576.519 946.531 584.519 908.53 584.519ZM946.531 573.519 984.532 573.519 984.532 582.519 946.531 582.519ZM984.532 572.519 1022.53 572.519 1022.53 581.519 984.532 581.519ZM1022.53 571.519 1060.54 571.519 1060.54 580.519 1022.53 580.519ZM1060.54 568.519 1099.54 568.519 1099.54 578.519 1060.54 578.519ZM1137.54 617.52 1175.54 617.52 1175.54 621.521 1137.54 621.521ZM1175.54 618.52 1213.54 618.52 1213.54 621.521 1175.54 621.521ZM1213.54 618.52 1251.54 618.52 1251.54 621.521 1213.54 621.521ZM1251.54 618.52 1289.54 618.52 1289.54 621.521 1251.54 621.521ZM1289.54 618.52 1327.54 618.52 1327.54 621.521 1289.54 621.521ZM1327.54 618.52 1365.54 618.52 1365.54 621.521 1327.54 621.521ZM1365.54 618.52 1403.55 618.52 1403.55 621.521 1365.54 621.521ZM1441.55 598.52 1479.55 598.52 1479.55 621.521 1441.55 621.521ZM1479.55 598.52 1518.55 598.52 1518.55 621.521 1479.55 621.521ZM1518.55 599.52 1556.55 599.52 1556.55 621.521 1518.55 621.521ZM1556.55 598.52 1594.55 598.52 1594.55 621.521 1556.55 621.521ZM1594.55 597.52 1632.55 597.52 1632.55 621.521 1594.55 621.521ZM1632.55 598.52 1670.55 598.52 1670.55 621.521 1632.55 621.521ZM1670.55 597.52 1708.56 597.52 1708.56 621.521 1670.55 621.521ZM1746.56 600.52 1784.56 600.52 1784.56 606.52 1746.56 606.52ZM1784.56 606.52 1822.56 606.52 1822.56 611.52 1784.56 611.52ZM1822.56 607.52 1860.56 607.52 1860.56 611.52 1822.56 611.52ZM1860.56 605.52 1899.56 605.52 1899.56 610.52 1860.56 610.52ZM1899.56 604.52 1937.56 604.52 1937.56 610.52 1899.56 610.52ZM1937.56 604.52 1975.56 604.52 1975.56 609.52 1937.56 609.52ZM1975.56 603.52 2013.5 603.52 2013.5 609.52 1975.56 609.52Z" stroke="#000000" stroke-width="3.4375" stroke-linejoin="round" stroke-miterlimit="10" fill="#00B0F0"/></g><g><path d="M222.5 580.519 260.509 580.519 260.509 614.52 222.5 614.52ZM260.509 584.519 299.51 584.519 299.51 616.52 260.509 616.52ZM299.51 585.519 337.511 585.519 337.511 616.52 299.51 616.52ZM337.511 585.519 375.513 585.519 375.513 616.52 337.511 616.52ZM375.513 584.519 413.514 584.519 413.514 615.52 375.513 615.52ZM413.514 585.519 451.515 585.519 451.515 616.52 413.514 616.52ZM451.515 583.519 489.516 583.519 489.516 615.52 451.515 615.52ZM527.517 593.52 565.519 593.52 565.519 594.52 527.517 594.52ZM565.519 600.52 603.52 600.52 603.52 601.52 565.519 601.52ZM603.52 600.52 641.521 600.52 641.521 601.52 603.52 601.52ZM641.521 600.52 680.523 600.52 680.523 601.52 641.521 601.52ZM680.523 599.52 718.524 599.52 718.524 600.52 680.523 600.52ZM718.524 603.52 756.525 603.52 756.525 604.52 718.524 604.52ZM756.525 602.52 794.526 602.52 794.526 603.52 756.525 603.52ZM832.527 559.519 870.529 559.519 870.529 565.519 832.527 565.519ZM870.529 565.519 908.53 565.519 908.53 570.519 870.529 570.519ZM908.53 571.519 946.531 571.519 946.531 576.519 908.53 576.519ZM946.531 567.519 984.532 567.519 984.532 573.519 946.531 573.519ZM984.532 566.519 1022.53 566.519 1022.53 572.519 984.532 572.519ZM1022.53 565.519 1060.54 565.519 1060.54 571.519 1022.53 571.519ZM1060.54 562.519 1099.54 562.519 1099.54 568.519 1060.54 568.519ZM1137.54 604.52 1175.54 604.52 1175.54 617.52 1137.54 617.52ZM1175.54 609.52 1213.54 609.52 1213.54 618.52 1175.54 618.52ZM1213.54 610.52 1251.54 610.52 1251.54 618.52 1213.54 618.52ZM1251.54 610.52 1289.54 610.52 1289.54 618.52 1251.54 618.52ZM1289.54 609.52 1327.54 609.52 1327.54 618.52 1289.54 618.52ZM1327.54 610.52 1365.54 610.52 1365.54 618.52 1327.54 618.52ZM1365.54 609.52 1403.55 609.52 1403.55 618.52 1365.54 618.52ZM1441.55 584.519 1479.55 584.519 1479.55 598.52 1441.55 598.52ZM1479.55 587.519 1518.55 587.519 1518.55 598.52 1479.55 598.52ZM1518.55 589.52 1556.55 589.52 1556.55 599.52 1518.55 599.52ZM1556.55 587.519 1594.55 587.519 1594.55 598.52 1556.55 598.52ZM1594.55 585.519 1632.55 585.519 1632.55 597.52 1594.55 597.52ZM1632.55 586.519 1670.55 586.519 1670.55 598.52 1632.55 598.52ZM1670.55 584.519 1708.56 584.519 1708.56 597.52 1670.55 597.52ZM1746.56 599.52 1784.56 599.52 1784.56 600.52 1746.56 600.52ZM1784.56 605.52 1822.56 605.52 1822.56 606.52 1784.56 606.52ZM1822.56 606.52 1860.56 606.52 1860.56 607.52 1822.56 607.52ZM1860.56 604.52 1899.56 604.52 1899.56 605.52 1860.56 605.52ZM1899.56 603.52 1937.56 603.52 1937.56 604.52 1899.56 604.52ZM1937.56 603.52 1975.56 603.52 1975.56 604.52 1937.56 604.52ZM1975.56 602.52 2013.5 602.52 2013.5 603.52 1975.56 603.52Z" stroke="#000000" stroke-width="3.4375" stroke-linejoin="round" stroke-miterlimit="10" fill="#002060"/></g><g><path d="M222.5 451.515 260.509 451.515 260.509 580.519 222.5 580.519ZM260.509 427.514 299.51 427.514 299.51 584.519 260.509 584.519ZM299.51 433.514 337.511 433.514 337.511 585.519 299.51 585.519ZM337.511 444.515 375.513 444.515 375.513 585.519 337.511 585.519ZM375.513 440.515 413.514 440.515 413.514 584.519 375.513 584.519ZM413.514 435.514 451.515 435.514 451.515 585.519 413.514 585.519ZM451.515 429.514 489.516 429.514 489.516 583.519 451.515 583.519ZM527.517 516.517 565.519 516.517 565.519 594.52 527.517 594.52ZM565.519 528.518 603.52 528.518 603.52 601.52 565.519 601.52ZM603.52 523.517 641.521 523.517 641.521 601.52 603.52 601.52ZM641.521 526.517 680.523 526.517 680.523 601.52 641.521 601.52ZM680.523 538.518 718.524 538.518 718.524 600.52 680.523 600.52ZM718.524 546.518 756.525 546.518 756.525 604.52 718.524 604.52ZM756.525 548.518 794.526 548.518 794.526 603.52 756.525 603.52ZM832.527 488.516 870.529 488.516 870.529 559.519 832.527 559.519ZM870.529 438.515 908.53 438.515 908.53 565.519 870.529 565.519ZM908.53 425.514 946.531 425.514 946.531 571.519 908.53 571.519ZM946.531 354.512 984.532 354.512 984.532 567.519 946.531 567.519ZM984.532 342.511 1022.53 342.511 1022.53 566.519 984.532 566.519ZM1022.53 350.512 1060.54 350.512 1060.54 565.519 1022.53 565.519ZM1060.54 365.512 1099.54 365.512 1099.54 562.519 1060.54 562.519ZM1137.54 530.518 1175.54 530.518 1175.54 604.52 1137.54 604.52ZM1175.54 543.518 1213.54 543.518 1213.54 609.52 1175.54 609.52ZM1213.54 545.518 1251.54 545.518 1251.54 610.52 1213.54 610.52ZM1251.54 517.517 1289.54 517.517 1289.54 610.52 1251.54 610.52ZM1289.54 510.517 1327.54 510.517 1327.54 609.52 1289.54 609.52ZM1327.54 546.518 1365.54 546.518 1365.54 610.52 1327.54 610.52ZM1365.54 541.518 1403.55 541.518 1403.55 609.52 1365.54 609.52ZM1441.55 577.519 1479.55 577.519 1479.55 584.519 1441.55 584.519ZM1479.55 583.519 1518.55 583.519 1518.55 587.519 1479.55 587.519ZM1518.55 564.519 1556.55 564.519 1556.55 589.52 1518.55 589.52ZM1556.55 537.518 1594.55 537.518 1594.55 587.519 1556.55 587.519ZM1594.55 539.518 1632.55 539.518 1632.55 585.519 1594.55 585.519ZM1632.55 554.518 1670.55 554.518 1670.55 586.519 1632.55 586.519ZM1670.55 582.519 1708.56 582.519 1708.56 584.519 1670.55 584.519ZM1746.56 439.515 1784.56 439.515 1784.56 599.52 1746.56 599.52ZM1784.56 439.515 1822.56 439.515 1822.56 605.52 1784.56 605.52ZM1822.56 504.517 1860.56 504.517 1860.56 606.52 1822.56 606.52ZM1860.56 540.518 1899.56 540.518 1899.56 604.52 1860.56 604.52ZM1899.56 529.518 1937.56 529.518 1937.56 603.52 1899.56 603.52ZM1937.56 507.517 1975.56 507.517 1975.56 603.52 1937.56 603.52ZM1975.56 504.517 2013.5 504.517 2013.5 602.52 1975.56 602.52Z" stroke="#000000" stroke-width="3.4375" stroke-linejoin="round" stroke-miterlimit="10" fill="#4472C4"/></g><g><path d="M222.5 421.514 260.509 421.514 260.509 451.515 222.5 451.515ZM260.509 412.514 299.51 412.514 299.51 427.514 260.509 427.514ZM299.51 400.513 337.511 400.513 337.511 433.514 299.51 433.514ZM337.511 389.513 375.513 389.513 375.513 444.515 337.511 444.515ZM375.513 384.513 413.514 384.513 413.514 440.515 375.513 440.515ZM413.514 379.513 451.515 379.513 451.515 435.514 413.514 435.514ZM451.515 378.513 489.516 378.513 489.516 429.514 451.515 429.514ZM527.517 485.516 565.519 485.516 565.519 516.517 527.517 516.517ZM565.519 482.516 603.52 482.516 603.52 528.518 565.519 528.518ZM603.52 482.516 641.521 482.516 641.521 523.517 603.52 523.517ZM641.521 476.516 680.523 476.516 680.523 526.517 641.521 526.517ZM680.523 475.516 718.524 475.516 718.524 538.518 680.523 538.518ZM718.524 470.516 756.525 470.516 756.525 546.518 718.524 546.518ZM756.525 466.515 794.526 466.515 794.526 548.518 756.525 548.518ZM832.527 335.511 870.529 335.511 870.529 488.516 832.527 488.516ZM870.529 346.512 908.53 346.512 908.53 438.515 870.529 438.515ZM908.53 340.511 946.531 340.511 946.531 425.514 908.53 425.514ZM946.531 281.509 984.532 281.509 984.532 354.512 946.531 354.512ZM984.532 245.508 1022.53 245.508 1022.53 342.511 984.532 342.511ZM1022.53 236.508 1060.54 236.508 1060.54 350.512 1022.53 350.512ZM1060.54 245.508 1099.54 245.508 1099.54 365.512 1060.54 365.512ZM1137.54 529.518 1175.54 529.518 1175.54 530.518 1137.54 530.518ZM1365.54 540.518 1403.55 540.518 1403.55 541.518 1365.54 541.518ZM1746.56 352.512 1784.56 352.512 1784.56 439.515 1746.56 439.515ZM1784.56 357.512 1822.56 357.512 1822.56 439.515 1784.56 439.515ZM1822.56 430.514 1860.56 430.514 1860.56 504.517 1822.56 504.517ZM1860.56 432.514 1899.56 432.514 1899.56 540.518 1860.56 540.518ZM1899.56 404.513 1937.56 404.513 1937.56 529.518 1899.56 529.518ZM1937.56 419.514 1975.56 419.514 1975.56 507.517 1937.56 507.517ZM1975.56 424.514 2013.5 424.514 2013.5 504.517 1975.56 504.517Z" stroke="#000000" stroke-width="3.4375" stroke-linejoin="round" stroke-miterlimit="10" fill="#9DC3E6"/></g><g><path d="M451.515 377.513 489.516 377.513 489.516 378.513 451.515 378.513ZM756.525 465.515 794.526 465.515 794.526 466.515 756.525 466.515ZM832.527 210.507 870.529 210.507 870.529 335.511 832.527 335.511ZM870.529 264.509 908.53 264.509 908.53 346.512 870.529 346.512ZM908.53 255.509 946.531 255.509 946.531 340.511 908.53 340.511ZM946.531 238.508 984.532 238.508 984.532 281.509 946.531 281.509ZM984.532 229.508 1022.53 229.508 1022.53 245.508 984.532 245.508ZM1022.53 228.508 1060.54 228.508 1060.54 236.508 1022.53 236.508ZM1060.54 237.508 1099.54 237.508 1099.54 245.508 1060.54 245.508ZM1137.54 477.516 1175.54 477.516 1175.54 530.518 1137.54 530.518ZM1175.54 463.515 1213.54 463.515 1213.54 543.518 1175.54 543.518ZM1213.54 462.515 1251.54 462.515 1251.54 545.518 1213.54 545.518ZM1251.54 462.515 1289.54 462.515 1289.54 517.517 1251.54 517.517ZM1289.54 460.515 1327.54 460.515 1327.54 510.517 1289.54 510.517ZM1327.54 465.515 1365.54 465.515 1365.54 546.518 1327.54 546.518ZM1365.54 464.515 1403.55 464.515 1403.55 541.518 1365.54 541.518ZM1441.55 370.512 1479.55 370.512 1479.55 577.519 1441.55 577.519ZM1479.55 435.514 1518.55 435.514 1518.55 583.519 1479.55 583.519ZM1518.55 377.513 1556.55 377.513 1556.55 564.519 1518.55 564.519ZM1556.55 301.51 1594.55 301.51 1594.55 537.518 1556.55 537.518ZM1594.55 285.51 1632.55 285.51 1632.55 539.518 1594.55 539.518ZM1632.55 283.509 1670.55 283.509 1670.55 554.518 1632.55 554.518ZM1670.55 278.509 1708.56 278.509 1708.56 582.519 1670.55 582.519ZM1746.56 330.511 1784.56 330.511 1784.56 352.512 1746.56 352.512ZM1784.56 232.508 1822.56 232.508 1822.56 357.512 1784.56 357.512ZM1822.56 293.51 1860.56 293.51 1860.56 430.514 1822.56 430.514ZM1860.56 364.512 1899.56 364.512 1899.56 432.514 1860.56 432.514ZM1899.56 379.513 1937.56 379.513 1937.56 404.513 1899.56 404.513ZM1937.56 377.513 1975.56 377.513 1975.56 419.514 1937.56 419.514ZM1975.56 376.513 2013.5 376.513 2013.5 424.514 1975.56 424.514Z" stroke="#000000" stroke-width="3.4375" stroke-linejoin="round" stroke-miterlimit="10" fill="#FFC000"/></g><g><path d="M260.509 411.514 299.51 411.514 299.51 412.514 260.509 412.514ZM299.51 398.513 337.511 398.513 337.511 400.513 299.51 400.513ZM337.511 382.513 375.513 382.513 375.513 389.513 337.511 389.513ZM375.513 375.512 413.514 375.512 413.514 384.513 375.513 384.513ZM413.514 365.512 451.515 365.512 451.515 379.513 413.514 379.513ZM451.515 364.512 489.516 364.512 489.516 378.513 451.515 378.513ZM641.521 475.516 680.523 475.516 680.523 476.516 641.521 476.516ZM680.523 474.516 718.524 474.516 718.524 475.516 680.523 475.516ZM718.524 469.516 756.525 469.516 756.525 470.516 718.524 470.516ZM756.525 463.515 794.526 463.515 794.526 466.515 756.525 466.515ZM946.531 224.508 984.532 224.508 984.532 238.508 946.531 238.508ZM984.532 212.507 1022.53 212.507 1022.53 229.508 984.532 229.508ZM1022.53 209.507 1060.54 209.507 1060.54 228.508 1022.53 228.508ZM1060.54 220.507 1099.54 220.507 1099.54 237.508 1060.54 237.508ZM1289.54 459.515 1327.54 459.515 1327.54 460.515 1289.54 460.515ZM1327.54 464.515 1365.54 464.515 1365.54 465.515 1327.54 465.515ZM1365.54 463.515 1403.55 463.515 1403.55 464.515 1365.54 464.515ZM1556.55 297.51 1594.55 297.51 1594.55 301.51 1556.55 301.51ZM1594.55 278.509 1632.55 278.509 1632.55 285.51 1594.55 285.51ZM1632.55 274.509 1670.55 274.509 1670.55 283.509 1632.55 283.509ZM1670.55 269.509 1708.56 269.509 1708.56 278.509 1670.55 278.509ZM1822.56 283.509 1860.56 283.509 1860.56 293.51 1822.56 293.51ZM1860.56 355.512 1899.56 355.512 1899.56 364.512 1860.56 364.512ZM1899.56 366.512 1937.56 366.512 1937.56 379.513 1899.56 379.513ZM1937.56 364.512 1975.56 364.512 1975.56 377.513 1937.56 377.513ZM1975.56 364.512 2013.5 364.512 2013.5 376.513 1975.56 376.513Z" stroke="#000000" stroke-width="3.4375" stroke-linejoin="round" stroke-miterlimit="10" fill="#FF33CC"/></g><g><path d="M222.5 420.514 260.509 420.514 260.509 421.514 222.5 421.514ZM260.509 410.514 299.51 410.514 299.51 411.514 260.509 411.514ZM299.51 397.513 337.511 397.513 337.511 398.513 299.51 398.513ZM337.511 381.513 375.513 381.513 375.513 382.513 337.511 382.513ZM375.513 374.512 413.514 374.512 413.514 375.512 375.513 375.512ZM413.514 364.512 451.515 364.512 451.515 365.512 413.514 365.512ZM451.515 363.512 489.516 363.512 489.516 364.512 451.515 364.512ZM527.517 484.516 565.519 484.516 565.519 485.516 527.517 485.516ZM565.519 481.516 603.52 481.516 603.52 482.516 565.519 482.516ZM603.52 481.516 641.521 481.516 641.521 482.516 603.52 482.516ZM641.521 475.516 680.523 475.516 680.523 476.516 641.521 476.516ZM680.523 473.516 718.524 473.516 718.524 474.516 680.523 474.516ZM718.524 468.516 756.525 468.516 756.525 469.516 718.524 469.516ZM756.525 462.515 794.526 462.515 794.526 463.515 756.525 463.515ZM832.527 209.507 870.529 209.507 870.529 210.507 832.527 210.507ZM870.529 263.509 908.53 263.509 908.53 264.509 870.529 264.509ZM908.53 254.509 946.531 254.509 946.531 255.509 908.53 255.509ZM946.531 223.508 984.532 223.508 984.532 224.508 946.531 224.508ZM984.532 211.507 1022.53 211.507 1022.53 212.507 984.532 212.507ZM1022.53 208.507 1060.54 208.507 1060.54 209.507 1022.53 209.507ZM1060.54 219.507 1099.54 219.507 1099.54 220.507 1060.54 220.507ZM1137.54 476.516 1175.54 476.516 1175.54 477.516 1137.54 477.516ZM1175.54 462.515 1213.54 462.515 1213.54 463.515 1175.54 463.515ZM1213.54 461.515 1251.54 461.515 1251.54 462.515 1213.54 462.515ZM1251.54 461.515 1289.54 461.515 1289.54 462.515 1251.54 462.515ZM1289.54 459.515 1327.54 459.515 1327.54 460.515 1289.54 460.515ZM1327.54 464.515 1365.54 464.515 1365.54 465.515 1327.54 465.515ZM1365.54 463.515 1403.55 463.515 1403.55 464.515 1365.54 464.515ZM1441.55 369.512 1479.55 369.512 1479.55 370.512 1441.55 370.512ZM1479.55 434.514 1518.55 434.514 1518.55 435.514 1479.55 435.514ZM1518.55 376.513 1556.55 376.513 1556.55 377.513 1518.55 377.513ZM1556.55 296.51 1594.55 296.51 1594.55 297.51 1556.55 297.51ZM1594.55 277.509 1632.55 277.509 1632.55 278.509 1594.55 278.509ZM1632.55 273.509 1670.55 273.509 1670.55 274.509 1632.55 274.509ZM1670.55 268.509 1708.56 268.509 1708.56 269.509 1670.55 269.509ZM1746.56 329.511 1784.56 329.511 1784.56 330.511 1746.56 330.511ZM1784.56 231.508 1822.56 231.508 1822.56 232.508 1784.56 232.508ZM1822.56 281.509 1860.56 281.509 1860.56 283.509 1822.56 283.509ZM1860.56 353.512 1899.56 353.512 1899.56 355.512 1860.56 355.512ZM1899.56 363.512 1937.56 363.512 1937.56 366.512 1899.56 366.512ZM1937.56 362.512 1975.56 362.512 1975.56 364.512 1937.56 364.512ZM1975.56 362.512 2013.5 362.512 2013.5 364.512 1975.56 364.512Z" stroke="#000000" stroke-width="3.4375" stroke-linejoin="round" stroke-miterlimit="10" fill="#843C0C"/></g><g><path d="M222.5 621.521 260.509 621.521 260.509 622.521 222.5 622.521ZM260.509 624.521 299.51 624.521 299.51 621.521 260.509 621.521ZM299.51 624.521 337.511 624.521 337.511 621.521 299.51 621.521ZM337.511 623.521 375.513 623.521 375.513 621.521 337.511 621.521ZM375.513 624.521 413.514 624.521 413.514 621.521 375.513 621.521ZM413.514 623.521 451.515 623.521 451.515 621.521 413.514 621.521ZM451.515 623.521 489.516 623.521 489.516 621.521 451.515 621.521ZM527.517 621.521 565.519 621.521 565.519 622.521 527.517 622.521ZM565.519 622.521 603.52 622.521 603.52 621.521 565.519 621.521ZM603.52 622.521 641.521 622.521 641.521 621.521 603.52 621.521ZM641.521 622.521 680.523 622.521 680.523 621.521 641.521 621.521ZM680.523 622.521 718.524 622.521 718.524 621.521 680.523 621.521ZM718.524 622.521 756.525 622.521 756.525 621.521 718.524 621.521ZM756.525 621.521 794.526 621.521 794.526 622.521 756.525 622.521ZM832.527 623.521 870.529 623.521 870.529 621.521 832.527 621.521ZM870.529 624.521 908.53 624.521 908.53 621.521 870.529 621.521ZM908.53 625.521 946.531 625.521 946.531 621.521 908.53 621.521ZM946.531 622.521 984.532 622.521 984.532 621.521 946.531 621.521ZM984.532 621.521 1022.53 621.521 1022.53 622.521 984.532 622.521ZM1022.53 621.521 1060.54 621.521 1060.54 622.521 1022.53 622.521ZM1060.54 621.521 1099.54 621.521 1099.54 622.521 1060.54 622.521ZM1137.54 621.521 1175.54 621.521 1175.54 622.521 1137.54 622.521ZM1175.54 624.521 1213.54 624.521 1213.54 621.521 1175.54 621.521ZM1213.54 624.521 1251.54 624.521 1251.54 621.521 1213.54 621.521ZM1251.54 623.521 1289.54 623.521 1289.54 621.521 1251.54 621.521ZM1289.54 623.521 1327.54 623.521 1327.54 621.521 1289.54 621.521ZM1327.54 623.521 1365.54 623.521 1365.54 621.521 1327.54 621.521ZM1365.54 624.521 1403.55 624.521 1403.55 621.521 1365.54 621.521ZM1441.55 625.521 1479.55 625.521 1479.55 621.521 1441.55 621.521ZM1479.55 625.521 1518.55 625.521 1518.55 621.521 1479.55 621.521ZM1518.55 626.521 1556.55 626.521 1556.55 621.521 1518.55 621.521ZM1556.55 627.521 1594.55 627.521 1594.55 621.521 1556.55 621.521ZM1594.55 628.521 1632.55 628.521 1632.55 621.521 1594.55 621.521ZM1632.55 628.521 1670.55 628.521 1670.55 621.521 1632.55 621.521ZM1670.55 630.521 1708.56 630.521 1708.56 621.521 1670.55 621.521ZM1746.56 621.521 1784.56 621.521 1784.56 622.521 1746.56 622.521ZM1784.56 624.521 1822.56 624.521 1822.56 621.521 1784.56 621.521ZM1822.56 623.521 1860.56 623.521 1860.56 621.521 1822.56 621.521ZM1860.56 621.521 1899.56 621.521 1899.56 622.521 1860.56 622.521ZM1899.56 621.521 1937.56 621.521 1937.56 622.521 1899.56 622.521ZM1937.56 621.521 1975.56 621.521 1975.56 622.521 1937.56 622.521ZM1975.56 621.521 2013.5 621.521 2013.5 622.521 1975.56 622.521Z" stroke="#000000" stroke-width="3.4375" stroke-linejoin="round" stroke-miterlimit="10" fill="#C00000"/></g><g><path d="M222.5 622.521 260.509 622.521 260.509 623.521 222.5 623.521ZM260.509 624.521 299.51 624.521 299.51 625.521 260.509 625.521ZM299.51 624.521 337.511 624.521 337.511 625.521 299.51 625.521ZM337.511 623.521 375.513 623.521 375.513 624.521 337.511 624.521ZM375.513 624.521 413.514 624.521 413.514 625.521 375.513 625.521ZM413.514 623.521 451.515 623.521 451.515 624.521 413.514 624.521ZM451.515 623.521 489.516 623.521 489.516 624.521 451.515 624.521ZM527.517 621.521 565.519 621.521 565.519 622.521 527.517 622.521ZM565.519 622.521 603.52 622.521 603.52 623.521 565.519 623.521ZM603.52 622.521 641.521 622.521 641.521 623.521 603.52 623.521ZM641.521 622.521 680.523 622.521 680.523 623.521 641.521 623.521ZM680.523 622.521 718.524 622.521 718.524 623.521 680.523 623.521ZM718.524 622.521 756.525 622.521 756.525 623.521 718.524 623.521ZM756.525 622.521 794.526 622.521 794.526 623.521 756.525 623.521ZM832.527 628.521 870.529 628.521 870.529 623.521 832.527 623.521ZM870.529 627.521 908.53 627.521 908.53 624.521 870.529 624.521ZM908.53 628.521 946.531 628.521 946.531 625.521 908.53 625.521ZM946.531 625.521 984.532 625.521 984.532 622.521 946.531 622.521ZM984.532 624.521 1022.53 624.521 1022.53 622.521 984.532 622.521ZM1022.53 624.521 1060.54 624.521 1060.54 622.521 1022.53 622.521ZM1060.54 624.521 1099.54 624.521 1099.54 622.521 1060.54 622.521ZM1137.54 629.521 1175.54 629.521 1175.54 622.521 1137.54 622.521ZM1175.54 629.521 1213.54 629.521 1213.54 624.521 1175.54 624.521ZM1213.54 629.521 1251.54 629.521 1251.54 624.521 1213.54 624.521ZM1251.54 628.521 1289.54 628.521 1289.54 623.521 1251.54 623.521ZM1289.54 628.521 1327.54 628.521 1327.54 623.521 1289.54 623.521ZM1327.54 629.521 1365.54 629.521 1365.54 623.521 1327.54 623.521ZM1365.54 629.521 1403.55 629.521 1403.55 624.521 1365.54 624.521ZM1441.55 633.521 1479.55 633.521 1479.55 625.521 1441.55 625.521ZM1479.55 630.521 1518.55 630.521 1518.55 625.521 1479.55 625.521ZM1518.55 632.521 1556.55 632.521 1556.55 626.521 1518.55 626.521ZM1556.55 633.521 1594.55 633.521 1594.55 627.521 1556.55 627.521ZM1594.55 633.521 1632.55 633.521 1632.55 628.521 1594.55 628.521ZM1632.55 633.521 1670.55 633.521 1670.55 628.521 1632.55 628.521ZM1670.55 635.521 1708.56 635.521 1708.56 630.521 1670.55 630.521ZM1746.56 626.521 1784.56 626.521 1784.56 621.521 1746.56 621.521ZM1784.56 627.521 1822.56 627.521 1822.56 624.521 1784.56 624.521ZM1822.56 627.521 1860.56 627.521 1860.56 623.521 1822.56 623.521ZM1860.56 625.521 1899.56 625.521 1899.56 622.521 1860.56 622.521ZM1899.56 624.521 1937.56 624.521 1937.56 621.521 1899.56 621.521ZM1937.56 624.521 1975.56 624.521 1975.56 622.521 1937.56 622.521ZM1975.56 624.521 2013.5 624.521 2013.5 622.521 1975.56 622.521Z" stroke="#000000" stroke-width="3.4375" stroke-linejoin="round" stroke-miterlimit="10" fill="#222A35"/></g><g><path d="M222.5 621.5 2013.5 621.5" stroke="#D9D9D9" stroke-width="3.4375" stroke-linejoin="round" stroke-miterlimit="10" fill="none" fill-rule="evenodd"/></g><g><path d="M222.5 704.5 222.5 850.5M489.516 704.5 489.516 850.5M794.526 704.5 794.526 850.5M1099.54 704.5 1099.54 850.5M1403.55 704.5 1403.55 850.5M1708.56 704.5 1708.56 850.5M2013.5 704.5 2013.5 850.5" stroke="#D9D9D9" stroke-width="3.4375" stroke-linejoin="round" stroke-miterlimit="10" fill="none"/></g><g clip-path="url(#clip1)"><path d="M222.5 850.5 222.5 924.5M489.516 850.5 489.516 924.5M794.526 850.5 794.526 924.5M1099.54 850.5 1099.54 924.5M1403.55 850.5 1403.55 924.5M1708.56 850.5 1708.56 924.5M2013.5 850.5 2013.5 924.5" stroke="#D9D9D9" stroke-width="3.4375" stroke-linejoin="round" stroke-miterlimit="10" fill="none"/></g><g><path d="M241.5 460.515 280.509 460.515 318.511 460.515 356.512 460.515 394.513 460.515 432.514 460.515 470.516 460.515M546.518 480.516 584.519 480.516 622.521 480.516 660.522 480.516 699.523 480.516 737.524 480.516 775.526 480.516M851.528 314.51 889.529 314.51 927.531 314.51 965.532 314.51 1003.53 314.51 1041.53 314.51 1080.54 314.51M1156.54 495.5 1194.54 495.5 1232.54 495.5 1270.54 495.5 1308.54 495.5 1346.54 495.5 1384.55 495.5M1460.55 445.515 1499.55 445.515 1537.55 445.515 1575.55 445.515 1613.55 445.515 1651.55 445.515 1689.56 445.515M1765.56 128.5 1803.56 128.5 1841.56 128.5 1879.56 128.5 1918.56 128.5 1956.56 128.5 1994.5 128.5" stroke="#C00000" stroke-width="4.58333" stroke-linecap="round" stroke-linejoin="round" stroke-miterlimit="10" stroke-dasharray="9.16667 9.16667" fill="none"/></g><g><text font-family="Times New Roman,Times New Roman_MSFontService,sans-serif" font-weight="400" font-size="46" transform="matrix(1 0 0 1 99.8737 719)">-200</text></g><g><text font-family="Times New Roman,Times New Roman_MSFontService,sans-serif" font-weight="400" font-size="46" transform="matrix(1 0 0 1 160.97 636)">0</text></g><g><text font-family="Times New Roman,Times New Roman_MSFontService,sans-serif" font-weight="400" font-size="46" transform="matrix(1 0 0 1 115.136 553)">200</text></g><g><text font-family="Times New Roman,Times New Roman_MSFontService,sans-serif" font-weight="400" font-size="46" transform="matrix(1 0 0 1 115.136 470)">400</text></g><g><text font-family="Times New Roman,Times New Roman_MSFontService,sans-serif" font-weight="400" font-size="46" transform="matrix(1 0 0 1 115.136 388)">600</text></g><g><text font-family="Times New Roman,Times New Roman_MSFontService,sans-serif" font-weight="400" font-size="46" transform="matrix(1 0 0 1 115.136 305)">800</text></g><g><text font-family="Times New Roman,Times New Roman_MSFontService,sans-serif" font-weight="400" font-size="46" transform="matrix(1 0 0 1 92.2196 222)">1000</text></g><g><text font-family="Times New Roman,Times New Roman_MSFontService,sans-serif" font-weight="400" font-size="46" transform="matrix(1 0 0 1 92.2196 139)">1200</text></g><g><text font-family="Times New Roman,Times New Roman_MSFontService,sans-serif" font-weight="400" font-size="46" transform="matrix(1 0 0 1 92.2196 57)">1400</text></g><g><text font-family="Times New Roman,Times New Roman_MSFontService,sans-serif" font-weight="400" font-size="41" transform="matrix(6.12323e-17 -1 1 6.12323e-17 256.09 809)">Base</text></g><g><text font-family="Times New Roman,Times New Roman_MSFontService,sans-serif" font-weight="400" font-size="41" transform="matrix(6.12323e-17 -1 1 6.12323e-17 332.282 847)">ARO 2</text></g><g><text font-family="Times New Roman,Times New Roman_MSFontService,sans-serif" font-weight="400" font-size="41" transform="matrix(6.12323e-17 -1 1 6.12323e-17 408.474 847)">ARO 4</text></g><g><text font-family="Times New Roman,Times New Roman_MSFontService,sans-serif" font-weight="400" font-size="41" transform="matrix(6.12323e-17 -1 1 6.12323e-17 484.666 847)">ARO 6</text></g><g><text font-family="Times New Roman,Times New Roman_MSFontService,sans-serif" font-weight="400" font-size="41" transform="matrix(6.12323e-17 -1 1 6.12323e-17 560.857 809)">Base</text></g><g><text font-family="Times New Roman,Times New Roman_MSFontService,sans-serif" font-weight="400" font-size="41" transform="matrix(6.12323e-17 -1 1 6.12323e-17 637.049 847)">ARO 2</text></g><g><text font-family="Times New Roman,Times New Roman_MSFontService,sans-serif" font-weight="400" font-size="41" transform="matrix(6.12323e-17 -1 1 6.12323e-17 713.241 847)">ARO 4</text></g><g><text font-family="Times New Roman,Times New Roman_MSFontService,sans-serif" font-weight="400" font-size="41" transform="matrix(6.12323e-17 -1 1 6.12323e-17 789.433 847)">ARO 6</text></g><g><text font-family="Times New Roman,Times New Roman_MSFontService,sans-serif" font-weight="400" font-size="41" transform="matrix(6.12323e-17 -1 1 6.12323e-17 865.624 809)">Base</text></g><g><text font-family="Times New Roman,Times New Roman_MSFontService,sans-serif" font-weight="400" font-size="41" transform="matrix(6.12323e-17 -1 1 6.12323e-17 941.816 847)">ARO 2</text></g><g><text font-family="Times New Roman,Times New Roman_MSFontService,sans-serif" font-weight="400" font-size="41" transform="matrix(6.12323e-17 -1 1 6.12323e-17 1018.01 847)">ARO 4</text></g><g><text font-family="Times New Roman,Times New Roman_MSFontService,sans-serif" font-weight="400" font-size="41" transform="matrix(6.12323e-17 -1 1 6.12323e-17 1094.2 847)">ARO 6</text></g><g><text font-family="Times New Roman,Times New Roman_MSFontService,sans-serif" font-weight="400" font-size="41" transform="matrix(6.12323e-17 -1 1 6.12323e-17 1170.39 809)">Base</text></g><g><text font-family="Times New Roman,Times New Roman_MSFontService,sans-serif" font-weight="400" font-size="41" transform="matrix(6.12323e-17 -1 1 6.12323e-17 1246.58 847)">ARO 2</text></g><g><text font-family="Times New Roman,Times New Roman_MSFontService,sans-serif" font-weight="400" font-size="41" transform="matrix(6.12323e-17 -1 1 6.12323e-17 1322.77 847)">ARO 4</text></g><g><text font-family="Times New Roman,Times New Roman_MSFontService,sans-serif" font-weight="400" font-size="41" transform="matrix(6.12323e-17 -1 1 6.12323e-17 1398.97 847)">ARO 6</text></g><g><text font-family="Times New Roman,Times New Roman_MSFontService,sans-serif" font-weight="400" font-size="41" transform="matrix(6.12323e-17 -1 1 6.12323e-17 1475.16 809)">Base</text></g><g><text font-family="Times New Roman,Times New Roman_MSFontService,sans-serif" font-weight="400" font-size="41" transform="matrix(6.12323e-17 -1 1 6.12323e-17 1551.35 847)">ARO 2</text></g><g><text font-family="Times New Roman,Times New Roman_MSFontService,sans-serif" font-weight="400" font-size="41" transform="matrix(6.12323e-17 -1 1 6.12323e-17 1627.54 847)">ARO 4</text></g><g><text font-family="Times New Roman,Times New Roman_MSFontService,sans-serif" font-weight="400" font-size="41" transform="matrix(6.12323e-17 -1 1 6.12323e-17 1703.73 847)">ARO 6</text></g><g><text font-family="Times New Roman,Times New Roman_MSFontService,sans-serif" font-weight="400" font-size="41" transform="matrix(6.12323e-17 -1 1 6.12323e-17 1779.93 809)">Base</text></g><g><text font-family="Times New Roman,Times New Roman_MSFontService,sans-serif" font-weight="400" font-size="41" transform="matrix(6.12323e-17 -1 1 6.12323e-17 1856.12 847)">ARO 2</text></g><g><text font-family="Times New Roman,Times New Roman_MSFontService,sans-serif" font-weight="400" font-size="41" transform="matrix(6.12323e-17 -1 1 6.12323e-17 1932.31 847)">ARO 4</text></g><g><text font-family="Times New Roman,Times New Roman_MSFontService,sans-serif" font-weight="400" font-size="41" transform="matrix(6.12323e-17 -1 1 6.12323e-17 2008.5 847)">ARO 6</text></g><g><text font-family="Times New Roman,Times New Roman_MSFontService,sans-serif" font-weight="400" font-size="41" transform="matrix(1 0 0 1 281.162 912)">Region 1</text></g><g><text font-family="Times New Roman,Times New Roman_MSFontService,sans-serif" font-weight="400" font-size="41" transform="matrix(1 0 0 1 566.881 912)">Region 2</text></g><g><text font-family="Times New Roman,Times New Roman_MSFontService,sans-serif" font-weight="400" font-size="41" transform="matrix(1 0 0 1 871.648 912)">Region 3</text></g><g><text font-family="Times New Roman,Times New Roman_MSFontService,sans-serif" font-weight="400" font-size="41" transform="matrix(1 0 0 1 1176.41 912)">Region 4</text></g><g><text font-family="Times New Roman,Times New Roman_MSFontService,sans-serif" font-weight="400" font-size="41" transform="matrix(1 0 0 1 1486.34 912)">Region5</text></g><g><text font-family="Times New Roman,Times New Roman_MSFontService,sans-serif" font-weight="400" font-size="41" transform="matrix(1 0 0 1 1785.95 912)">Region 6</text></g><g><text font-family="Times New Roman,Times New Roman_MSFontService,sans-serif" font-weight="400" font-size="46" transform="matrix(6.12323e-17 -1 1 6.12323e-17 68.7532 560)">Electricity (in TWh)</text></g><g><rect x="193" y="21" width="1696" height="116" fill="#FFFFFF"/></g><g><rect x="254.5" y="38.5" width="116" height="23" stroke="#000000" stroke-width="3.4375" stroke-linejoin="round" stroke-miterlimit="10" fill="#FFFF00"/></g><g><text font-family="Times New Roman,Times New Roman_MSFontService,sans-serif" font-weight="400" font-size="46" transform="matrix(1 0 0 1 383.079 64)">Nuclear</text></g><g><rect x="820.5" y="38.5" width="115" height="23" stroke="#000000" stroke-width="3.4375" stroke-linejoin="round" stroke-miterlimit="10" fill="#70AD47"/></g><g><text font-family="Times New Roman,Times New Roman_MSFontService,sans-serif" font-weight="400" font-size="46" transform="matrix(1 0 0 1 948.584 64)">Biomass</text></g><g><rect x="1385.5" y="38.5" width="116" height="23" stroke="#000000" stroke-width="3.4375" stroke-linejoin="round" stroke-miterlimit="10" fill="#00B0F0"/></g><g><text font-family="Times New Roman,Times New Roman_MSFontService,sans-serif" font-weight="400" font-size="46" transform="matrix(1 0 0 1 1514.09 64)">ROR</text></g><g><rect x="254.5" y="96.5001" width="116" height="23" stroke="#000000" stroke-width="3.4375" stroke-linejoin="round" stroke-miterlimit="10" fill="#002060"/></g><g><text font-family="Times New Roman,Times New Roman_MSFontService,sans-serif" font-weight="400" font-size="46" transform="matrix(1 0 0 1 383.079 122)">Reservoir</text></g><g><rect x="820.5" y="96.5001" width="115" height="23" stroke="#000000" stroke-width="3.4375" stroke-linejoin="round" stroke-miterlimit="10" fill="#4472C4"/></g><g><text font-family="Times New Roman,Times New Roman_MSFontService,sans-serif" font-weight="400" font-size="46" transform="matrix(1 0 0 1 948.584 122)">Onshore Wind</text></g><g><rect x="1385.5" y="96.5001" width="116" height="23" stroke="#000000" stroke-width="3.4375" stroke-linejoin="round" stroke-miterlimit="10" fill="#9DC3E6"/></g><g><text font-family="Times New Roman,Times New Roman_MSFontService,sans-serif" font-weight="400" font-size="46" transform="matrix(1 0 0 1 1514.09 122)">Offshore Wind</text></g></g></svg>