<svg width="2273" height="1119" xmlns="http://www.w3.org/2000/svg" xmlns:xlink="http://www.w3.org/1999/xlink" xml:space="preserve" overflow="hidden"><defs><clipPath id="clip0"><rect x="5994" y="410" width="2273" height="1119"/></clipPath></defs><g clip-path="url(#clip0)" transform="translate(-5994 -410)"><rect x="5994" y="410" width="2273" height="1119" fill="#FFFFFF"/><g><path d="M6193.5 1266.54 8210.5 1266.54M6193.5 1107.54 8210.5 1107.54M6193.5 947.531 8210.5 947.531M6193.5 788.526 8210.5 788.526M6193.5 629.521 8210.5 629.521M6193.5 470.5 8210.5 470.5" stroke="#D9D9D9" stroke-width="3.4375" stroke-linejoin="round" stroke-miterlimit="10" fill="none"/></g><g><path d="M6265.71 1258.54 6409.71 1258.54 6409.71 1425.5 6265.71 1425.5ZM6553.72 1246.54 6697.72 1246.54 6697.72 1425.5 6553.72 1425.5ZM6841.72 1252.54 6985.73 1252.54 6985.73 1425.5 6841.72 1425.5ZM7129.73 1214.54 7273.74 1214.54 7273.74 1425.5 7129.73 1425.5ZM7417.74 1204.54 7562.75 1204.54 7562.75 1425.5 7417.74 1425.5ZM7706.75 1220.54 7850.76 1220.54 7850.76 1425.5 7706.75 1425.5ZM7994.76 1239.54 8138.77 1239.54 8138.77 1425.5 7994.76 1425.5Z" stroke="#000000" stroke-width="3.4375" stroke-linejoin="round" stroke-miterlimit="10" fill="#4472C4"/></g><g><path d="M6265.71 1159.54 6409.71 1159.54 6409.71 1258.54 6265.71 1258.54ZM6553.72 1170.54 6697.72 1170.54 6697.72 1246.54 6553.72 1246.54ZM6841.72 1175.54 6985.73 1175.54 6985.73 1252.54 6841.72 1252.54ZM7129.73 1119.54 7273.74 1119.54 7273.74 1214.54 7129.73 1214.54ZM7417.74 1094.54 7562.75 1094.54 7562.75 1204.54 7417.74 1204.54ZM7706.75 1108.54 7850.76 1108.54 7850.76 1220.54 7706.75 1220.54ZM7994.76 1128.54 8138.77 1128.54 8138.77 1239.54 7994.76 1239.54Z" stroke="#000000" stroke-width="3.4375" stroke-linejoin="round" stroke-miterlimit="10" fill="#9DC3E6"/></g><g><path d="M6265.71 1068.54 6409.71 1068.54 6409.71 1159.54 6265.71 1159.54ZM6553.72 1066.54 6697.72 1066.54 6697.72 1170.54 6553.72 1170.54ZM6841.72 1047.53 6985.73 1047.53 6985.73 1175.54 6841.72 1175.54ZM7129.73 1012.53 7273.74 1012.53 7273.74 1119.54 7129.73 1119.54ZM7417.74 999.533 7562.75 999.533 7562.75 1094.54 7417.74 1094.54ZM7706.75 992.533 7850.76 992.533 7850.76 1108.54 7706.75 1108.54ZM7994.76 991.533 8138.77 991.533 8138.77 1128.54 7994.76 1128.54Z" stroke="#000000" stroke-width="3.4375" stroke-linejoin="round" stroke-miterlimit="10" fill="#FFC000"/></g><g><path d="M6265.71 1027.53 6409.71 1027.53 6409.71 1068.54 6265.71 1068.54ZM6553.72 1022.53 6697.72 1022.53 6697.72 1066.54 6553.72 1066.54ZM6841.72 998.533 6985.73 998.533 6985.73 1047.53 6841.72 1047.53ZM7129.73 974.532 7273.74 974.532 7273.74 1012.53 7129.73 1012.53ZM7417.74 964.532 7562.75 964.532 7562.75 999.533 7417.74 999.533ZM7706.75 955.531 7850.76 955.531 7850.76 992.533 7706.75 992.533ZM7994.76 950.531 8138.77 950.531 8138.77 991.533 7994.76 991.533Z" stroke="#000000" stroke-width="3.4375" stroke-linejoin="round" stroke-miterlimit="10" fill="#FF0000"/></g><g><path d="M6553.72 1020.53 6697.72 1020.53 6697.72 1022.53 6553.72 1022.53ZM6841.72 960.532 6985.73 960.532 6985.73 998.533 6841.72 998.533ZM7129.73 876.529 7273.74 876.529 7273.74 974.532 7129.73 974.532ZM7417.74 830.527 7562.75 830.527 7562.75 964.532 7417.74 964.532ZM7706.75 807.527 7850.76 807.527 7850.76 955.531 7706.75 955.531ZM7994.76 802.526 8138.77 802.526 8138.77 950.531 7994.76 950.531Z" stroke="#000000" stroke-width="3.4375" stroke-linejoin="round" stroke-miterlimit="10" fill="#7030A0"/></g><g><path d="M6265.71 1012.53 6409.71 1012.53 6409.71 1027.53 6265.71 1027.53ZM6553.72 1001.53 6697.72 1001.53 6697.72 1020.53 6553.72 1020.53ZM6841.72 942.531 6985.73 942.531 6985.73 960.532 6841.72 960.532ZM7129.73 862.528 7273.74 862.528 7273.74 876.529 7129.73 876.529ZM7417.74 816.527 7562.75 816.527 7562.75 830.527 7417.74 830.527ZM7706.75 793.526 7850.76 793.526 7850.76 807.527 7706.75 807.527ZM7994.76 788.526 8138.77 788.526 8138.77 802.526 7994.76 802.526Z" stroke="#000000" stroke-width="3.4375" stroke-linejoin="round" stroke-miterlimit="10"/></g><g><path d="M6265.71 999.533 6409.71 999.533 6409.71 1012.53 6265.71 1012.53ZM6553.72 953.531 6697.72 953.531 6697.72 1001.53 6553.72 1001.53ZM6841.72 848.528 6985.73 848.528 6985.73 942.531 6841.72 942.531ZM7129.73 754.525 7273.74 754.525 7273.74 862.528 7129.73 862.528ZM7417.74 700.523 7562.75 700.523 7562.75 816.527 7417.74 816.527ZM7706.75 666.522 7850.76 666.522 7850.76 793.526 7706.75 793.526ZM7994.76 658.522 8138.77 658.522 8138.77 788.526 7994.76 788.526Z" stroke="#000000" stroke-width="3.4375" stroke-linejoin="round" stroke-miterlimit="10" fill="#CC3300"/></g><g><path d="M6265.71 942.531 6409.71 942.531 6409.71 999.533 6265.71 999.533ZM6553.72 897.53 6697.72 897.53 6697.72 953.531 6553.72 953.531ZM6841.72 792.526 6985.73 792.526 6985.73 848.528 6841.72 848.528ZM7129.73 698.523 7273.74 698.523 7273.74 754.525 7129.73 754.525ZM7417.74 644.521 7562.75 644.521 7562.75 700.523 7417.74 700.523ZM7706.75 609.52 7850.76 609.52 7850.76 666.522 7706.75 666.522ZM7994.76 602.52 8138.77 602.52 8138.77 658.522 7994.76 658.522Z" stroke="#000000" stroke-width="3.4375" stroke-linejoin="round" stroke-miterlimit="10" fill="#7F6000"/></g><g><path d="M6193.5 1425.5 8210.5 1425.5" stroke="#D9D9D9" stroke-width="3.4375" stroke-linejoin="round" stroke-miterlimit="10" fill="none" fill-rule="evenodd"/></g><g><text font-family="Times New Roman,Times New Roman_MSFontService,sans-serif" font-weight="400" font-size="46" transform="matrix(1 0 0 1 6131.87 1440)">0</text></g><g><text font-family="Times New Roman,Times New Roman_MSFontService,sans-serif" font-weight="400" font-size="46" transform="matrix(1 0 0 1 6108.95 1281)">50</text></g><g><text font-family="Times New Roman,Times New Roman_MSFontService,sans-serif" font-weight="400" font-size="46" transform="matrix(1 0 0 1 6086.03 1122)">100</text></g><g><text font-family="Times New Roman,Times New Roman_MSFontService,sans-serif" font-weight="400" font-size="46" transform="matrix(1 0 0 1 6086.03 962)">150</text></g><g><text font-family="Times New Roman,Times New Roman_MSFontService,sans-serif" font-weight="400" font-size="46" transform="matrix(1 0 0 1 6086.03 803)">200</text></g><g><text font-family="Times New Roman,Times New Roman_MSFontService,sans-serif" font-weight="400" font-size="46" transform="matrix(1 0 0 1 6086.03 644)">250</text></g><g><text font-family="Times New Roman,Times New Roman_MSFontService,sans-serif" font-weight="400" font-size="46" transform="matrix(1 0 0 1 6086.03 485)">300</text></g><g><text font-family="Times New Roman,Times New Roman_MSFontService,sans-serif" font-weight="400" font-size="46" transform="matrix(1 0 0 1 6293.28 1494)">Base</text></g><g><text font-family="Times New Roman,Times New Roman_MSFontService,sans-serif" font-weight="400" font-size="46" transform="matrix(1 0 0 1 6560.38 1494)">ARO 1</text></g><g><text font-family="Times New Roman,Times New Roman_MSFontService,sans-serif" font-weight="400" font-size="46" transform="matrix(1 0 0 1 6848.48 1494)">ARO 2</text></g><g><text font-family="Times New Roman,Times New Roman_MSFontService,sans-serif" font-weight="400" font-size="46" transform="matrix(1 0 0 1 7136.59 1494)">ARO 3</text></g><g><text font-family="Times New Roman,Times New Roman_MSFontService,sans-serif" font-weight="400" font-size="46" transform="matrix(1 0 0 1 7424.7 1494)">ARO 4</text></g><g><text font-family="Times New Roman,Times New Roman_MSFontService,sans-serif" font-weight="400" font-size="46" transform="matrix(1 0 0 1 7712.81 1494)">ARO 5</text></g><g><text font-family="Times New Roman,Times New Roman_MSFontService,sans-serif" font-weight="400" font-size="46" transform="matrix(1 0 0 1 8000.92 1494)">ARO 6</text></g><g><text font-family="Times New Roman,Times New Roman_MSFontService,sans-serif" font-weight="400" font-size="46" transform="matrix(6.12323e-17 -1 1 6.12323e-17 6072.97 1155)">Costs (in Billion EUR)</text></g><g><rect x="6193" y="425" width="507" height="455" fill="#FFFFFF"/></g><g><rect x="6257.5" y="442.5" width="23" height="23" stroke="#000000" stroke-width="3.4375" stroke-linejoin="round" stroke-miterlimit="10" fill="#4472C4"/></g><g><text font-family="Times New Roman,Times New Roman_MSFontService,sans-serif" font-weight="400" font-size="46" transform="matrix(1 0 0 1 6289.9 468)">Onshore Wind</text></g><g><rect x="6257.5" y="499.5" width="23" height="23" stroke="#000000" stroke-width="3.4375" stroke-linejoin="round" stroke-miterlimit="10" fill="#9DC3E6"/></g><g><text font-family="Times New Roman,Times New Roman_MSFontService,sans-serif" font-weight="400" font-size="46" transform="matrix(1 0 0 1 6289.9 525)">Offshore Wind</text></g><g><rect x="6257.5" y="556.5" width="23" height="22" stroke="#000000" stroke-width="3.4375" stroke-linejoin="round" stroke-miterlimit="10" fill="#FFC000"/></g><g><text font-family="Times New Roman,Times New Roman_MSFontService,sans-serif" font-weight="400" font-size="46" transform="matrix(1 0 0 1 6289.9 582)">Solar PV</text></g><g><rect x="6257.5" y="612.5" width="23" height="23.0001" stroke="#000000" stroke-width="3.4375" stroke-linejoin="round" stroke-miterlimit="10" fill="#FF0000"/></g><g><text font-family="Times New Roman,Times New Roman_MSFontService,sans-serif" font-weight="400" font-size="46" transform="matrix(1 0 0 1 6289.9 639)">Battery Storage</text></g><g><rect x="6257.5" y="669.5" width="23" height="23.0001" stroke="#000000" stroke-width="3.4375" stroke-linejoin="round" stroke-miterlimit="10" fill="#7030A0"/></g><g><text font-family="Times New Roman,Times New Roman_MSFontService,sans-serif" font-weight="400" font-size="46" transform="matrix(1 0 0 1 6289.9 695)">Hydrogen Storage</text></g><g><rect x="6257.5" y="726.5" width="23" height="23.0001" stroke="#000000" stroke-width="3.4375" stroke-linejoin="round" stroke-miterlimit="10"/></g><g><text font-family="Times New Roman,Times New Roman_MSFontService,sans-serif" font-weight="400" font-size="46" transform="matrix(1 0 0 1 6289.9 752)">Line</text></g><g><rect x="6257.5" y="783.5" width="23" height="23.0001" stroke="#000000" stroke-width="3.4375" stroke-linejoin="round" stroke-miterlimit="10" fill="#CC3300"/></g><g><text font-family="Times New Roman,Times New Roman_MSFontService,sans-serif" font-weight="400" font-size="46" transform="matrix(1 0 0 1 6289.9 809)">Load Flexibility</text></g><g><rect x="6257.5" y="840.5" width="23" height="22" stroke="#000000" stroke-width="3.4375" stroke-linejoin="round" stroke-miterlimit="10" fill="#7F6000"/></g><g><text font-family="Times New Roman,Times New Roman_MSFontService,sans-serif" font-weight="400" font-size="46" transform="matrix(1 0 0 1 6289.9 866)">Nuclear &amp; Biomass</text></g></g></svg>