<svg width="2121" height="1038" xmlns="http://www.w3.org/2000/svg" xmlns:xlink="http://www.w3.org/1999/xlink" xml:space="preserve" overflow="hidden"><defs><clipPath id="clip0"><rect x="5813" y="1946" width="2121" height="1038"/></clipPath></defs><g clip-path="url(#clip0)" transform="translate(-5813 -1946)"><rect x="5813" y="1946" width="2121" height="1038" fill="#FFFFFF"/><g><path d="M6202.5 2747.59 7871.5 2747.59M6202.5 2640.59 7871.5 2640.59M6202.5 2534.58 7871.5 2534.58M6202.5 2427.58 7871.5 2427.58M6202.5 2320.58 7871.5 2320.58M6202.5 2214.57 7871.5 2214.57M6202.5 2107.57 7871.5 2107.57M6202.5 2001.5 7871.5 2001.5" stroke="#D9D9D9" stroke-width="3.4375" stroke-linejoin="round" stroke-miterlimit="10" fill="none"/></g><g><path d="M6441.71 2001.5 6441.71 2853.5M6679.72 2001.5 6679.72 2853.5M6918.73 2001.5 6918.73 2853.5M7156.73 2001.5 7156.73 2853.5M7394.74 2001.5 7394.74 2853.5M7633.75 2001.5 7633.75 2853.5M7871.5 2001.5 7871.5 2853.5" stroke="#D9D9D9" stroke-width="3.4375" stroke-linejoin="round" stroke-miterlimit="10" fill="none"/></g><g><path d="M0 0 0.000360892 852" stroke="#BFBFBF" stroke-width="3.4375" stroke-linejoin="round" stroke-miterlimit="10" fill="none" fill-rule="evenodd" transform="matrix(1 0 0 -1 6202.5 2853.5)"/></g><g><path d="M6202.5 2853.5 7871.5 2853.5" stroke="#BFBFBF" stroke-width="3.4375" stroke-linejoin="round" stroke-miterlimit="10" fill="none" fill-rule="evenodd"/></g><g><path d="M6322.5 2791.5 6560.72 2778.59 6798.72 2633.59 7037.73 2404.58 7275.74 2269.57 7514.75 2209.57 7752.5 2204.5" stroke="#000000" stroke-width="6.875" stroke-linecap="round" stroke-linejoin="round" stroke-miterlimit="10" fill="none"/></g><g><path d="M6333.31 2791.12C6333.31 2797.2 6328.39 2802.12 6322.31 2802.12 6316.24 2802.12 6311.31 2797.2 6311.31 2791.12 6311.31 2785.05 6316.24 2780.12 6322.31 2780.12 6328.39 2780.12 6333.31 2785.05 6333.31 2791.12Z" stroke="#5B9BD5" stroke-width="3.4375" stroke-linejoin="round" stroke-miterlimit="10"/><path d="M6571.31 2778.12C6571.31 2784.2 6566.39 2789.12 6560.31 2789.12 6554.24 2789.12 6549.31 2784.2 6549.31 2778.12 6549.31 2772.05 6554.24 2767.12 6560.31 2767.12 6566.39 2767.12 6571.31 2772.05 6571.31 2778.12Z" stroke="#5B9BD5" stroke-width="3.4375" stroke-linejoin="round" stroke-miterlimit="10"/><path d="M6810.31 2633.12C6810.31 2639.2 6805.39 2644.12 6799.31 2644.12 6793.24 2644.12 6788.31 2639.2 6788.31 2633.12 6788.31 2627.05 6793.24 2622.12 6799.31 2622.12 6805.39 2622.12 6810.31 2627.05 6810.31 2633.12Z" stroke="#5B9BD5" stroke-width="3.4375" stroke-linejoin="round" stroke-miterlimit="10"/><path d="M7048.31 2404.12C7048.31 2410.2 7043.39 2415.12 7037.31 2415.12 7031.24 2415.12 7026.31 2410.2 7026.31 2404.12 7026.31 2398.05 7031.24 2393.12 7037.31 2393.12 7043.39 2393.12 7048.31 2398.05 7048.31 2404.12Z" stroke="#5B9BD5" stroke-width="3.4375" stroke-linejoin="round" stroke-miterlimit="10"/><path d="M7286.31 2269.12C7286.31 2275.2 7281.39 2280.12 7275.31 2280.12 7269.24 2280.12 7264.31 2275.2 7264.31 2269.12 7264.31 2263.05 7269.24 2258.12 7275.31 2258.12 7281.39 2258.12 7286.31 2263.05 7286.31 2269.12Z" stroke="#5B9BD5" stroke-width="3.4375" stroke-linejoin="round" stroke-miterlimit="10"/><path d="M7525.31 2209.12C7525.31 2215.2 7520.39 2220.12 7514.31 2220.12 7508.24 2220.12 7503.31 2215.2 7503.31 2209.12 7503.31 2203.05 7508.24 2198.12 7514.31 2198.12 7520.39 2198.12 7525.31 2203.05 7525.31 2209.12Z" stroke="#5B9BD5" stroke-width="3.4375" stroke-linejoin="round" stroke-miterlimit="10"/><path d="M7763.31 2204.12C7763.31 2210.2 7758.39 2215.12 7752.31 2215.12 7746.24 2215.12 7741.31 2210.2 7741.31 2204.12 7741.31 2198.05 7746.24 2193.12 7752.31 2193.12 7758.39 2193.12 7763.31 2198.05 7763.31 2204.12Z" stroke="#5B9BD5" stroke-width="3.4375" stroke-linejoin="round" stroke-miterlimit="10"/></g><g><path d="M6322.5 2853.5 6560.72 2846.59 6798.72 2706.59 7037.73 2462.58 7275.74 2322.58 7514.75 2264.5 7752.5 2265.57" stroke="#7030A0" stroke-width="6.875" stroke-linecap="round" stroke-linejoin="round" stroke-miterlimit="10" fill="none"/></g><g><path d="M6333.31 2853.12C6333.31 2859.2 6328.39 2864.12 6322.31 2864.12 6316.24 2864.12 6311.31 2859.2 6311.31 2853.12 6311.31 2847.05 6316.24 2842.12 6322.31 2842.12 6328.39 2842.12 6333.31 2847.05 6333.31 2853.12Z" stroke="#7030A0" stroke-width="3.4375" stroke-linejoin="round" stroke-miterlimit="10" fill="#CC0099"/><path d="M6571.31 2846.12C6571.31 2852.2 6566.39 2857.12 6560.31 2857.12 6554.24 2857.12 6549.31 2852.2 6549.31 2846.12 6549.31 2840.05 6554.24 2835.12 6560.31 2835.12 6566.39 2835.12 6571.31 2840.05 6571.31 2846.12Z" stroke="#7030A0" stroke-width="3.4375" stroke-linejoin="round" stroke-miterlimit="10" fill="#CC0099"/><path d="M6810.31 2706.12C6810.31 2712.2 6805.39 2717.12 6799.31 2717.12 6793.24 2717.12 6788.31 2712.2 6788.31 2706.12 6788.31 2700.05 6793.24 2695.12 6799.31 2695.12 6805.39 2695.12 6810.31 2700.05 6810.31 2706.12Z" stroke="#7030A0" stroke-width="3.4375" stroke-linejoin="round" stroke-miterlimit="10" fill="#CC0099"/><path d="M7048.31 2462.12C7048.31 2468.2 7043.39 2473.12 7037.31 2473.12 7031.24 2473.12 7026.31 2468.2 7026.31 2462.12 7026.31 2456.05 7031.24 2451.12 7037.31 2451.12 7043.39 2451.12 7048.31 2456.05 7048.31 2462.12Z" stroke="#7030A0" stroke-width="3.4375" stroke-linejoin="round" stroke-miterlimit="10" fill="#CC0099"/><path d="M7286.31 2322.12C7286.31 2328.2 7281.39 2333.12 7275.31 2333.12 7269.24 2333.12 7264.31 2328.2 7264.31 2322.12 7264.31 2316.05 7269.24 2311.12 7275.31 2311.12 7281.39 2311.12 7286.31 2316.05 7286.31 2322.12Z" stroke="#7030A0" stroke-width="3.4375" stroke-linejoin="round" stroke-miterlimit="10" fill="#CC0099"/><path d="M7525.31 2264.12C7525.31 2270.2 7520.39 2275.12 7514.31 2275.12 7508.24 2275.12 7503.31 2270.2 7503.31 2264.12 7503.31 2258.05 7508.24 2253.12 7514.31 2253.12 7520.39 2253.12 7525.31 2258.05 7525.31 2264.12Z" stroke="#7030A0" stroke-width="3.4375" stroke-linejoin="round" stroke-miterlimit="10" fill="#CC0099"/><path d="M7763.31 2265.12C7763.31 2271.2 7758.39 2276.12 7752.31 2276.12 7746.24 2276.12 7741.31 2271.2 7741.31 2265.12 7741.31 2259.05 7746.24 2254.12 7752.31 2254.12 7758.39 2254.12 7763.31 2259.05 7763.31 2265.12Z" stroke="#7030A0" stroke-width="3.4375" stroke-linejoin="round" stroke-miterlimit="10" fill="#CC0099"/></g><g><path d="M6322.5 2791.59 6560.72 2786.59 6798.72 2780.5 7037.73 2795.59 7275.74 2801.5 7514.75 2798.59 7752.5 2792.59" stroke="#C00000" stroke-width="6.875" stroke-linecap="round" stroke-linejoin="round" stroke-miterlimit="10" fill="none"/></g><g><path d="M6333.31 2791.12C6333.31 2797.2 6328.39 2802.12 6322.31 2802.12 6316.24 2802.12 6311.31 2797.2 6311.31 2791.12 6311.31 2785.05 6316.24 2780.12 6322.31 2780.12 6328.39 2780.12 6333.31 2785.05 6333.31 2791.12Z" stroke="#C00000" stroke-width="3.4375" stroke-linejoin="round" stroke-miterlimit="10" fill="#FF0000"/><path d="M6571.31 2786.12C6571.31 2792.2 6566.39 2797.12 6560.31 2797.12 6554.24 2797.12 6549.31 2792.2 6549.31 2786.12 6549.31 2780.05 6554.24 2775.12 6560.31 2775.12 6566.39 2775.12 6571.31 2780.05 6571.31 2786.12Z" stroke="#C00000" stroke-width="3.4375" stroke-linejoin="round" stroke-miterlimit="10" fill="#FF0000"/><path d="M6810.31 2780.12C6810.31 2786.2 6805.39 2791.12 6799.31 2791.12 6793.24 2791.12 6788.31 2786.2 6788.31 2780.12 6788.31 2774.05 6793.24 2769.12 6799.31 2769.12 6805.39 2769.12 6810.31 2774.05 6810.31 2780.12Z" stroke="#C00000" stroke-width="3.4375" stroke-linejoin="round" stroke-miterlimit="10" fill="#FF0000"/><path d="M7048.31 2795.12C7048.31 2801.2 7043.39 2806.12 7037.31 2806.12 7031.24 2806.12 7026.31 2801.2 7026.31 2795.12 7026.31 2789.05 7031.24 2784.12 7037.31 2784.12 7043.39 2784.12 7048.31 2789.05 7048.31 2795.12Z" stroke="#C00000" stroke-width="3.4375" stroke-linejoin="round" stroke-miterlimit="10" fill="#FF0000"/><path d="M7286.31 2801.12C7286.31 2807.2 7281.39 2812.12 7275.31 2812.12 7269.24 2812.12 7264.31 2807.2 7264.31 2801.12 7264.31 2795.05 7269.24 2790.12 7275.31 2790.12 7281.39 2790.12 7286.31 2795.05 7286.31 2801.12Z" stroke="#C00000" stroke-width="3.4375" stroke-linejoin="round" stroke-miterlimit="10" fill="#FF0000"/><path d="M7525.31 2798.12C7525.31 2804.2 7520.39 2809.12 7514.31 2809.12 7508.24 2809.12 7503.31 2804.2 7503.31 2798.12 7503.31 2792.05 7508.24 2787.12 7514.31 2787.12 7520.39 2787.12 7525.31 2792.05 7525.31 2798.12Z" stroke="#C00000" stroke-width="3.4375" stroke-linejoin="round" stroke-miterlimit="10" fill="#FF0000"/><path d="M7763.31 2792.12C7763.31 2798.2 7758.39 2803.12 7752.31 2803.12 7746.24 2803.12 7741.31 2798.2 7741.31 2792.12 7741.31 2786.05 7746.24 2781.12 7752.31 2781.12 7758.39 2781.12 7763.31 2786.05 7763.31 2792.12Z" stroke="#C00000" stroke-width="3.4375" stroke-linejoin="round" stroke-miterlimit="10" fill="#FF0000"/></g><g><text font-family="Times New Roman,Times New Roman_MSFontService,sans-serif" font-weight="400" font-size="46" transform="matrix(1 0 0 1 6045.53 2868)">0.00%</text></g><g><text font-family="Times New Roman,Times New Roman_MSFontService,sans-serif" font-weight="400" font-size="46" transform="matrix(1 0 0 1 6045.53 2762)">0.10%</text></g><g><text font-family="Times New Roman,Times New Roman_MSFontService,sans-serif" font-weight="400" font-size="46" transform="matrix(1 0 0 1 6045.53 2655)">0.20%</text></g><g><text font-family="Times New Roman,Times New Roman_MSFontService,sans-serif" font-weight="400" font-size="46" transform="matrix(1 0 0 1 6045.53 2549)">0.30%</text></g><g><text font-family="Times New Roman,Times New Roman_MSFontService,sans-serif" font-weight="400" font-size="46" transform="matrix(1 0 0 1 6045.53 2442)">0.40%</text></g><g><text font-family="Times New Roman,Times New Roman_MSFontService,sans-serif" font-weight="400" font-size="46" transform="matrix(1 0 0 1 6045.53 2335)">0.50%</text></g><g><text font-family="Times New Roman,Times New Roman_MSFontService,sans-serif" font-weight="400" font-size="46" transform="matrix(1 0 0 1 6045.53 2229)">0.60%</text></g><g><text font-family="Times New Roman,Times New Roman_MSFontService,sans-serif" font-weight="400" font-size="46" transform="matrix(1 0 0 1 6045.53 2122)">0.70%</text></g><g><text font-family="Times New Roman,Times New Roman_MSFontService,sans-serif" font-weight="400" font-size="46" transform="matrix(1 0 0 1 6045.53 2016)">0.80%</text></g><g><text font-family="Times New Roman,Times New Roman_MSFontService,sans-serif" font-weight="400" font-size="46" transform="matrix(1 0 0 1 6277.58 2922)">Base</text></g><g><text font-family="Times New Roman,Times New Roman_MSFontService,sans-serif" font-weight="400" font-size="46" transform="matrix(1 0 0 1 6495.01 2922)">ARO 1</text></g><g><text font-family="Times New Roman,Times New Roman_MSFontService,sans-serif" font-weight="400" font-size="46" transform="matrix(1 0 0 1 6733.45 2922)">ARO 2</text></g><g><text font-family="Times New Roman,Times New Roman_MSFontService,sans-serif" font-weight="400" font-size="46" transform="matrix(1 0 0 1 6971.89 2922)">ARO 3</text></g><g><text font-family="Times New Roman,Times New Roman_MSFontService,sans-serif" font-weight="400" font-size="46" transform="matrix(1 0 0 1 7210.33 2922)">ARO 4</text></g><g><text font-family="Times New Roman,Times New Roman_MSFontService,sans-serif" font-weight="400" font-size="46" transform="matrix(1 0 0 1 7448.77 2922)">ARO 5</text></g><g><text font-family="Times New Roman,Times New Roman_MSFontService,sans-serif" font-weight="400" font-size="46" transform="matrix(1 0 0 1 7687.21 2922)">ARO 6</text></g><g><text font-family="Times New Roman,Times New Roman_MSFontService,sans-serif" font-weight="400" font-size="46" transform="matrix(6.12323e-17 -1 1 6.12323e-17 5937.61 2738)">Storage Capacity in Percent of Total </text></g><g><text font-family="Times New Roman,Times New Roman_MSFontService,sans-serif" font-weight="400" font-size="46" transform="matrix(6.12323e-17 -1 1 6.12323e-17 5989.61 2553)">Energy Demand </text></g><g><rect x="6211" y="2009" width="865" height="179" fill="#FFFFFF"/></g><g><path d="M6287.5 2038.5 6375.5 2038.5" stroke="#000000" stroke-width="6.875" stroke-linecap="round" stroke-linejoin="round" stroke-miterlimit="10" fill="none" fill-rule="evenodd"/></g><g><path d="M6342 2038C6342 2044.07 6337.08 2049 6331 2049 6324.92 2049 6320 2044.07 6320 2038 6320 2031.92 6324.92 2027 6331 2027 6337.08 2027 6342 2031.92 6342 2038Z" stroke="#5B9BD5" stroke-width="3.4375" stroke-linejoin="round" stroke-miterlimit="10"/></g><g><text font-family="Times New Roman,Times New Roman_MSFontService,sans-serif" font-weight="400" font-size="46" transform="matrix(1 0 0 1 6385.18 2053)">Total Storage-Demand Ratio</text></g><g><path d="M6287.5 2098.5 6375.5 2098.5" stroke="#7030A0" stroke-width="6.875" stroke-linecap="round" stroke-linejoin="round" stroke-miterlimit="10" fill="none" fill-rule="evenodd"/></g><g><path d="M6342 2098C6342 2104.07 6337.08 2109 6331 2109 6324.92 2109 6320 2104.07 6320 2098 6320 2091.92 6324.92 2087 6331 2087 6337.08 2087 6342 2091.92 6342 2098Z" stroke="#7030A0" stroke-width="3.4375" stroke-linejoin="round" stroke-miterlimit="10" fill="#CC0099"/></g><g><text font-family="Times New Roman,Times New Roman_MSFontService,sans-serif" font-weight="400" font-size="46" transform="matrix(1 0 0 1 6385.18 2113)">Hydrogen Storage-Demand Ratio</text></g><g><path d="M6287.5 2158.5 6375.5 2158.5" stroke="#C00000" stroke-width="6.875" stroke-linecap="round" stroke-linejoin="round" stroke-miterlimit="10" fill="none" fill-rule="evenodd"/></g><g><path d="M6342 2158C6342 2164.07 6337.08 2169 6331 2169 6324.92 2169 6320 2164.07 6320 2158 6320 2151.92 6324.92 2147 6331 2147 6337.08 2147 6342 2151.92 6342 2158Z" stroke="#C00000" stroke-width="3.4375" stroke-linejoin="round" stroke-miterlimit="10" fill="#FF0000"/></g><g><text font-family="Times New Roman,Times New Roman_MSFontService,sans-serif" font-weight="400" font-size="46" transform="matrix(1 0 0 1 6385.18 2173)">Battery Storage-Demand Ratio</text></g></g></svg>